<?xml version="1.0" encoding="utf-8" standalone="no"?>
<!DOCTYPE svg PUBLIC "-//W3C//DTD SVG 1.1//EN"
  "http://www.w3.org/Graphics/SVG/1.1/DTD/svg11.dtd">
<svg xmlns:xlink="http://www.w3.org/1999/xlink" width="648pt" height="576pt" viewBox="0 0 648 576" xmlns="http://www.w3.org/2000/svg" version="1.1">
 <metadata>
  <rdf:RDF xmlns:dc="http://purl.org/dc/elements/1.1/" xmlns:cc="http://creativecommons.org/ns#" xmlns:rdf="http://www.w3.org/1999/02/22-rdf-syntax-ns#">
   <cc:Work>
    <dc:type rdf:resource="http://purl.org/dc/dcmitype/StillImage"/>
    <dc:date>2024-11-09T03:48:53.967955</dc:date>
    <dc:format>image/svg+xml</dc:format>
    <dc:creator>
     <cc:Agent>
      <dc:title>Matplotlib v3.9.2, https://matplotlib.org/</dc:title>
     </cc:Agent>
    </dc:creator>
   </cc:Work>
  </rdf:RDF>
 </metadata>
 <defs>
  <style type="text/css">*{stroke-linejoin: round; stroke-linecap: butt}</style>
 </defs>
 <g id="figure_1">
  <g id="patch_1">
   <path d="M 0 576 
L 648 576 
L 648 0 
L 0 0 
z
" style="fill: #ffffff"/>
  </g>
  <g id="axes_1">
   <g id="patch_2">
    <path d="M 63.83 168.872 
L 637.2 168.872 
L 637.2 25.44 
L 63.83 25.44 
z
" style="fill: #ffffff"/>
   </g>
   <g id="patch_3">
    <path d="M 89.892273 168.872 
L 99.753673 168.872 
L 99.753673 162.841982 
L 89.892273 162.841982 
z
" clip-path="url(#pb3598b3ef5)" style="fill: #1f77b4"/>
   </g>
   <g id="patch_4">
    <path d="M 230.769423 168.872 
L 240.630823 168.872 
L 240.630823 162.841197 
L 230.769423 162.841197 
z
" clip-path="url(#pb3598b3ef5)" style="fill: #1f77b4"/>
   </g>
   <g id="patch_5">
    <path d="M 371.646572 168.872 
L 381.507973 168.872 
L 381.507973 162.83649 
L 371.646572 162.83649 
z
" clip-path="url(#pb3598b3ef5)" style="fill: #1f77b4"/>
   </g>
   <g id="patch_6">
    <path d="M 512.523722 168.872 
L 522.385123 168.872 
L 522.385123 162.694045 
L 512.523722 162.694045 
z
" clip-path="url(#pb3598b3ef5)" style="fill: #1f77b4"/>
   </g>
   <g id="patch_7">
    <path d="M 99.753673 168.872 
L 109.615074 168.872 
L 109.615074 167.548859 
L 99.753673 167.548859 
z
" clip-path="url(#pb3598b3ef5)" style="fill: #ff7f0e"/>
   </g>
   <g id="patch_8">
    <path d="M 240.630823 168.872 
L 250.492224 168.872 
L 250.492224 167.5482 
L 240.630823 167.5482 
z
" clip-path="url(#pb3598b3ef5)" style="fill: #ff7f0e"/>
   </g>
   <g id="patch_9">
    <path d="M 381.507973 168.872 
L 391.369373 168.872 
L 391.369373 167.554067 
L 381.507973 167.554067 
z
" clip-path="url(#pb3598b3ef5)" style="fill: #ff7f0e"/>
   </g>
   <g id="patch_10">
    <path d="M 522.385123 168.872 
L 532.246523 168.872 
L 532.246523 167.559571 
L 522.385123 167.559571 
z
" clip-path="url(#pb3598b3ef5)" style="fill: #ff7f0e"/>
   </g>
   <g id="patch_11">
    <path d="M 109.615074 168.872 
L 119.476474 168.872 
L 119.476474 116.871739 
L 109.615074 116.871739 
z
" clip-path="url(#pb3598b3ef5)" style="fill: #2ca02c"/>
   </g>
   <g id="patch_12">
    <path d="M 250.492224 168.872 
L 260.353624 168.872 
L 260.353624 117.712613 
L 250.492224 117.712613 
z
" clip-path="url(#pb3598b3ef5)" style="fill: #2ca02c"/>
   </g>
   <g id="patch_13">
    <path d="M 391.369373 168.872 
L 401.230774 168.872 
L 401.230774 115.705336 
L 391.369373 115.705336 
z
" clip-path="url(#pb3598b3ef5)" style="fill: #2ca02c"/>
   </g>
   <g id="patch_14">
    <path d="M 532.246523 168.872 
L 542.107924 168.872 
L 542.107924 116.236043 
L 532.246523 116.236043 
z
" clip-path="url(#pb3598b3ef5)" style="fill: #2ca02c"/>
   </g>
   <g id="patch_15">
    <path d="M 119.476474 168.872 
L 129.337875 168.872 
L 129.337875 35.279487 
L 119.476474 35.279487 
z
" clip-path="url(#pb3598b3ef5)" style="fill: #d62728"/>
   </g>
   <g id="patch_16">
    <path d="M 260.353624 168.872 
L 270.215025 168.872 
L 270.215025 55.740724 
L 260.353624 55.740724 
z
" clip-path="url(#pb3598b3ef5)" style="fill: #d62728"/>
   </g>
   <g id="patch_17">
    <path d="M 401.230774 168.872 
L 411.092174 168.872 
L 411.092174 32.270095 
L 401.230774 32.270095 
z
" clip-path="url(#pb3598b3ef5)" style="fill: #d62728"/>
   </g>
   <g id="patch_18">
    <path d="M 542.107924 168.872 
L 551.969324 168.872 
L 551.969324 52.498091 
L 542.107924 52.498091 
z
" clip-path="url(#pb3598b3ef5)" style="fill: #d62728"/>
   </g>
   <g id="patch_19">
    <path d="M 129.337875 168.872 
L 139.199275 168.872 
L 139.199275 166.835545 
L 129.337875 166.835545 
z
" clip-path="url(#pb3598b3ef5)" style="fill: #9467bd"/>
   </g>
   <g id="patch_20">
    <path d="M 270.215025 168.872 
L 280.076425 168.872 
L 280.076425 166.879187 
L 270.215025 166.879187 
z
" clip-path="url(#pb3598b3ef5)" style="fill: #9467bd"/>
   </g>
   <g id="patch_21">
    <path d="M 411.092174 168.872 
L 420.953575 168.872 
L 420.953575 166.884907 
L 411.092174 166.884907 
z
" clip-path="url(#pb3598b3ef5)" style="fill: #9467bd"/>
   </g>
   <g id="patch_22">
    <path d="M 551.969324 168.872 
L 561.830725 168.872 
L 561.830725 166.76384 
L 551.969324 166.76384 
z
" clip-path="url(#pb3598b3ef5)" style="fill: #9467bd"/>
   </g>
   <g id="patch_23">
    <path d="M 139.199275 168.872 
L 149.060676 168.872 
L 149.060676 163.252179 
L 139.199275 163.252179 
z
" clip-path="url(#pb3598b3ef5)" style="fill: #8c564b"/>
   </g>
   <g id="patch_24">
    <path d="M 280.076425 168.872 
L 289.937826 168.872 
L 289.937826 163.3683 
L 280.076425 163.3683 
z
" clip-path="url(#pb3598b3ef5)" style="fill: #8c564b"/>
   </g>
   <g id="patch_25">
    <path d="M 420.953575 168.872 
L 430.814975 168.872 
L 430.814975 161.552386 
L 420.953575 161.552386 
z
" clip-path="url(#pb3598b3ef5)" style="fill: #8c564b"/>
   </g>
   <g id="patch_26">
    <path d="M 561.830725 168.872 
L 571.692125 168.872 
L 571.692125 163.0285 
L 561.830725 163.0285 
z
" clip-path="url(#pb3598b3ef5)" style="fill: #8c564b"/>
   </g>
   <g id="patch_27">
    <path d="M 149.060676 168.872 
L 158.922076 168.872 
L 158.922076 164.477541 
L 149.060676 164.477541 
z
" clip-path="url(#pb3598b3ef5)" style="fill: #e377c2"/>
   </g>
   <g id="patch_28">
    <path d="M 289.937826 168.872 
L 299.799226 168.872 
L 299.799226 164.444349 
L 289.937826 164.444349 
z
" clip-path="url(#pb3598b3ef5)" style="fill: #e377c2"/>
   </g>
   <g id="patch_29">
    <path d="M 430.814975 168.872 
L 440.676376 168.872 
L 440.676376 164.468751 
L 430.814975 164.468751 
z
" clip-path="url(#pb3598b3ef5)" style="fill: #e377c2"/>
   </g>
   <g id="patch_30">
    <path d="M 571.692125 168.872 
L 581.553526 168.872 
L 581.553526 164.48334 
L 571.692125 164.48334 
z
" clip-path="url(#pb3598b3ef5)" style="fill: #e377c2"/>
   </g>
   <g id="patch_31">
    <path d="M 158.922076 168.872 
L 168.783477 168.872 
L 168.783477 166.968358 
L 158.922076 166.968358 
z
" clip-path="url(#pb3598b3ef5)" style="fill: #7f7f7f"/>
   </g>
   <g id="patch_32">
    <path d="M 299.799226 168.872 
L 309.660627 168.872 
L 309.660627 166.955213 
L 299.799226 166.955213 
z
" clip-path="url(#pb3598b3ef5)" style="fill: #7f7f7f"/>
   </g>
   <g id="patch_33">
    <path d="M 440.676376 168.872 
L 450.537776 168.872 
L 450.537776 166.967756 
L 440.676376 166.967756 
z
" clip-path="url(#pb3598b3ef5)" style="fill: #7f7f7f"/>
   </g>
   <g id="patch_34">
    <path d="M 581.553526 168.872 
L 591.414926 168.872 
L 591.414926 167.01714 
L 581.553526 167.01714 
z
" clip-path="url(#pb3598b3ef5)" style="fill: #7f7f7f"/>
   </g>
   <g id="patch_35">
    <path d="M 168.783477 168.872 
L 178.644877 168.872 
L 178.644877 163.528756 
L 168.783477 163.528756 
z
" clip-path="url(#pb3598b3ef5)" style="fill: #bcbd22"/>
   </g>
   <g id="patch_36">
    <path d="M 309.660627 168.872 
L 319.522027 168.872 
L 319.522027 163.313753 
L 309.660627 163.313753 
z
" clip-path="url(#pb3598b3ef5)" style="fill: #bcbd22"/>
   </g>
   <g id="patch_37">
    <path d="M 450.537776 168.872 
L 460.399177 168.872 
L 460.399177 162.542026 
L 450.537776 162.542026 
z
" clip-path="url(#pb3598b3ef5)" style="fill: #bcbd22"/>
   </g>
   <g id="patch_38">
    <path d="M 591.414926 168.872 
L 601.276327 168.872 
L 601.276327 162.526255 
L 591.414926 162.526255 
z
" clip-path="url(#pb3598b3ef5)" style="fill: #bcbd22"/>
   </g>
   <g id="patch_39">
    <path d="M 178.644877 168.872 
L 188.506278 168.872 
L 188.506278 164.651176 
L 178.644877 164.651176 
z
" clip-path="url(#pb3598b3ef5)" style="fill: #17becf"/>
   </g>
   <g id="patch_40">
    <path d="M 319.522027 168.872 
L 329.383428 168.872 
L 329.383428 164.528938 
L 319.522027 164.528938 
z
" clip-path="url(#pb3598b3ef5)" style="fill: #17becf"/>
   </g>
   <g id="patch_41">
    <path d="M 460.399177 168.872 
L 470.260577 168.872 
L 470.260577 164.607443 
L 460.399177 164.607443 
z
" clip-path="url(#pb3598b3ef5)" style="fill: #17becf"/>
   </g>
   <g id="patch_42">
    <path d="M 601.276327 168.872 
L 611.137727 168.872 
L 611.137727 164.674134 
L 601.276327 164.674134 
z
" clip-path="url(#pb3598b3ef5)" style="fill: #17becf"/>
   </g>
   <g id="matplotlib.axis_1">
    <g id="xtick_1">
     <g id="line2d_1">
      <defs>
       <path id="mb34ef0e3b6" d="M 0 0 
L 0 3.5 
" style="stroke: #000000; stroke-width: 0.8"/>
      </defs>
      <g>
       <use xlink:href="#mb34ef0e3b6" x="144.129975" y="168.872" style="stroke: #000000; stroke-width: 0.8"/>
      </g>
     </g>
     <g id="text_1">
      <!-- $In_1-d_r$ -->
      <g transform="translate(126.229975 183.470438) scale(0.1 -0.1)">
       <defs>
        <path id="DejaVuSans-Oblique-49" d="M 1081 4666 
L 1716 4666 
L 806 0 
L 172 0 
L 1081 4666 
z
" transform="scale(0.015625)"/>
        <path id="DejaVuSans-Oblique-6e" d="M 3566 2113 
L 3156 0 
L 2578 0 
L 2988 2091 
Q 3016 2238 3031 2350 
Q 3047 2463 3047 2528 
Q 3047 2791 2881 2937 
Q 2716 3084 2419 3084 
Q 1956 3084 1622 2776 
Q 1288 2469 1184 1941 
L 800 0 
L 225 0 
L 903 3500 
L 1478 3500 
L 1363 2950 
Q 1603 3253 1940 3418 
Q 2278 3584 2650 3584 
Q 3113 3584 3367 3334 
Q 3622 3084 3622 2631 
Q 3622 2519 3608 2391 
Q 3594 2263 3566 2113 
z
" transform="scale(0.015625)"/>
        <path id="DejaVuSans-31" d="M 794 531 
L 1825 531 
L 1825 4091 
L 703 3866 
L 703 4441 
L 1819 4666 
L 2450 4666 
L 2450 531 
L 3481 531 
L 3481 0 
L 794 0 
L 794 531 
z
" transform="scale(0.015625)"/>
        <path id="DejaVuSans-2212" d="M 678 2272 
L 4684 2272 
L 4684 1741 
L 678 1741 
L 678 2272 
z
" transform="scale(0.015625)"/>
        <path id="DejaVuSans-Oblique-64" d="M 2675 525 
Q 2444 222 2128 65 
Q 1813 -91 1428 -91 
Q 903 -91 598 267 
Q 294 625 294 1247 
Q 294 1766 478 2236 
Q 663 2706 1013 3078 
Q 1244 3325 1534 3454 
Q 1825 3584 2144 3584 
Q 2481 3584 2739 3421 
Q 2997 3259 3138 2956 
L 3513 4863 
L 4091 4863 
L 3144 0 
L 2566 0 
L 2675 525 
z
M 891 1350 
Q 891 897 1095 644 
Q 1300 391 1663 391 
Q 1931 391 2161 520 
Q 2391 650 2566 903 
Q 2750 1166 2856 1509 
Q 2963 1853 2963 2188 
Q 2963 2622 2758 2865 
Q 2553 3109 2194 3109 
Q 1922 3109 1687 2981 
Q 1453 2853 1288 2613 
Q 1106 2353 998 2009 
Q 891 1666 891 1350 
z
" transform="scale(0.015625)"/>
        <path id="DejaVuSans-Oblique-72" d="M 2853 2969 
Q 2766 3016 2653 3041 
Q 2541 3066 2413 3066 
Q 1953 3066 1609 2717 
Q 1266 2369 1153 1784 
L 800 0 
L 225 0 
L 909 3500 
L 1484 3500 
L 1375 2956 
Q 1603 3259 1920 3421 
Q 2238 3584 2597 3584 
Q 2691 3584 2781 3573 
Q 2872 3563 2963 3538 
L 2853 2969 
z
" transform="scale(0.015625)"/>
       </defs>
       <use xlink:href="#DejaVuSans-Oblique-49" transform="translate(0 0.015625)"/>
       <use xlink:href="#DejaVuSans-Oblique-6e" transform="translate(29.492188 0.015625)"/>
       <use xlink:href="#DejaVuSans-31" transform="translate(92.871094 -16.390625) scale(0.7)"/>
       <use xlink:href="#DejaVuSans-2212" transform="translate(159.624023 0.015625)"/>
       <use xlink:href="#DejaVuSans-Oblique-64" transform="translate(262.895508 0.015625)"/>
       <use xlink:href="#DejaVuSans-Oblique-72" transform="translate(326.37207 -16.390625) scale(0.7)"/>
      </g>
     </g>
    </g>
    <g id="xtick_2">
     <g id="line2d_2">
      <g>
       <use xlink:href="#mb34ef0e3b6" x="285.007125" y="168.872" style="stroke: #000000; stroke-width: 0.8"/>
      </g>
     </g>
     <g id="text_2">
      <!-- $In_1-v_1$ -->
      <g transform="translate(266.507125 183.470438) scale(0.1 -0.1)">
       <defs>
        <path id="DejaVuSans-Oblique-76" d="M 459 3500 
L 1069 3500 
L 1581 525 
L 3256 3500 
L 3866 3500 
L 1875 0 
L 1100 0 
L 459 3500 
z
" transform="scale(0.015625)"/>
       </defs>
       <use xlink:href="#DejaVuSans-Oblique-49" transform="translate(0 0.09375)"/>
       <use xlink:href="#DejaVuSans-Oblique-6e" transform="translate(29.492188 0.09375)"/>
       <use xlink:href="#DejaVuSans-31" transform="translate(92.871094 -16.3125) scale(0.7)"/>
       <use xlink:href="#DejaVuSans-2212" transform="translate(159.624023 0.09375)"/>
       <use xlink:href="#DejaVuSans-Oblique-76" transform="translate(262.895508 0.09375)"/>
       <use xlink:href="#DejaVuSans-31" transform="translate(322.075195 -16.3125) scale(0.7)"/>
      </g>
     </g>
    </g>
    <g id="xtick_3">
     <g id="line2d_3">
      <g>
       <use xlink:href="#mb34ef0e3b6" x="425.884275" y="168.872" style="stroke: #000000; stroke-width: 0.8"/>
      </g>
     </g>
     <g id="text_3">
      <!-- $In_2-d_r$ -->
      <g transform="translate(407.984275 183.470438) scale(0.1 -0.1)">
       <defs>
        <path id="DejaVuSans-32" d="M 1228 531 
L 3431 531 
L 3431 0 
L 469 0 
L 469 531 
Q 828 903 1448 1529 
Q 2069 2156 2228 2338 
Q 2531 2678 2651 2914 
Q 2772 3150 2772 3378 
Q 2772 3750 2511 3984 
Q 2250 4219 1831 4219 
Q 1534 4219 1204 4116 
Q 875 4013 500 3803 
L 500 4441 
Q 881 4594 1212 4672 
Q 1544 4750 1819 4750 
Q 2544 4750 2975 4387 
Q 3406 4025 3406 3419 
Q 3406 3131 3298 2873 
Q 3191 2616 2906 2266 
Q 2828 2175 2409 1742 
Q 1991 1309 1228 531 
z
" transform="scale(0.015625)"/>
       </defs>
       <use xlink:href="#DejaVuSans-Oblique-49" transform="translate(0 0.015625)"/>
       <use xlink:href="#DejaVuSans-Oblique-6e" transform="translate(29.492188 0.015625)"/>
       <use xlink:href="#DejaVuSans-32" transform="translate(92.871094 -16.390625) scale(0.7)"/>
       <use xlink:href="#DejaVuSans-2212" transform="translate(159.624023 0.015625)"/>
       <use xlink:href="#DejaVuSans-Oblique-64" transform="translate(262.895508 0.015625)"/>
       <use xlink:href="#DejaVuSans-Oblique-72" transform="translate(326.37207 -16.390625) scale(0.7)"/>
      </g>
     </g>
    </g>
    <g id="xtick_4">
     <g id="line2d_4">
      <g>
       <use xlink:href="#mb34ef0e3b6" x="566.761425" y="168.872" style="stroke: #000000; stroke-width: 0.8"/>
      </g>
     </g>
     <g id="text_4">
      <!-- $In_2-v_1$ -->
      <g transform="translate(548.261425 183.470438) scale(0.1 -0.1)">
       <use xlink:href="#DejaVuSans-Oblique-49" transform="translate(0 0.09375)"/>
       <use xlink:href="#DejaVuSans-Oblique-6e" transform="translate(29.492188 0.09375)"/>
       <use xlink:href="#DejaVuSans-32" transform="translate(92.871094 -16.3125) scale(0.7)"/>
       <use xlink:href="#DejaVuSans-2212" transform="translate(159.624023 0.09375)"/>
       <use xlink:href="#DejaVuSans-Oblique-76" transform="translate(262.895508 0.09375)"/>
       <use xlink:href="#DejaVuSans-31" transform="translate(322.075195 -16.3125) scale(0.7)"/>
      </g>
     </g>
    </g>
   </g>
   <g id="matplotlib.axis_2">
    <g id="ytick_1">
     <g id="line2d_5">
      <defs>
       <path id="m6378faf447" d="M 0 0 
L -3.5 0 
" style="stroke: #000000; stroke-width: 0.8"/>
      </defs>
      <g>
       <use xlink:href="#m6378faf447" x="63.83" y="168.872" style="stroke: #000000; stroke-width: 0.8"/>
      </g>
     </g>
     <g id="text_5">
      <!-- 0 -->
      <g transform="translate(50.4675 172.671219) scale(0.1 -0.1)">
       <defs>
        <path id="DejaVuSans-30" d="M 2034 4250 
Q 1547 4250 1301 3770 
Q 1056 3291 1056 2328 
Q 1056 1369 1301 889 
Q 1547 409 2034 409 
Q 2525 409 2770 889 
Q 3016 1369 3016 2328 
Q 3016 3291 2770 3770 
Q 2525 4250 2034 4250 
z
M 2034 4750 
Q 2819 4750 3233 4129 
Q 3647 3509 3647 2328 
Q 3647 1150 3233 529 
Q 2819 -91 2034 -91 
Q 1250 -91 836 529 
Q 422 1150 422 2328 
Q 422 3509 836 4129 
Q 1250 4750 2034 4750 
z
" transform="scale(0.015625)"/>
       </defs>
       <use xlink:href="#DejaVuSans-30"/>
      </g>
     </g>
    </g>
    <g id="ytick_2">
     <g id="line2d_6">
      <g>
       <use xlink:href="#m6378faf447" x="63.83" y="146.130002" style="stroke: #000000; stroke-width: 0.8"/>
      </g>
     </g>
     <g id="text_6">
      <!-- 2000 -->
      <g transform="translate(31.38 149.92922) scale(0.1 -0.1)">
       <use xlink:href="#DejaVuSans-32"/>
       <use xlink:href="#DejaVuSans-30" x="63.623047"/>
       <use xlink:href="#DejaVuSans-30" x="127.246094"/>
       <use xlink:href="#DejaVuSans-30" x="190.869141"/>
      </g>
     </g>
    </g>
    <g id="ytick_3">
     <g id="line2d_7">
      <g>
       <use xlink:href="#m6378faf447" x="63.83" y="123.388003" style="stroke: #000000; stroke-width: 0.8"/>
      </g>
     </g>
     <g id="text_7">
      <!-- 4000 -->
      <g transform="translate(31.38 127.187222) scale(0.1 -0.1)">
       <defs>
        <path id="DejaVuSans-34" d="M 2419 4116 
L 825 1625 
L 2419 1625 
L 2419 4116 
z
M 2253 4666 
L 3047 4666 
L 3047 1625 
L 3713 1625 
L 3713 1100 
L 3047 1100 
L 3047 0 
L 2419 0 
L 2419 1100 
L 313 1100 
L 313 1709 
L 2253 4666 
z
" transform="scale(0.015625)"/>
       </defs>
       <use xlink:href="#DejaVuSans-34"/>
       <use xlink:href="#DejaVuSans-30" x="63.623047"/>
       <use xlink:href="#DejaVuSans-30" x="127.246094"/>
       <use xlink:href="#DejaVuSans-30" x="190.869141"/>
      </g>
     </g>
    </g>
    <g id="ytick_4">
     <g id="line2d_8">
      <g>
       <use xlink:href="#m6378faf447" x="63.83" y="100.646005" style="stroke: #000000; stroke-width: 0.8"/>
      </g>
     </g>
     <g id="text_8">
      <!-- 6000 -->
      <g transform="translate(31.38 104.445224) scale(0.1 -0.1)">
       <defs>
        <path id="DejaVuSans-36" d="M 2113 2584 
Q 1688 2584 1439 2293 
Q 1191 2003 1191 1497 
Q 1191 994 1439 701 
Q 1688 409 2113 409 
Q 2538 409 2786 701 
Q 3034 994 3034 1497 
Q 3034 2003 2786 2293 
Q 2538 2584 2113 2584 
z
M 3366 4563 
L 3366 3988 
Q 3128 4100 2886 4159 
Q 2644 4219 2406 4219 
Q 1781 4219 1451 3797 
Q 1122 3375 1075 2522 
Q 1259 2794 1537 2939 
Q 1816 3084 2150 3084 
Q 2853 3084 3261 2657 
Q 3669 2231 3669 1497 
Q 3669 778 3244 343 
Q 2819 -91 2113 -91 
Q 1303 -91 875 529 
Q 447 1150 447 2328 
Q 447 3434 972 4092 
Q 1497 4750 2381 4750 
Q 2619 4750 2861 4703 
Q 3103 4656 3366 4563 
z
" transform="scale(0.015625)"/>
       </defs>
       <use xlink:href="#DejaVuSans-36"/>
       <use xlink:href="#DejaVuSans-30" x="63.623047"/>
       <use xlink:href="#DejaVuSans-30" x="127.246094"/>
       <use xlink:href="#DejaVuSans-30" x="190.869141"/>
      </g>
     </g>
    </g>
    <g id="ytick_5">
     <g id="line2d_9">
      <g>
       <use xlink:href="#m6378faf447" x="63.83" y="77.904007" style="stroke: #000000; stroke-width: 0.8"/>
      </g>
     </g>
     <g id="text_9">
      <!-- 8000 -->
      <g transform="translate(31.38 81.703226) scale(0.1 -0.1)">
       <defs>
        <path id="DejaVuSans-38" d="M 2034 2216 
Q 1584 2216 1326 1975 
Q 1069 1734 1069 1313 
Q 1069 891 1326 650 
Q 1584 409 2034 409 
Q 2484 409 2743 651 
Q 3003 894 3003 1313 
Q 3003 1734 2745 1975 
Q 2488 2216 2034 2216 
z
M 1403 2484 
Q 997 2584 770 2862 
Q 544 3141 544 3541 
Q 544 4100 942 4425 
Q 1341 4750 2034 4750 
Q 2731 4750 3128 4425 
Q 3525 4100 3525 3541 
Q 3525 3141 3298 2862 
Q 3072 2584 2669 2484 
Q 3125 2378 3379 2068 
Q 3634 1759 3634 1313 
Q 3634 634 3220 271 
Q 2806 -91 2034 -91 
Q 1263 -91 848 271 
Q 434 634 434 1313 
Q 434 1759 690 2068 
Q 947 2378 1403 2484 
z
M 1172 3481 
Q 1172 3119 1398 2916 
Q 1625 2713 2034 2713 
Q 2441 2713 2670 2916 
Q 2900 3119 2900 3481 
Q 2900 3844 2670 4047 
Q 2441 4250 2034 4250 
Q 1625 4250 1398 4047 
Q 1172 3844 1172 3481 
z
" transform="scale(0.015625)"/>
       </defs>
       <use xlink:href="#DejaVuSans-38"/>
       <use xlink:href="#DejaVuSans-30" x="63.623047"/>
       <use xlink:href="#DejaVuSans-30" x="127.246094"/>
       <use xlink:href="#DejaVuSans-30" x="190.869141"/>
      </g>
     </g>
    </g>
    <g id="ytick_6">
     <g id="line2d_10">
      <g>
       <use xlink:href="#m6378faf447" x="63.83" y="55.162009" style="stroke: #000000; stroke-width: 0.8"/>
      </g>
     </g>
     <g id="text_10">
      <!-- 10000 -->
      <g transform="translate(25.0175 58.961227) scale(0.1 -0.1)">
       <use xlink:href="#DejaVuSans-31"/>
       <use xlink:href="#DejaVuSans-30" x="63.623047"/>
       <use xlink:href="#DejaVuSans-30" x="127.246094"/>
       <use xlink:href="#DejaVuSans-30" x="190.869141"/>
       <use xlink:href="#DejaVuSans-30" x="254.492188"/>
      </g>
     </g>
    </g>
    <g id="ytick_7">
     <g id="line2d_11">
      <g>
       <use xlink:href="#m6378faf447" x="63.83" y="32.42001" style="stroke: #000000; stroke-width: 0.8"/>
      </g>
     </g>
     <g id="text_11">
      <!-- 12000 -->
      <g transform="translate(25.0175 36.219229) scale(0.1 -0.1)">
       <use xlink:href="#DejaVuSans-31"/>
       <use xlink:href="#DejaVuSans-32" x="63.623047"/>
       <use xlink:href="#DejaVuSans-30" x="127.246094"/>
       <use xlink:href="#DejaVuSans-30" x="190.869141"/>
       <use xlink:href="#DejaVuSans-30" x="254.492188"/>
      </g>
     </g>
    </g>
    <g id="text_12">
     <!-- Total Runtime (seconds) -->
     <g transform="translate(18.937813 157.232563) rotate(-90) scale(0.1 -0.1)">
      <defs>
       <path id="DejaVuSans-54" d="M -19 4666 
L 3928 4666 
L 3928 4134 
L 2272 4134 
L 2272 0 
L 1638 0 
L 1638 4134 
L -19 4134 
L -19 4666 
z
" transform="scale(0.015625)"/>
       <path id="DejaVuSans-6f" d="M 1959 3097 
Q 1497 3097 1228 2736 
Q 959 2375 959 1747 
Q 959 1119 1226 758 
Q 1494 397 1959 397 
Q 2419 397 2687 759 
Q 2956 1122 2956 1747 
Q 2956 2369 2687 2733 
Q 2419 3097 1959 3097 
z
M 1959 3584 
Q 2709 3584 3137 3096 
Q 3566 2609 3566 1747 
Q 3566 888 3137 398 
Q 2709 -91 1959 -91 
Q 1206 -91 779 398 
Q 353 888 353 1747 
Q 353 2609 779 3096 
Q 1206 3584 1959 3584 
z
" transform="scale(0.015625)"/>
       <path id="DejaVuSans-74" d="M 1172 4494 
L 1172 3500 
L 2356 3500 
L 2356 3053 
L 1172 3053 
L 1172 1153 
Q 1172 725 1289 603 
Q 1406 481 1766 481 
L 2356 481 
L 2356 0 
L 1766 0 
Q 1100 0 847 248 
Q 594 497 594 1153 
L 594 3053 
L 172 3053 
L 172 3500 
L 594 3500 
L 594 4494 
L 1172 4494 
z
" transform="scale(0.015625)"/>
       <path id="DejaVuSans-61" d="M 2194 1759 
Q 1497 1759 1228 1600 
Q 959 1441 959 1056 
Q 959 750 1161 570 
Q 1363 391 1709 391 
Q 2188 391 2477 730 
Q 2766 1069 2766 1631 
L 2766 1759 
L 2194 1759 
z
M 3341 1997 
L 3341 0 
L 2766 0 
L 2766 531 
Q 2569 213 2275 61 
Q 1981 -91 1556 -91 
Q 1019 -91 701 211 
Q 384 513 384 1019 
Q 384 1609 779 1909 
Q 1175 2209 1959 2209 
L 2766 2209 
L 2766 2266 
Q 2766 2663 2505 2880 
Q 2244 3097 1772 3097 
Q 1472 3097 1187 3025 
Q 903 2953 641 2809 
L 641 3341 
Q 956 3463 1253 3523 
Q 1550 3584 1831 3584 
Q 2591 3584 2966 3190 
Q 3341 2797 3341 1997 
z
" transform="scale(0.015625)"/>
       <path id="DejaVuSans-6c" d="M 603 4863 
L 1178 4863 
L 1178 0 
L 603 0 
L 603 4863 
z
" transform="scale(0.015625)"/>
       <path id="DejaVuSans-20" transform="scale(0.015625)"/>
       <path id="DejaVuSans-52" d="M 2841 2188 
Q 3044 2119 3236 1894 
Q 3428 1669 3622 1275 
L 4263 0 
L 3584 0 
L 2988 1197 
Q 2756 1666 2539 1819 
Q 2322 1972 1947 1972 
L 1259 1972 
L 1259 0 
L 628 0 
L 628 4666 
L 2053 4666 
Q 2853 4666 3247 4331 
Q 3641 3997 3641 3322 
Q 3641 2881 3436 2590 
Q 3231 2300 2841 2188 
z
M 1259 4147 
L 1259 2491 
L 2053 2491 
Q 2509 2491 2742 2702 
Q 2975 2913 2975 3322 
Q 2975 3731 2742 3939 
Q 2509 4147 2053 4147 
L 1259 4147 
z
" transform="scale(0.015625)"/>
       <path id="DejaVuSans-75" d="M 544 1381 
L 544 3500 
L 1119 3500 
L 1119 1403 
Q 1119 906 1312 657 
Q 1506 409 1894 409 
Q 2359 409 2629 706 
Q 2900 1003 2900 1516 
L 2900 3500 
L 3475 3500 
L 3475 0 
L 2900 0 
L 2900 538 
Q 2691 219 2414 64 
Q 2138 -91 1772 -91 
Q 1169 -91 856 284 
Q 544 659 544 1381 
z
M 1991 3584 
L 1991 3584 
z
" transform="scale(0.015625)"/>
       <path id="DejaVuSans-6e" d="M 3513 2113 
L 3513 0 
L 2938 0 
L 2938 2094 
Q 2938 2591 2744 2837 
Q 2550 3084 2163 3084 
Q 1697 3084 1428 2787 
Q 1159 2491 1159 1978 
L 1159 0 
L 581 0 
L 581 3500 
L 1159 3500 
L 1159 2956 
Q 1366 3272 1645 3428 
Q 1925 3584 2291 3584 
Q 2894 3584 3203 3211 
Q 3513 2838 3513 2113 
z
" transform="scale(0.015625)"/>
       <path id="DejaVuSans-69" d="M 603 3500 
L 1178 3500 
L 1178 0 
L 603 0 
L 603 3500 
z
M 603 4863 
L 1178 4863 
L 1178 4134 
L 603 4134 
L 603 4863 
z
" transform="scale(0.015625)"/>
       <path id="DejaVuSans-6d" d="M 3328 2828 
Q 3544 3216 3844 3400 
Q 4144 3584 4550 3584 
Q 5097 3584 5394 3201 
Q 5691 2819 5691 2113 
L 5691 0 
L 5113 0 
L 5113 2094 
Q 5113 2597 4934 2840 
Q 4756 3084 4391 3084 
Q 3944 3084 3684 2787 
Q 3425 2491 3425 1978 
L 3425 0 
L 2847 0 
L 2847 2094 
Q 2847 2600 2669 2842 
Q 2491 3084 2119 3084 
Q 1678 3084 1418 2786 
Q 1159 2488 1159 1978 
L 1159 0 
L 581 0 
L 581 3500 
L 1159 3500 
L 1159 2956 
Q 1356 3278 1631 3431 
Q 1906 3584 2284 3584 
Q 2666 3584 2933 3390 
Q 3200 3197 3328 2828 
z
" transform="scale(0.015625)"/>
       <path id="DejaVuSans-65" d="M 3597 1894 
L 3597 1613 
L 953 1613 
Q 991 1019 1311 708 
Q 1631 397 2203 397 
Q 2534 397 2845 478 
Q 3156 559 3463 722 
L 3463 178 
Q 3153 47 2828 -22 
Q 2503 -91 2169 -91 
Q 1331 -91 842 396 
Q 353 884 353 1716 
Q 353 2575 817 3079 
Q 1281 3584 2069 3584 
Q 2775 3584 3186 3129 
Q 3597 2675 3597 1894 
z
M 3022 2063 
Q 3016 2534 2758 2815 
Q 2500 3097 2075 3097 
Q 1594 3097 1305 2825 
Q 1016 2553 972 2059 
L 3022 2063 
z
" transform="scale(0.015625)"/>
       <path id="DejaVuSans-28" d="M 1984 4856 
Q 1566 4138 1362 3434 
Q 1159 2731 1159 2009 
Q 1159 1288 1364 580 
Q 1569 -128 1984 -844 
L 1484 -844 
Q 1016 -109 783 600 
Q 550 1309 550 2009 
Q 550 2706 781 3412 
Q 1013 4119 1484 4856 
L 1984 4856 
z
" transform="scale(0.015625)"/>
       <path id="DejaVuSans-73" d="M 2834 3397 
L 2834 2853 
Q 2591 2978 2328 3040 
Q 2066 3103 1784 3103 
Q 1356 3103 1142 2972 
Q 928 2841 928 2578 
Q 928 2378 1081 2264 
Q 1234 2150 1697 2047 
L 1894 2003 
Q 2506 1872 2764 1633 
Q 3022 1394 3022 966 
Q 3022 478 2636 193 
Q 2250 -91 1575 -91 
Q 1294 -91 989 -36 
Q 684 19 347 128 
L 347 722 
Q 666 556 975 473 
Q 1284 391 1588 391 
Q 1994 391 2212 530 
Q 2431 669 2431 922 
Q 2431 1156 2273 1281 
Q 2116 1406 1581 1522 
L 1381 1569 
Q 847 1681 609 1914 
Q 372 2147 372 2553 
Q 372 3047 722 3315 
Q 1072 3584 1716 3584 
Q 2034 3584 2315 3537 
Q 2597 3491 2834 3397 
z
" transform="scale(0.015625)"/>
       <path id="DejaVuSans-63" d="M 3122 3366 
L 3122 2828 
Q 2878 2963 2633 3030 
Q 2388 3097 2138 3097 
Q 1578 3097 1268 2742 
Q 959 2388 959 1747 
Q 959 1106 1268 751 
Q 1578 397 2138 397 
Q 2388 397 2633 464 
Q 2878 531 3122 666 
L 3122 134 
Q 2881 22 2623 -34 
Q 2366 -91 2075 -91 
Q 1284 -91 818 406 
Q 353 903 353 1747 
Q 353 2603 823 3093 
Q 1294 3584 2113 3584 
Q 2378 3584 2631 3529 
Q 2884 3475 3122 3366 
z
" transform="scale(0.015625)"/>
       <path id="DejaVuSans-64" d="M 2906 2969 
L 2906 4863 
L 3481 4863 
L 3481 0 
L 2906 0 
L 2906 525 
Q 2725 213 2448 61 
Q 2172 -91 1784 -91 
Q 1150 -91 751 415 
Q 353 922 353 1747 
Q 353 2572 751 3078 
Q 1150 3584 1784 3584 
Q 2172 3584 2448 3432 
Q 2725 3281 2906 2969 
z
M 947 1747 
Q 947 1113 1208 752 
Q 1469 391 1925 391 
Q 2381 391 2643 752 
Q 2906 1113 2906 1747 
Q 2906 2381 2643 2742 
Q 2381 3103 1925 3103 
Q 1469 3103 1208 2742 
Q 947 2381 947 1747 
z
" transform="scale(0.015625)"/>
       <path id="DejaVuSans-29" d="M 513 4856 
L 1013 4856 
Q 1481 4119 1714 3412 
Q 1947 2706 1947 2009 
Q 1947 1309 1714 600 
Q 1481 -109 1013 -844 
L 513 -844 
Q 928 -128 1133 580 
Q 1338 1288 1338 2009 
Q 1338 2731 1133 3434 
Q 928 4138 513 4856 
z
" transform="scale(0.015625)"/>
      </defs>
      <use xlink:href="#DejaVuSans-54"/>
      <use xlink:href="#DejaVuSans-6f" x="44.083984"/>
      <use xlink:href="#DejaVuSans-74" x="105.265625"/>
      <use xlink:href="#DejaVuSans-61" x="144.474609"/>
      <use xlink:href="#DejaVuSans-6c" x="205.753906"/>
      <use xlink:href="#DejaVuSans-20" x="233.537109"/>
      <use xlink:href="#DejaVuSans-52" x="265.324219"/>
      <use xlink:href="#DejaVuSans-75" x="330.306641"/>
      <use xlink:href="#DejaVuSans-6e" x="393.685547"/>
      <use xlink:href="#DejaVuSans-74" x="457.064453"/>
      <use xlink:href="#DejaVuSans-69" x="496.273438"/>
      <use xlink:href="#DejaVuSans-6d" x="524.056641"/>
      <use xlink:href="#DejaVuSans-65" x="621.46875"/>
      <use xlink:href="#DejaVuSans-20" x="682.992188"/>
      <use xlink:href="#DejaVuSans-28" x="714.779297"/>
      <use xlink:href="#DejaVuSans-73" x="753.792969"/>
      <use xlink:href="#DejaVuSans-65" x="805.892578"/>
      <use xlink:href="#DejaVuSans-63" x="867.416016"/>
      <use xlink:href="#DejaVuSans-6f" x="922.396484"/>
      <use xlink:href="#DejaVuSans-6e" x="983.578125"/>
      <use xlink:href="#DejaVuSans-64" x="1046.957031"/>
      <use xlink:href="#DejaVuSans-73" x="1110.433594"/>
      <use xlink:href="#DejaVuSans-29" x="1162.533203"/>
     </g>
    </g>
   </g>
   <g id="patch_43">
    <path d="M 63.83 168.872 
L 63.83 25.44 
" style="fill: none; stroke: #000000; stroke-width: 0.8; stroke-linejoin: miter; stroke-linecap: square"/>
   </g>
   <g id="patch_44">
    <path d="M 637.2 168.872 
L 637.2 25.44 
" style="fill: none; stroke: #000000; stroke-width: 0.8; stroke-linejoin: miter; stroke-linecap: square"/>
   </g>
   <g id="patch_45">
    <path d="M 63.83 168.872 
L 637.2 168.872 
" style="fill: none; stroke: #000000; stroke-width: 0.8; stroke-linejoin: miter; stroke-linecap: square"/>
   </g>
   <g id="patch_46">
    <path d="M 63.83 25.44 
L 637.2 25.44 
" style="fill: none; stroke: #000000; stroke-width: 0.8; stroke-linejoin: miter; stroke-linecap: square"/>
   </g>
   <g id="text_13">
    <!-- Total Runtime Comparison -->
    <g transform="translate(271.705938 19.44) scale(0.12 -0.12)">
     <defs>
      <path id="DejaVuSans-43" d="M 4122 4306 
L 4122 3641 
Q 3803 3938 3442 4084 
Q 3081 4231 2675 4231 
Q 1875 4231 1450 3742 
Q 1025 3253 1025 2328 
Q 1025 1406 1450 917 
Q 1875 428 2675 428 
Q 3081 428 3442 575 
Q 3803 722 4122 1019 
L 4122 359 
Q 3791 134 3420 21 
Q 3050 -91 2638 -91 
Q 1578 -91 968 557 
Q 359 1206 359 2328 
Q 359 3453 968 4101 
Q 1578 4750 2638 4750 
Q 3056 4750 3426 4639 
Q 3797 4528 4122 4306 
z
" transform="scale(0.015625)"/>
      <path id="DejaVuSans-70" d="M 1159 525 
L 1159 -1331 
L 581 -1331 
L 581 3500 
L 1159 3500 
L 1159 2969 
Q 1341 3281 1617 3432 
Q 1894 3584 2278 3584 
Q 2916 3584 3314 3078 
Q 3713 2572 3713 1747 
Q 3713 922 3314 415 
Q 2916 -91 2278 -91 
Q 1894 -91 1617 61 
Q 1341 213 1159 525 
z
M 3116 1747 
Q 3116 2381 2855 2742 
Q 2594 3103 2138 3103 
Q 1681 3103 1420 2742 
Q 1159 2381 1159 1747 
Q 1159 1113 1420 752 
Q 1681 391 2138 391 
Q 2594 391 2855 752 
Q 3116 1113 3116 1747 
z
" transform="scale(0.015625)"/>
      <path id="DejaVuSans-72" d="M 2631 2963 
Q 2534 3019 2420 3045 
Q 2306 3072 2169 3072 
Q 1681 3072 1420 2755 
Q 1159 2438 1159 1844 
L 1159 0 
L 581 0 
L 581 3500 
L 1159 3500 
L 1159 2956 
Q 1341 3275 1631 3429 
Q 1922 3584 2338 3584 
Q 2397 3584 2469 3576 
Q 2541 3569 2628 3553 
L 2631 2963 
z
" transform="scale(0.015625)"/>
     </defs>
     <use xlink:href="#DejaVuSans-54"/>
     <use xlink:href="#DejaVuSans-6f" x="44.083984"/>
     <use xlink:href="#DejaVuSans-74" x="105.265625"/>
     <use xlink:href="#DejaVuSans-61" x="144.474609"/>
     <use xlink:href="#DejaVuSans-6c" x="205.753906"/>
     <use xlink:href="#DejaVuSans-20" x="233.537109"/>
     <use xlink:href="#DejaVuSans-52" x="265.324219"/>
     <use xlink:href="#DejaVuSans-75" x="330.306641"/>
     <use xlink:href="#DejaVuSans-6e" x="393.685547"/>
     <use xlink:href="#DejaVuSans-74" x="457.064453"/>
     <use xlink:href="#DejaVuSans-69" x="496.273438"/>
     <use xlink:href="#DejaVuSans-6d" x="524.056641"/>
     <use xlink:href="#DejaVuSans-65" x="621.46875"/>
     <use xlink:href="#DejaVuSans-20" x="682.992188"/>
     <use xlink:href="#DejaVuSans-43" x="714.779297"/>
     <use xlink:href="#DejaVuSans-6f" x="784.603516"/>
     <use xlink:href="#DejaVuSans-6d" x="845.785156"/>
     <use xlink:href="#DejaVuSans-70" x="943.197266"/>
     <use xlink:href="#DejaVuSans-61" x="1006.673828"/>
     <use xlink:href="#DejaVuSans-72" x="1067.953125"/>
     <use xlink:href="#DejaVuSans-69" x="1109.066406"/>
     <use xlink:href="#DejaVuSans-73" x="1136.849609"/>
     <use xlink:href="#DejaVuSans-6f" x="1188.949219"/>
     <use xlink:href="#DejaVuSans-6e" x="1250.130859"/>
    </g>
   </g>
  </g>
  <g id="axes_2">
   <g id="patch_47">
    <path d="M 63.83 357.272 
L 637.2 357.272 
L 637.2 213.84 
L 63.83 213.84 
z
" style="fill: #ffffff"/>
   </g>
   <g id="patch_48">
    <path d="M 89.892273 357.272 
L 99.753673 357.272 
L 99.753673 322.378678 
L 89.892273 322.378678 
z
" clip-path="url(#pf34031ac2c)" style="fill: #1f77b4"/>
   </g>
   <g id="patch_49">
    <path d="M 230.769423 357.272 
L 240.630823 357.272 
L 240.630823 322.078813 
L 230.769423 322.078813 
z
" clip-path="url(#pf34031ac2c)" style="fill: #1f77b4"/>
   </g>
   <g id="patch_50">
    <path d="M 371.646572 357.272 
L 381.507973 357.272 
L 381.507973 322.296896 
L 371.646572 322.296896 
z
" clip-path="url(#pf34031ac2c)" style="fill: #1f77b4"/>
   </g>
   <g id="patch_51">
    <path d="M 512.523722 357.272 
L 522.385123 357.272 
L 522.385123 322.242376 
L 512.523722 322.242376 
z
" clip-path="url(#pf34031ac2c)" style="fill: #1f77b4"/>
   </g>
   <g id="patch_52">
    <path d="M 99.753673 357.272 
L 109.615074 357.272 
L 109.615074 321.969772 
L 99.753673 321.969772 
z
" clip-path="url(#pf34031ac2c)" style="fill: #ff7f0e"/>
   </g>
   <g id="patch_53">
    <path d="M 240.630823 357.272 
L 250.492224 357.272 
L 250.492224 322.160594 
L 240.630823 322.160594 
z
" clip-path="url(#pf34031ac2c)" style="fill: #ff7f0e"/>
   </g>
   <g id="patch_54">
    <path d="M 381.507973 357.272 
L 391.369373 357.272 
L 391.369373 321.86073 
L 381.507973 321.86073 
z
" clip-path="url(#pf34031ac2c)" style="fill: #ff7f0e"/>
   </g>
   <g id="patch_55">
    <path d="M 522.385123 357.272 
L 532.246523 357.272 
L 532.246523 321.86073 
L 522.385123 321.86073 
z
" clip-path="url(#pf34031ac2c)" style="fill: #ff7f0e"/>
   </g>
   <g id="patch_56">
    <path d="M 109.615074 357.272 
L 119.476474 357.272 
L 119.476474 321.915251 
L 109.615074 321.915251 
z
" clip-path="url(#pf34031ac2c)" style="fill: #2ca02c"/>
   </g>
   <g id="patch_57">
    <path d="M 250.492224 357.272 
L 260.353624 357.272 
L 260.353624 322.160594 
L 250.492224 322.160594 
z
" clip-path="url(#pf34031ac2c)" style="fill: #2ca02c"/>
   </g>
   <g id="patch_58">
    <path d="M 391.369373 357.272 
L 401.230774 357.272 
L 401.230774 321.86073 
L 391.369373 321.86073 
z
" clip-path="url(#pf34031ac2c)" style="fill: #2ca02c"/>
   </g>
   <g id="patch_59">
    <path d="M 532.246523 357.272 
L 542.107924 357.272 
L 542.107924 322.242376 
L 532.246523 322.242376 
z
" clip-path="url(#pf34031ac2c)" style="fill: #2ca02c"/>
   </g>
   <g id="patch_60">
    <path d="M 119.476474 357.272 
L 129.337875 357.272 
L 129.337875 321.86073 
L 119.476474 321.86073 
z
" clip-path="url(#pf34031ac2c)" style="fill: #d62728"/>
   </g>
   <g id="patch_61">
    <path d="M 260.353624 357.272 
L 270.215025 357.272 
L 270.215025 325.595406 
L 260.353624 325.595406 
z
" clip-path="url(#pf34031ac2c)" style="fill: #d62728"/>
   </g>
   <g id="patch_62">
    <path d="M 401.230774 357.272 
L 411.092174 357.272 
L 411.092174 323.414573 
L 401.230774 323.414573 
z
" clip-path="url(#pf34031ac2c)" style="fill: #d62728"/>
   </g>
   <g id="patch_63">
    <path d="M 542.107924 357.272 
L 551.969324 357.272 
L 551.969324 322.160594 
L 542.107924 322.160594 
z
" clip-path="url(#pf34031ac2c)" style="fill: #d62728"/>
   </g>
   <g id="patch_64">
    <path d="M 129.337875 357.272 
L 139.199275 357.272 
L 139.199275 220.779137 
L 129.337875 220.779137 
z
" clip-path="url(#pf34031ac2c)" style="fill: #9467bd"/>
   </g>
   <g id="patch_65">
    <path d="M 270.215025 357.272 
L 280.076425 357.272 
L 280.076425 220.697356 
L 270.215025 220.697356 
z
" clip-path="url(#pf34031ac2c)" style="fill: #9467bd"/>
   </g>
   <g id="patch_66">
    <path d="M 411.092174 357.272 
L 420.953575 357.272 
L 420.953575 220.779137 
L 411.092174 220.779137 
z
" clip-path="url(#pf34031ac2c)" style="fill: #9467bd"/>
   </g>
   <g id="patch_67">
    <path d="M 551.969324 357.272 
L 561.830725 357.272 
L 561.830725 220.942699 
L 551.969324 220.942699 
z
" clip-path="url(#pf34031ac2c)" style="fill: #9467bd"/>
   </g>
   <g id="patch_68">
    <path d="M 139.199275 357.272 
L 149.060676 357.272 
L 149.060676 220.942699 
L 139.199275 220.942699 
z
" clip-path="url(#pf34031ac2c)" style="fill: #8c564b"/>
   </g>
   <g id="patch_69">
    <path d="M 280.076425 357.272 
L 289.937826 357.272 
L 289.937826 220.888179 
L 280.076425 220.888179 
z
" clip-path="url(#pf34031ac2c)" style="fill: #8c564b"/>
   </g>
   <g id="patch_70">
    <path d="M 420.953575 357.272 
L 430.814975 357.272 
L 430.814975 220.779137 
L 420.953575 220.779137 
z
" clip-path="url(#pf34031ac2c)" style="fill: #8c564b"/>
   </g>
   <g id="patch_71">
    <path d="M 561.830725 357.272 
L 571.692125 357.272 
L 571.692125 220.779137 
L 561.830725 220.779137 
z
" clip-path="url(#pf34031ac2c)" style="fill: #8c564b"/>
   </g>
   <g id="patch_72">
    <path d="M 149.060676 357.272 
L 158.922076 357.272 
L 158.922076 220.779137 
L 149.060676 220.779137 
z
" clip-path="url(#pf34031ac2c)" style="fill: #e377c2"/>
   </g>
   <g id="patch_73">
    <path d="M 289.937826 357.272 
L 299.799226 357.272 
L 299.799226 220.779137 
L 289.937826 220.779137 
z
" clip-path="url(#pf34031ac2c)" style="fill: #e377c2"/>
   </g>
   <g id="patch_74">
    <path d="M 430.814975 357.272 
L 440.676376 357.272 
L 440.676376 220.779137 
L 430.814975 220.779137 
z
" clip-path="url(#pf34031ac2c)" style="fill: #e377c2"/>
   </g>
   <g id="patch_75">
    <path d="M 571.692125 357.272 
L 581.553526 357.272 
L 581.553526 220.779137 
L 571.692125 220.779137 
z
" clip-path="url(#pf34031ac2c)" style="fill: #e377c2"/>
   </g>
   <g id="patch_76">
    <path d="M 158.922076 357.272 
L 168.783477 357.272 
L 168.783477 220.670095 
L 158.922076 220.670095 
z
" clip-path="url(#pf34031ac2c)" style="fill: #7f7f7f"/>
   </g>
   <g id="patch_77">
    <path d="M 299.799226 357.272 
L 309.660627 357.272 
L 309.660627 220.751876 
L 299.799226 220.751876 
z
" clip-path="url(#pf34031ac2c)" style="fill: #7f7f7f"/>
   </g>
   <g id="patch_78">
    <path d="M 440.676376 357.272 
L 450.537776 357.272 
L 450.537776 220.833658 
L 440.676376 220.833658 
z
" clip-path="url(#pf34031ac2c)" style="fill: #7f7f7f"/>
   </g>
   <g id="patch_79">
    <path d="M 581.553526 357.272 
L 591.414926 357.272 
L 591.414926 220.751876 
L 581.553526 220.751876 
z
" clip-path="url(#pf34031ac2c)" style="fill: #7f7f7f"/>
   </g>
   <g id="patch_80">
    <path d="M 168.783477 357.272 
L 178.644877 357.272 
L 178.644877 220.697356 
L 168.783477 220.697356 
z
" clip-path="url(#pf34031ac2c)" style="fill: #bcbd22"/>
   </g>
   <g id="patch_81">
    <path d="M 309.660627 357.272 
L 319.522027 357.272 
L 319.522027 220.751876 
L 309.660627 220.751876 
z
" clip-path="url(#pf34031ac2c)" style="fill: #bcbd22"/>
   </g>
   <g id="patch_82">
    <path d="M 450.537776 357.272 
L 460.399177 357.272 
L 460.399177 220.751876 
L 450.537776 220.751876 
z
" clip-path="url(#pf34031ac2c)" style="fill: #bcbd22"/>
   </g>
   <g id="patch_83">
    <path d="M 591.414926 357.272 
L 601.276327 357.272 
L 601.276327 220.751876 
L 591.414926 220.751876 
z
" clip-path="url(#pf34031ac2c)" style="fill: #bcbd22"/>
   </g>
   <g id="patch_84">
    <path d="M 178.644877 357.272 
L 188.506278 357.272 
L 188.506278 220.860918 
L 178.644877 220.860918 
z
" clip-path="url(#pf34031ac2c)" style="fill: #17becf"/>
   </g>
   <g id="patch_85">
    <path d="M 319.522027 357.272 
L 329.383428 357.272 
L 329.383428 220.751876 
L 319.522027 220.751876 
z
" clip-path="url(#pf34031ac2c)" style="fill: #17becf"/>
   </g>
   <g id="patch_86">
    <path d="M 460.399177 357.272 
L 470.260577 357.272 
L 470.260577 220.833658 
L 460.399177 220.833658 
z
" clip-path="url(#pf34031ac2c)" style="fill: #17becf"/>
   </g>
   <g id="patch_87">
    <path d="M 601.276327 357.272 
L 611.137727 357.272 
L 611.137727 220.751876 
L 601.276327 220.751876 
z
" clip-path="url(#pf34031ac2c)" style="fill: #17becf"/>
   </g>
   <g id="matplotlib.axis_3">
    <g id="xtick_5">
     <g id="line2d_12">
      <g>
       <use xlink:href="#mb34ef0e3b6" x="144.129975" y="357.272" style="stroke: #000000; stroke-width: 0.8"/>
      </g>
     </g>
     <g id="text_14">
      <!-- $In_1-d_r$ -->
      <g transform="translate(126.229975 371.870438) scale(0.1 -0.1)">
       <use xlink:href="#DejaVuSans-Oblique-49" transform="translate(0 0.015625)"/>
       <use xlink:href="#DejaVuSans-Oblique-6e" transform="translate(29.492188 0.015625)"/>
       <use xlink:href="#DejaVuSans-31" transform="translate(92.871094 -16.390625) scale(0.7)"/>
       <use xlink:href="#DejaVuSans-2212" transform="translate(159.624023 0.015625)"/>
       <use xlink:href="#DejaVuSans-Oblique-64" transform="translate(262.895508 0.015625)"/>
       <use xlink:href="#DejaVuSans-Oblique-72" transform="translate(326.37207 -16.390625) scale(0.7)"/>
      </g>
     </g>
    </g>
    <g id="xtick_6">
     <g id="line2d_13">
      <g>
       <use xlink:href="#mb34ef0e3b6" x="285.007125" y="357.272" style="stroke: #000000; stroke-width: 0.8"/>
      </g>
     </g>
     <g id="text_15">
      <!-- $In_1-v_1$ -->
      <g transform="translate(266.507125 371.870438) scale(0.1 -0.1)">
       <use xlink:href="#DejaVuSans-Oblique-49" transform="translate(0 0.09375)"/>
       <use xlink:href="#DejaVuSans-Oblique-6e" transform="translate(29.492188 0.09375)"/>
       <use xlink:href="#DejaVuSans-31" transform="translate(92.871094 -16.3125) scale(0.7)"/>
       <use xlink:href="#DejaVuSans-2212" transform="translate(159.624023 0.09375)"/>
       <use xlink:href="#DejaVuSans-Oblique-76" transform="translate(262.895508 0.09375)"/>
       <use xlink:href="#DejaVuSans-31" transform="translate(322.075195 -16.3125) scale(0.7)"/>
      </g>
     </g>
    </g>
    <g id="xtick_7">
     <g id="line2d_14">
      <g>
       <use xlink:href="#mb34ef0e3b6" x="425.884275" y="357.272" style="stroke: #000000; stroke-width: 0.8"/>
      </g>
     </g>
     <g id="text_16">
      <!-- $In_2-d_r$ -->
      <g transform="translate(407.984275 371.870438) scale(0.1 -0.1)">
       <use xlink:href="#DejaVuSans-Oblique-49" transform="translate(0 0.015625)"/>
       <use xlink:href="#DejaVuSans-Oblique-6e" transform="translate(29.492188 0.015625)"/>
       <use xlink:href="#DejaVuSans-32" transform="translate(92.871094 -16.390625) scale(0.7)"/>
       <use xlink:href="#DejaVuSans-2212" transform="translate(159.624023 0.015625)"/>
       <use xlink:href="#DejaVuSans-Oblique-64" transform="translate(262.895508 0.015625)"/>
       <use xlink:href="#DejaVuSans-Oblique-72" transform="translate(326.37207 -16.390625) scale(0.7)"/>
      </g>
     </g>
    </g>
    <g id="xtick_8">
     <g id="line2d_15">
      <g>
       <use xlink:href="#mb34ef0e3b6" x="566.761425" y="357.272" style="stroke: #000000; stroke-width: 0.8"/>
      </g>
     </g>
     <g id="text_17">
      <!-- $In_2-v_1$ -->
      <g transform="translate(548.261425 371.870438) scale(0.1 -0.1)">
       <use xlink:href="#DejaVuSans-Oblique-49" transform="translate(0 0.09375)"/>
       <use xlink:href="#DejaVuSans-Oblique-6e" transform="translate(29.492188 0.09375)"/>
       <use xlink:href="#DejaVuSans-32" transform="translate(92.871094 -16.3125) scale(0.7)"/>
       <use xlink:href="#DejaVuSans-2212" transform="translate(159.624023 0.09375)"/>
       <use xlink:href="#DejaVuSans-Oblique-76" transform="translate(262.895508 0.09375)"/>
       <use xlink:href="#DejaVuSans-31" transform="translate(322.075195 -16.3125) scale(0.7)"/>
      </g>
     </g>
    </g>
   </g>
   <g id="matplotlib.axis_4">
    <g id="ytick_8">
     <g id="line2d_16">
      <g>
       <use xlink:href="#m6378faf447" x="63.83" y="357.272" style="stroke: #000000; stroke-width: 0.8"/>
      </g>
     </g>
     <g id="text_18">
      <!-- 0 -->
      <g transform="translate(50.4675 361.071219) scale(0.1 -0.1)">
       <use xlink:href="#DejaVuSans-30"/>
      </g>
     </g>
    </g>
    <g id="ytick_9">
     <g id="line2d_17">
      <g>
       <use xlink:href="#m6378faf447" x="63.83" y="330.011592" style="stroke: #000000; stroke-width: 0.8"/>
      </g>
     </g>
     <g id="text_19">
      <!-- 10 -->
      <g transform="translate(44.105 333.810811) scale(0.1 -0.1)">
       <use xlink:href="#DejaVuSans-31"/>
       <use xlink:href="#DejaVuSans-30" x="63.623047"/>
      </g>
     </g>
    </g>
    <g id="ytick_10">
     <g id="line2d_18">
      <g>
       <use xlink:href="#m6378faf447" x="63.83" y="302.751184" style="stroke: #000000; stroke-width: 0.8"/>
      </g>
     </g>
     <g id="text_20">
      <!-- 20 -->
      <g transform="translate(44.105 306.550403) scale(0.1 -0.1)">
       <use xlink:href="#DejaVuSans-32"/>
       <use xlink:href="#DejaVuSans-30" x="63.623047"/>
      </g>
     </g>
    </g>
    <g id="ytick_11">
     <g id="line2d_19">
      <g>
       <use xlink:href="#m6378faf447" x="63.83" y="275.490776" style="stroke: #000000; stroke-width: 0.8"/>
      </g>
     </g>
     <g id="text_21">
      <!-- 30 -->
      <g transform="translate(44.105 279.289995) scale(0.1 -0.1)">
       <defs>
        <path id="DejaVuSans-33" d="M 2597 2516 
Q 3050 2419 3304 2112 
Q 3559 1806 3559 1356 
Q 3559 666 3084 287 
Q 2609 -91 1734 -91 
Q 1441 -91 1130 -33 
Q 819 25 488 141 
L 488 750 
Q 750 597 1062 519 
Q 1375 441 1716 441 
Q 2309 441 2620 675 
Q 2931 909 2931 1356 
Q 2931 1769 2642 2001 
Q 2353 2234 1838 2234 
L 1294 2234 
L 1294 2753 
L 1863 2753 
Q 2328 2753 2575 2939 
Q 2822 3125 2822 3475 
Q 2822 3834 2567 4026 
Q 2313 4219 1838 4219 
Q 1578 4219 1281 4162 
Q 984 4106 628 3988 
L 628 4550 
Q 988 4650 1302 4700 
Q 1616 4750 1894 4750 
Q 2613 4750 3031 4423 
Q 3450 4097 3450 3541 
Q 3450 3153 3228 2886 
Q 3006 2619 2597 2516 
z
" transform="scale(0.015625)"/>
       </defs>
       <use xlink:href="#DejaVuSans-33"/>
       <use xlink:href="#DejaVuSans-30" x="63.623047"/>
      </g>
     </g>
    </g>
    <g id="ytick_12">
     <g id="line2d_20">
      <g>
       <use xlink:href="#m6378faf447" x="63.83" y="248.230368" style="stroke: #000000; stroke-width: 0.8"/>
      </g>
     </g>
     <g id="text_22">
      <!-- 40 -->
      <g transform="translate(44.105 252.029587) scale(0.1 -0.1)">
       <use xlink:href="#DejaVuSans-34"/>
       <use xlink:href="#DejaVuSans-30" x="63.623047"/>
      </g>
     </g>
    </g>
    <g id="ytick_13">
     <g id="line2d_21">
      <g>
       <use xlink:href="#m6378faf447" x="63.83" y="220.96996" style="stroke: #000000; stroke-width: 0.8"/>
      </g>
     </g>
     <g id="text_23">
      <!-- 50 -->
      <g transform="translate(44.105 224.769178) scale(0.1 -0.1)">
       <defs>
        <path id="DejaVuSans-35" d="M 691 4666 
L 3169 4666 
L 3169 4134 
L 1269 4134 
L 1269 2991 
Q 1406 3038 1543 3061 
Q 1681 3084 1819 3084 
Q 2600 3084 3056 2656 
Q 3513 2228 3513 1497 
Q 3513 744 3044 326 
Q 2575 -91 1722 -91 
Q 1428 -91 1123 -41 
Q 819 9 494 109 
L 494 744 
Q 775 591 1075 516 
Q 1375 441 1709 441 
Q 2250 441 2565 725 
Q 2881 1009 2881 1497 
Q 2881 1984 2565 2268 
Q 2250 2553 1709 2553 
Q 1456 2553 1204 2497 
Q 953 2441 691 2322 
L 691 4666 
z
" transform="scale(0.015625)"/>
       </defs>
       <use xlink:href="#DejaVuSans-35"/>
       <use xlink:href="#DejaVuSans-30" x="63.623047"/>
      </g>
     </g>
    </g>
    <g id="text_24">
     <!-- Average CPU Usage (%) -->
     <g transform="translate(38.025313 345.252875) rotate(-90) scale(0.1 -0.1)">
      <defs>
       <path id="DejaVuSans-41" d="M 2188 4044 
L 1331 1722 
L 3047 1722 
L 2188 4044 
z
M 1831 4666 
L 2547 4666 
L 4325 0 
L 3669 0 
L 3244 1197 
L 1141 1197 
L 716 0 
L 50 0 
L 1831 4666 
z
" transform="scale(0.015625)"/>
       <path id="DejaVuSans-76" d="M 191 3500 
L 800 3500 
L 1894 563 
L 2988 3500 
L 3597 3500 
L 2284 0 
L 1503 0 
L 191 3500 
z
" transform="scale(0.015625)"/>
       <path id="DejaVuSans-67" d="M 2906 1791 
Q 2906 2416 2648 2759 
Q 2391 3103 1925 3103 
Q 1463 3103 1205 2759 
Q 947 2416 947 1791 
Q 947 1169 1205 825 
Q 1463 481 1925 481 
Q 2391 481 2648 825 
Q 2906 1169 2906 1791 
z
M 3481 434 
Q 3481 -459 3084 -895 
Q 2688 -1331 1869 -1331 
Q 1566 -1331 1297 -1286 
Q 1028 -1241 775 -1147 
L 775 -588 
Q 1028 -725 1275 -790 
Q 1522 -856 1778 -856 
Q 2344 -856 2625 -561 
Q 2906 -266 2906 331 
L 2906 616 
Q 2728 306 2450 153 
Q 2172 0 1784 0 
Q 1141 0 747 490 
Q 353 981 353 1791 
Q 353 2603 747 3093 
Q 1141 3584 1784 3584 
Q 2172 3584 2450 3431 
Q 2728 3278 2906 2969 
L 2906 3500 
L 3481 3500 
L 3481 434 
z
" transform="scale(0.015625)"/>
       <path id="DejaVuSans-50" d="M 1259 4147 
L 1259 2394 
L 2053 2394 
Q 2494 2394 2734 2622 
Q 2975 2850 2975 3272 
Q 2975 3691 2734 3919 
Q 2494 4147 2053 4147 
L 1259 4147 
z
M 628 4666 
L 2053 4666 
Q 2838 4666 3239 4311 
Q 3641 3956 3641 3272 
Q 3641 2581 3239 2228 
Q 2838 1875 2053 1875 
L 1259 1875 
L 1259 0 
L 628 0 
L 628 4666 
z
" transform="scale(0.015625)"/>
       <path id="DejaVuSans-55" d="M 556 4666 
L 1191 4666 
L 1191 1831 
Q 1191 1081 1462 751 
Q 1734 422 2344 422 
Q 2950 422 3222 751 
Q 3494 1081 3494 1831 
L 3494 4666 
L 4128 4666 
L 4128 1753 
Q 4128 841 3676 375 
Q 3225 -91 2344 -91 
Q 1459 -91 1007 375 
Q 556 841 556 1753 
L 556 4666 
z
" transform="scale(0.015625)"/>
       <path id="DejaVuSans-25" d="M 4653 2053 
Q 4381 2053 4226 1822 
Q 4072 1591 4072 1178 
Q 4072 772 4226 539 
Q 4381 306 4653 306 
Q 4919 306 5073 539 
Q 5228 772 5228 1178 
Q 5228 1588 5073 1820 
Q 4919 2053 4653 2053 
z
M 4653 2450 
Q 5147 2450 5437 2106 
Q 5728 1763 5728 1178 
Q 5728 594 5436 251 
Q 5144 -91 4653 -91 
Q 4153 -91 3862 251 
Q 3572 594 3572 1178 
Q 3572 1766 3864 2108 
Q 4156 2450 4653 2450 
z
M 1428 4353 
Q 1159 4353 1004 4120 
Q 850 3888 850 3481 
Q 850 3069 1003 2837 
Q 1156 2606 1428 2606 
Q 1700 2606 1854 2837 
Q 2009 3069 2009 3481 
Q 2009 3884 1853 4118 
Q 1697 4353 1428 4353 
z
M 4250 4750 
L 4750 4750 
L 1831 -91 
L 1331 -91 
L 4250 4750 
z
M 1428 4750 
Q 1922 4750 2215 4408 
Q 2509 4066 2509 3481 
Q 2509 2891 2217 2550 
Q 1925 2209 1428 2209 
Q 931 2209 642 2551 
Q 353 2894 353 3481 
Q 353 4063 643 4406 
Q 934 4750 1428 4750 
z
" transform="scale(0.015625)"/>
      </defs>
      <use xlink:href="#DejaVuSans-41"/>
      <use xlink:href="#DejaVuSans-76" x="62.533203"/>
      <use xlink:href="#DejaVuSans-65" x="121.712891"/>
      <use xlink:href="#DejaVuSans-72" x="183.236328"/>
      <use xlink:href="#DejaVuSans-61" x="224.349609"/>
      <use xlink:href="#DejaVuSans-67" x="285.628906"/>
      <use xlink:href="#DejaVuSans-65" x="349.105469"/>
      <use xlink:href="#DejaVuSans-20" x="410.628906"/>
      <use xlink:href="#DejaVuSans-43" x="442.416016"/>
      <use xlink:href="#DejaVuSans-50" x="512.240234"/>
      <use xlink:href="#DejaVuSans-55" x="572.542969"/>
      <use xlink:href="#DejaVuSans-20" x="645.736328"/>
      <use xlink:href="#DejaVuSans-55" x="677.523438"/>
      <use xlink:href="#DejaVuSans-73" x="750.716797"/>
      <use xlink:href="#DejaVuSans-61" x="802.816406"/>
      <use xlink:href="#DejaVuSans-67" x="864.095703"/>
      <use xlink:href="#DejaVuSans-65" x="927.572266"/>
      <use xlink:href="#DejaVuSans-20" x="989.095703"/>
      <use xlink:href="#DejaVuSans-28" x="1020.882812"/>
      <use xlink:href="#DejaVuSans-25" x="1059.896484"/>
      <use xlink:href="#DejaVuSans-29" x="1154.916016"/>
     </g>
    </g>
   </g>
   <g id="patch_88">
    <path d="M 63.83 357.272 
L 63.83 213.84 
" style="fill: none; stroke: #000000; stroke-width: 0.8; stroke-linejoin: miter; stroke-linecap: square"/>
   </g>
   <g id="patch_89">
    <path d="M 637.2 357.272 
L 637.2 213.84 
" style="fill: none; stroke: #000000; stroke-width: 0.8; stroke-linejoin: miter; stroke-linecap: square"/>
   </g>
   <g id="patch_90">
    <path d="M 63.83 357.272 
L 637.2 357.272 
" style="fill: none; stroke: #000000; stroke-width: 0.8; stroke-linejoin: miter; stroke-linecap: square"/>
   </g>
   <g id="patch_91">
    <path d="M 63.83 213.84 
L 637.2 213.84 
" style="fill: none; stroke: #000000; stroke-width: 0.8; stroke-linejoin: miter; stroke-linecap: square"/>
   </g>
   <g id="text_25">
    <!-- Average CPU Usage Comparison -->
    <g transform="translate(253.3375 207.84) scale(0.12 -0.12)">
     <use xlink:href="#DejaVuSans-41"/>
     <use xlink:href="#DejaVuSans-76" x="62.533203"/>
     <use xlink:href="#DejaVuSans-65" x="121.712891"/>
     <use xlink:href="#DejaVuSans-72" x="183.236328"/>
     <use xlink:href="#DejaVuSans-61" x="224.349609"/>
     <use xlink:href="#DejaVuSans-67" x="285.628906"/>
     <use xlink:href="#DejaVuSans-65" x="349.105469"/>
     <use xlink:href="#DejaVuSans-20" x="410.628906"/>
     <use xlink:href="#DejaVuSans-43" x="442.416016"/>
     <use xlink:href="#DejaVuSans-50" x="512.240234"/>
     <use xlink:href="#DejaVuSans-55" x="572.542969"/>
     <use xlink:href="#DejaVuSans-20" x="645.736328"/>
     <use xlink:href="#DejaVuSans-55" x="677.523438"/>
     <use xlink:href="#DejaVuSans-73" x="750.716797"/>
     <use xlink:href="#DejaVuSans-61" x="802.816406"/>
     <use xlink:href="#DejaVuSans-67" x="864.095703"/>
     <use xlink:href="#DejaVuSans-65" x="927.572266"/>
     <use xlink:href="#DejaVuSans-20" x="989.095703"/>
     <use xlink:href="#DejaVuSans-43" x="1020.882812"/>
     <use xlink:href="#DejaVuSans-6f" x="1090.707031"/>
     <use xlink:href="#DejaVuSans-6d" x="1151.888672"/>
     <use xlink:href="#DejaVuSans-70" x="1249.300781"/>
     <use xlink:href="#DejaVuSans-61" x="1312.777344"/>
     <use xlink:href="#DejaVuSans-72" x="1374.056641"/>
     <use xlink:href="#DejaVuSans-69" x="1415.169922"/>
     <use xlink:href="#DejaVuSans-73" x="1442.953125"/>
     <use xlink:href="#DejaVuSans-6f" x="1495.052734"/>
     <use xlink:href="#DejaVuSans-6e" x="1556.234375"/>
    </g>
   </g>
  </g>
  <g id="axes_3">
   <g id="patch_92">
    <path d="M 63.83 545.672 
L 637.2 545.672 
L 637.2 402.24 
L 63.83 402.24 
z
" style="fill: #ffffff"/>
   </g>
   <g id="patch_93">
    <path d="M 89.892273 545.672 
L 99.753673 545.672 
L 99.753673 521.750647 
L 89.892273 521.750647 
z
" clip-path="url(#p750c6c79ba)" style="fill: #1f77b4"/>
   </g>
   <g id="patch_94">
    <path d="M 230.769423 545.672 
L 240.630823 545.672 
L 240.630823 521.755753 
L 230.769423 521.755753 
z
" clip-path="url(#p750c6c79ba)" style="fill: #1f77b4"/>
   </g>
   <g id="patch_95">
    <path d="M 371.646572 545.672 
L 381.507973 545.672 
L 381.507973 521.722564 
L 371.646572 521.722564 
z
" clip-path="url(#p750c6c79ba)" style="fill: #1f77b4"/>
   </g>
   <g id="patch_96">
    <path d="M 512.523722 545.672 
L 522.385123 545.672 
L 522.385123 521.748094 
L 512.523722 521.748094 
z
" clip-path="url(#p750c6c79ba)" style="fill: #1f77b4"/>
   </g>
   <g id="patch_97">
    <path d="M 99.753673 545.672 
L 109.615074 545.672 
L 109.615074 522.077427 
L 99.753673 522.077427 
z
" clip-path="url(#p750c6c79ba)" style="fill: #ff7f0e"/>
   </g>
   <g id="patch_98">
    <path d="M 240.630823 545.672 
L 250.492224 545.672 
L 250.492224 522.077427 
L 240.630823 522.077427 
z
" clip-path="url(#p750c6c79ba)" style="fill: #ff7f0e"/>
   </g>
   <g id="patch_99">
    <path d="M 381.507973 545.672 
L 391.369373 545.672 
L 391.369373 522.077427 
L 381.507973 522.077427 
z
" clip-path="url(#p750c6c79ba)" style="fill: #ff7f0e"/>
   </g>
   <g id="patch_100">
    <path d="M 522.385123 545.672 
L 532.246523 545.672 
L 532.246523 522.01105 
L 522.385123 522.01105 
z
" clip-path="url(#p750c6c79ba)" style="fill: #ff7f0e"/>
   </g>
   <g id="patch_101">
    <path d="M 109.615074 545.672 
L 119.476474 545.672 
L 119.476474 521.949779 
L 109.615074 521.949779 
z
" clip-path="url(#p750c6c79ba)" style="fill: #2ca02c"/>
   </g>
   <g id="patch_102">
    <path d="M 250.492224 545.672 
L 260.353624 545.672 
L 260.353624 520.407783 
L 250.492224 520.407783 
z
" clip-path="url(#p750c6c79ba)" style="fill: #2ca02c"/>
   </g>
   <g id="patch_103">
    <path d="M 391.369373 545.672 
L 401.230774 545.672 
L 401.230774 520.402677 
L 391.369373 520.402677 
z
" clip-path="url(#p750c6c79ba)" style="fill: #2ca02c"/>
   </g>
   <g id="patch_104">
    <path d="M 532.246523 545.672 
L 542.107924 545.672 
L 542.107924 520.402677 
L 532.246523 520.402677 
z
" clip-path="url(#p750c6c79ba)" style="fill: #2ca02c"/>
   </g>
   <g id="patch_105">
    <path d="M 119.476474 545.672 
L 129.337875 545.672 
L 129.337875 414.229653 
L 119.476474 414.229653 
z
" clip-path="url(#p750c6c79ba)" style="fill: #d62728"/>
   </g>
   <g id="patch_106">
    <path d="M 260.353624 545.672 
L 270.215025 545.672 
L 270.215025 450.349109 
L 260.353624 450.349109 
z
" clip-path="url(#p750c6c79ba)" style="fill: #d62728"/>
   </g>
   <g id="patch_107">
    <path d="M 401.230774 545.672 
L 411.092174 545.672 
L 411.092174 409.070095 
L 401.230774 409.070095 
z
" clip-path="url(#p750c6c79ba)" style="fill: #d62728"/>
   </g>
   <g id="patch_108">
    <path d="M 542.107924 545.672 
L 551.969324 545.672 
L 551.969324 432.223004 
L 542.107924 432.223004 
z
" clip-path="url(#p750c6c79ba)" style="fill: #d62728"/>
   </g>
   <g id="patch_109">
    <path d="M 129.337875 545.672 
L 139.199275 545.672 
L 139.199275 458.819872 
L 129.337875 458.819872 
z
" clip-path="url(#p750c6c79ba)" style="fill: #9467bd"/>
   </g>
   <g id="patch_110">
    <path d="M 270.215025 545.672 
L 280.076425 545.672 
L 280.076425 459.197712 
L 270.215025 459.197712 
z
" clip-path="url(#p750c6c79ba)" style="fill: #9467bd"/>
   </g>
   <g id="patch_111">
    <path d="M 411.092174 545.672 
L 420.953575 545.672 
L 420.953575 457.101722 
L 411.092174 457.101722 
z
" clip-path="url(#p750c6c79ba)" style="fill: #9467bd"/>
   </g>
   <g id="patch_112">
    <path d="M 551.969324 545.672 
L 561.830725 545.672 
L 561.830725 458.653929 
L 551.969324 458.653929 
z
" clip-path="url(#p750c6c79ba)" style="fill: #9467bd"/>
   </g>
   <g id="patch_113">
    <path d="M 139.199275 545.672 
L 149.060676 545.672 
L 149.060676 433.504596 
L 139.199275 433.504596 
z
" clip-path="url(#p750c6c79ba)" style="fill: #8c564b"/>
   </g>
   <g id="patch_114">
    <path d="M 280.076425 545.672 
L 289.937826 545.672 
L 289.937826 437.032804 
L 280.076425 437.032804 
z
" clip-path="url(#p750c6c79ba)" style="fill: #8c564b"/>
   </g>
   <g id="patch_115">
    <path d="M 420.953575 545.672 
L 430.814975 545.672 
L 430.814975 429.940646 
L 420.953575 429.940646 
z
" clip-path="url(#p750c6c79ba)" style="fill: #8c564b"/>
   </g>
   <g id="patch_116">
    <path d="M 561.830725 545.672 
L 571.692125 545.672 
L 571.692125 431.454559 
L 561.830725 431.454559 
z
" clip-path="url(#p750c6c79ba)" style="fill: #8c564b"/>
   </g>
   <g id="patch_117">
    <path d="M 149.060676 545.672 
L 158.922076 545.672 
L 158.922076 464.017724 
L 149.060676 464.017724 
z
" clip-path="url(#p750c6c79ba)" style="fill: #e377c2"/>
   </g>
   <g id="patch_118">
    <path d="M 289.937826 545.672 
L 299.799226 545.672 
L 299.799226 464.017724 
L 289.937826 464.017724 
z
" clip-path="url(#p750c6c79ba)" style="fill: #e377c2"/>
   </g>
   <g id="patch_119">
    <path d="M 430.814975 545.672 
L 440.676376 545.672 
L 440.676376 464.007513 
L 430.814975 464.007513 
z
" clip-path="url(#p750c6c79ba)" style="fill: #e377c2"/>
   </g>
   <g id="patch_120">
    <path d="M 571.692125 545.672 
L 581.553526 545.672 
L 581.553526 459.853826 
L 571.692125 459.853826 
z
" clip-path="url(#p750c6c79ba)" style="fill: #e377c2"/>
   </g>
   <g id="patch_121">
    <path d="M 158.922076 545.672 
L 168.783477 545.672 
L 168.783477 462.023853 
L 158.922076 462.023853 
z
" clip-path="url(#p750c6c79ba)" style="fill: #7f7f7f"/>
   </g>
   <g id="patch_122">
    <path d="M 299.799226 545.672 
L 309.660627 545.672 
L 309.660627 462.876546 
L 299.799226 462.876546 
z
" clip-path="url(#p750c6c79ba)" style="fill: #7f7f7f"/>
   </g>
   <g id="patch_123">
    <path d="M 440.676376 545.672 
L 450.537776 545.672 
L 450.537776 462.376163 
L 440.676376 462.376163 
z
" clip-path="url(#p750c6c79ba)" style="fill: #7f7f7f"/>
   </g>
   <g id="patch_124">
    <path d="M 581.553526 545.672 
L 591.414926 545.672 
L 591.414926 462.851016 
L 581.553526 462.851016 
z
" clip-path="url(#p750c6c79ba)" style="fill: #7f7f7f"/>
   </g>
   <g id="patch_125">
    <path d="M 168.783477 545.672 
L 178.644877 545.672 
L 178.644877 436.42775 
L 168.783477 436.42775 
z
" clip-path="url(#p750c6c79ba)" style="fill: #bcbd22"/>
   </g>
   <g id="patch_126">
    <path d="M 309.660627 545.672 
L 319.522027 545.672 
L 319.522027 437.094075 
L 309.660627 437.094075 
z
" clip-path="url(#p750c6c79ba)" style="fill: #bcbd22"/>
   </g>
   <g id="patch_127">
    <path d="M 450.537776 545.672 
L 460.399177 545.672 
L 460.399177 437.058334 
L 450.537776 437.058334 
z
" clip-path="url(#p750c6c79ba)" style="fill: #bcbd22"/>
   </g>
   <g id="patch_128">
    <path d="M 591.414926 545.672 
L 601.276327 545.672 
L 601.276327 437.076205 
L 591.414926 437.076205 
z
" clip-path="url(#p750c6c79ba)" style="fill: #bcbd22"/>
   </g>
   <g id="patch_129">
    <path d="M 178.644877 545.672 
L 188.506278 545.672 
L 188.506278 463.956453 
L 178.644877 463.956453 
z
" clip-path="url(#p750c6c79ba)" style="fill: #17becf"/>
   </g>
   <g id="patch_130">
    <path d="M 319.522027 545.672 
L 329.383428 545.672 
L 329.383428 464.015171 
L 319.522027 464.015171 
z
" clip-path="url(#p750c6c79ba)" style="fill: #17becf"/>
   </g>
   <g id="patch_131">
    <path d="M 460.399177 545.672 
L 470.260577 545.672 
L 470.260577 464.00496 
L 460.399177 464.00496 
z
" clip-path="url(#p750c6c79ba)" style="fill: #17becf"/>
   </g>
   <g id="patch_132">
    <path d="M 601.276327 545.672 
L 611.137727 545.672 
L 611.137727 463.974324 
L 601.276327 463.974324 
z
" clip-path="url(#p750c6c79ba)" style="fill: #17becf"/>
   </g>
   <g id="matplotlib.axis_5">
    <g id="xtick_9">
     <g id="line2d_22">
      <g>
       <use xlink:href="#mb34ef0e3b6" x="144.129975" y="545.672" style="stroke: #000000; stroke-width: 0.8"/>
      </g>
     </g>
     <g id="text_26">
      <!-- $In_1-d_r$ -->
      <g transform="translate(126.229975 560.270437) scale(0.1 -0.1)">
       <use xlink:href="#DejaVuSans-Oblique-49" transform="translate(0 0.015625)"/>
       <use xlink:href="#DejaVuSans-Oblique-6e" transform="translate(29.492188 0.015625)"/>
       <use xlink:href="#DejaVuSans-31" transform="translate(92.871094 -16.390625) scale(0.7)"/>
       <use xlink:href="#DejaVuSans-2212" transform="translate(159.624023 0.015625)"/>
       <use xlink:href="#DejaVuSans-Oblique-64" transform="translate(262.895508 0.015625)"/>
       <use xlink:href="#DejaVuSans-Oblique-72" transform="translate(326.37207 -16.390625) scale(0.7)"/>
      </g>
     </g>
    </g>
    <g id="xtick_10">
     <g id="line2d_23">
      <g>
       <use xlink:href="#mb34ef0e3b6" x="285.007125" y="545.672" style="stroke: #000000; stroke-width: 0.8"/>
      </g>
     </g>
     <g id="text_27">
      <!-- $In_1-v_1$ -->
      <g transform="translate(266.507125 560.270437) scale(0.1 -0.1)">
       <use xlink:href="#DejaVuSans-Oblique-49" transform="translate(0 0.09375)"/>
       <use xlink:href="#DejaVuSans-Oblique-6e" transform="translate(29.492188 0.09375)"/>
       <use xlink:href="#DejaVuSans-31" transform="translate(92.871094 -16.3125) scale(0.7)"/>
       <use xlink:href="#DejaVuSans-2212" transform="translate(159.624023 0.09375)"/>
       <use xlink:href="#DejaVuSans-Oblique-76" transform="translate(262.895508 0.09375)"/>
       <use xlink:href="#DejaVuSans-31" transform="translate(322.075195 -16.3125) scale(0.7)"/>
      </g>
     </g>
    </g>
    <g id="xtick_11">
     <g id="line2d_24">
      <g>
       <use xlink:href="#mb34ef0e3b6" x="425.884275" y="545.672" style="stroke: #000000; stroke-width: 0.8"/>
      </g>
     </g>
     <g id="text_28">
      <!-- $In_2-d_r$ -->
      <g transform="translate(407.984275 560.270437) scale(0.1 -0.1)">
       <use xlink:href="#DejaVuSans-Oblique-49" transform="translate(0 0.015625)"/>
       <use xlink:href="#DejaVuSans-Oblique-6e" transform="translate(29.492188 0.015625)"/>
       <use xlink:href="#DejaVuSans-32" transform="translate(92.871094 -16.390625) scale(0.7)"/>
       <use xlink:href="#DejaVuSans-2212" transform="translate(159.624023 0.015625)"/>
       <use xlink:href="#DejaVuSans-Oblique-64" transform="translate(262.895508 0.015625)"/>
       <use xlink:href="#DejaVuSans-Oblique-72" transform="translate(326.37207 -16.390625) scale(0.7)"/>
      </g>
     </g>
    </g>
    <g id="xtick_12">
     <g id="line2d_25">
      <g>
       <use xlink:href="#mb34ef0e3b6" x="566.761425" y="545.672" style="stroke: #000000; stroke-width: 0.8"/>
      </g>
     </g>
     <g id="text_29">
      <!-- $In_2-v_1$ -->
      <g transform="translate(548.261425 560.270437) scale(0.1 -0.1)">
       <use xlink:href="#DejaVuSans-Oblique-49" transform="translate(0 0.09375)"/>
       <use xlink:href="#DejaVuSans-Oblique-6e" transform="translate(29.492188 0.09375)"/>
       <use xlink:href="#DejaVuSans-32" transform="translate(92.871094 -16.3125) scale(0.7)"/>
       <use xlink:href="#DejaVuSans-2212" transform="translate(159.624023 0.09375)"/>
       <use xlink:href="#DejaVuSans-Oblique-76" transform="translate(262.895508 0.09375)"/>
       <use xlink:href="#DejaVuSans-31" transform="translate(322.075195 -16.3125) scale(0.7)"/>
      </g>
     </g>
    </g>
   </g>
   <g id="matplotlib.axis_6">
    <g id="ytick_14">
     <g id="line2d_26">
      <g>
       <use xlink:href="#m6378faf447" x="63.83" y="545.672" style="stroke: #000000; stroke-width: 0.8"/>
      </g>
     </g>
     <g id="text_30">
      <!-- 0 -->
      <g transform="translate(50.4675 549.471219) scale(0.1 -0.1)">
       <use xlink:href="#DejaVuSans-30"/>
      </g>
     </g>
    </g>
    <g id="ytick_15">
     <g id="line2d_27">
      <g>
       <use xlink:href="#m6378faf447" x="63.83" y="520.142274" style="stroke: #000000; stroke-width: 0.8"/>
      </g>
     </g>
     <g id="text_31">
      <!-- 100 -->
      <g transform="translate(37.7425 523.941493) scale(0.1 -0.1)">
       <use xlink:href="#DejaVuSans-31"/>
       <use xlink:href="#DejaVuSans-30" x="63.623047"/>
       <use xlink:href="#DejaVuSans-30" x="127.246094"/>
      </g>
     </g>
    </g>
    <g id="ytick_16">
     <g id="line2d_28">
      <g>
       <use xlink:href="#m6378faf447" x="63.83" y="494.612548" style="stroke: #000000; stroke-width: 0.8"/>
      </g>
     </g>
     <g id="text_32">
      <!-- 200 -->
      <g transform="translate(37.7425 498.411767) scale(0.1 -0.1)">
       <use xlink:href="#DejaVuSans-32"/>
       <use xlink:href="#DejaVuSans-30" x="63.623047"/>
       <use xlink:href="#DejaVuSans-30" x="127.246094"/>
      </g>
     </g>
    </g>
    <g id="ytick_17">
     <g id="line2d_29">
      <g>
       <use xlink:href="#m6378faf447" x="63.83" y="469.082822" style="stroke: #000000; stroke-width: 0.8"/>
      </g>
     </g>
     <g id="text_33">
      <!-- 300 -->
      <g transform="translate(37.7425 472.882041) scale(0.1 -0.1)">
       <use xlink:href="#DejaVuSans-33"/>
       <use xlink:href="#DejaVuSans-30" x="63.623047"/>
       <use xlink:href="#DejaVuSans-30" x="127.246094"/>
      </g>
     </g>
    </g>
    <g id="ytick_18">
     <g id="line2d_30">
      <g>
       <use xlink:href="#m6378faf447" x="63.83" y="443.553096" style="stroke: #000000; stroke-width: 0.8"/>
      </g>
     </g>
     <g id="text_34">
      <!-- 400 -->
      <g transform="translate(37.7425 447.352315) scale(0.1 -0.1)">
       <use xlink:href="#DejaVuSans-34"/>
       <use xlink:href="#DejaVuSans-30" x="63.623047"/>
       <use xlink:href="#DejaVuSans-30" x="127.246094"/>
      </g>
     </g>
    </g>
    <g id="ytick_19">
     <g id="line2d_31">
      <g>
       <use xlink:href="#m6378faf447" x="63.83" y="418.02337" style="stroke: #000000; stroke-width: 0.8"/>
      </g>
     </g>
     <g id="text_35">
      <!-- 500 -->
      <g transform="translate(37.7425 421.822589) scale(0.1 -0.1)">
       <use xlink:href="#DejaVuSans-35"/>
       <use xlink:href="#DejaVuSans-30" x="63.623047"/>
       <use xlink:href="#DejaVuSans-30" x="127.246094"/>
      </g>
     </g>
    </g>
    <g id="text_36">
     <!-- Average Memory Usage (%) -->
     <g transform="translate(31.662813 543.822406) rotate(-90) scale(0.1 -0.1)">
      <defs>
       <path id="DejaVuSans-4d" d="M 628 4666 
L 1569 4666 
L 2759 1491 
L 3956 4666 
L 4897 4666 
L 4897 0 
L 4281 0 
L 4281 4097 
L 3078 897 
L 2444 897 
L 1241 4097 
L 1241 0 
L 628 0 
L 628 4666 
z
" transform="scale(0.015625)"/>
       <path id="DejaVuSans-79" d="M 2059 -325 
Q 1816 -950 1584 -1140 
Q 1353 -1331 966 -1331 
L 506 -1331 
L 506 -850 
L 844 -850 
Q 1081 -850 1212 -737 
Q 1344 -625 1503 -206 
L 1606 56 
L 191 3500 
L 800 3500 
L 1894 763 
L 2988 3500 
L 3597 3500 
L 2059 -325 
z
" transform="scale(0.015625)"/>
      </defs>
      <use xlink:href="#DejaVuSans-41"/>
      <use xlink:href="#DejaVuSans-76" x="62.533203"/>
      <use xlink:href="#DejaVuSans-65" x="121.712891"/>
      <use xlink:href="#DejaVuSans-72" x="183.236328"/>
      <use xlink:href="#DejaVuSans-61" x="224.349609"/>
      <use xlink:href="#DejaVuSans-67" x="285.628906"/>
      <use xlink:href="#DejaVuSans-65" x="349.105469"/>
      <use xlink:href="#DejaVuSans-20" x="410.628906"/>
      <use xlink:href="#DejaVuSans-4d" x="442.416016"/>
      <use xlink:href="#DejaVuSans-65" x="528.695312"/>
      <use xlink:href="#DejaVuSans-6d" x="590.21875"/>
      <use xlink:href="#DejaVuSans-6f" x="687.630859"/>
      <use xlink:href="#DejaVuSans-72" x="748.8125"/>
      <use xlink:href="#DejaVuSans-79" x="789.925781"/>
      <use xlink:href="#DejaVuSans-20" x="849.105469"/>
      <use xlink:href="#DejaVuSans-55" x="880.892578"/>
      <use xlink:href="#DejaVuSans-73" x="954.085938"/>
      <use xlink:href="#DejaVuSans-61" x="1006.185547"/>
      <use xlink:href="#DejaVuSans-67" x="1067.464844"/>
      <use xlink:href="#DejaVuSans-65" x="1130.941406"/>
      <use xlink:href="#DejaVuSans-20" x="1192.464844"/>
      <use xlink:href="#DejaVuSans-28" x="1224.251953"/>
      <use xlink:href="#DejaVuSans-25" x="1263.265625"/>
      <use xlink:href="#DejaVuSans-29" x="1358.285156"/>
     </g>
    </g>
   </g>
   <g id="patch_133">
    <path d="M 63.83 545.672 
L 63.83 402.24 
" style="fill: none; stroke: #000000; stroke-width: 0.8; stroke-linejoin: miter; stroke-linecap: square"/>
   </g>
   <g id="patch_134">
    <path d="M 637.2 545.672 
L 637.2 402.24 
" style="fill: none; stroke: #000000; stroke-width: 0.8; stroke-linejoin: miter; stroke-linecap: square"/>
   </g>
   <g id="patch_135">
    <path d="M 63.83 545.672 
L 637.2 545.672 
" style="fill: none; stroke: #000000; stroke-width: 0.8; stroke-linejoin: miter; stroke-linecap: square"/>
   </g>
   <g id="patch_136">
    <path d="M 63.83 402.24 
L 637.2 402.24 
" style="fill: none; stroke: #000000; stroke-width: 0.8; stroke-linejoin: miter; stroke-linecap: square"/>
   </g>
   <g id="text_37">
    <!-- Average Memory Usage Comparison -->
    <g transform="translate(241.134062 396.24) scale(0.12 -0.12)">
     <use xlink:href="#DejaVuSans-41"/>
     <use xlink:href="#DejaVuSans-76" x="62.533203"/>
     <use xlink:href="#DejaVuSans-65" x="121.712891"/>
     <use xlink:href="#DejaVuSans-72" x="183.236328"/>
     <use xlink:href="#DejaVuSans-61" x="224.349609"/>
     <use xlink:href="#DejaVuSans-67" x="285.628906"/>
     <use xlink:href="#DejaVuSans-65" x="349.105469"/>
     <use xlink:href="#DejaVuSans-20" x="410.628906"/>
     <use xlink:href="#DejaVuSans-4d" x="442.416016"/>
     <use xlink:href="#DejaVuSans-65" x="528.695312"/>
     <use xlink:href="#DejaVuSans-6d" x="590.21875"/>
     <use xlink:href="#DejaVuSans-6f" x="687.630859"/>
     <use xlink:href="#DejaVuSans-72" x="748.8125"/>
     <use xlink:href="#DejaVuSans-79" x="789.925781"/>
     <use xlink:href="#DejaVuSans-20" x="849.105469"/>
     <use xlink:href="#DejaVuSans-55" x="880.892578"/>
     <use xlink:href="#DejaVuSans-73" x="954.085938"/>
     <use xlink:href="#DejaVuSans-61" x="1006.185547"/>
     <use xlink:href="#DejaVuSans-67" x="1067.464844"/>
     <use xlink:href="#DejaVuSans-65" x="1130.941406"/>
     <use xlink:href="#DejaVuSans-20" x="1192.464844"/>
     <use xlink:href="#DejaVuSans-43" x="1224.251953"/>
     <use xlink:href="#DejaVuSans-6f" x="1294.076172"/>
     <use xlink:href="#DejaVuSans-6d" x="1355.257812"/>
     <use xlink:href="#DejaVuSans-70" x="1452.669922"/>
     <use xlink:href="#DejaVuSans-61" x="1516.146484"/>
     <use xlink:href="#DejaVuSans-72" x="1577.425781"/>
     <use xlink:href="#DejaVuSans-69" x="1618.539062"/>
     <use xlink:href="#DejaVuSans-73" x="1646.322266"/>
     <use xlink:href="#DejaVuSans-6f" x="1698.421875"/>
     <use xlink:href="#DejaVuSans-6e" x="1759.603516"/>
    </g>
   </g>
  </g>
  <g id="legend_1">
   <g id="patch_137">
    <path d="M 141.622656 -12.201563 
L 161.622656 -12.201563 
L 161.622656 -19.201563 
L 141.622656 -19.201563 
z
" style="fill: #1f77b4"/>
   </g>
   <g id="text_38">
    <!-- CE -->
    <g transform="translate(169.622656 -12.201563) scale(0.1 -0.1)">
     <defs>
      <path id="DejaVuSans-45" d="M 628 4666 
L 3578 4666 
L 3578 4134 
L 1259 4134 
L 1259 2753 
L 3481 2753 
L 3481 2222 
L 1259 2222 
L 1259 531 
L 3634 531 
L 3634 0 
L 628 0 
L 628 4666 
z
" transform="scale(0.015625)"/>
     </defs>
     <use xlink:href="#DejaVuSans-43"/>
     <use xlink:href="#DejaVuSans-45" x="69.824219"/>
    </g>
   </g>
   <g id="patch_138">
    <path d="M 141.622656 2.476562 
L 161.622656 2.476562 
L 161.622656 -4.523438 
L 141.622656 -4.523438 
z
" style="fill: #ff7f0e"/>
   </g>
   <g id="text_39">
    <!-- SA -->
    <g transform="translate(169.622656 2.476562) scale(0.1 -0.1)">
     <defs>
      <path id="DejaVuSans-53" d="M 3425 4513 
L 3425 3897 
Q 3066 4069 2747 4153 
Q 2428 4238 2131 4238 
Q 1616 4238 1336 4038 
Q 1056 3838 1056 3469 
Q 1056 3159 1242 3001 
Q 1428 2844 1947 2747 
L 2328 2669 
Q 3034 2534 3370 2195 
Q 3706 1856 3706 1288 
Q 3706 609 3251 259 
Q 2797 -91 1919 -91 
Q 1588 -91 1214 -16 
Q 841 59 441 206 
L 441 856 
Q 825 641 1194 531 
Q 1563 422 1919 422 
Q 2459 422 2753 634 
Q 3047 847 3047 1241 
Q 3047 1584 2836 1778 
Q 2625 1972 2144 2069 
L 1759 2144 
Q 1053 2284 737 2584 
Q 422 2884 422 3419 
Q 422 4038 858 4394 
Q 1294 4750 2059 4750 
Q 2388 4750 2728 4690 
Q 3069 4631 3425 4513 
z
" transform="scale(0.015625)"/>
     </defs>
     <use xlink:href="#DejaVuSans-53"/>
     <use xlink:href="#DejaVuSans-41" x="65.351562"/>
    </g>
   </g>
   <g id="patch_139">
    <path d="M 202.999219 -12.201563 
L 222.999219 -12.201563 
L 222.999219 -19.201563 
L 202.999219 -19.201563 
z
" style="fill: #2ca02c"/>
   </g>
   <g id="text_40">
    <!-- WC -->
    <g transform="translate(230.999219 -12.201563) scale(0.1 -0.1)">
     <defs>
      <path id="DejaVuSans-57" d="M 213 4666 
L 850 4666 
L 1831 722 
L 2809 4666 
L 3519 4666 
L 4500 722 
L 5478 4666 
L 6119 4666 
L 4947 0 
L 4153 0 
L 3169 4050 
L 2175 0 
L 1381 0 
L 213 4666 
z
" transform="scale(0.015625)"/>
     </defs>
     <use xlink:href="#DejaVuSans-57"/>
     <use xlink:href="#DejaVuSans-43" x="98.876953"/>
    </g>
   </g>
   <g id="patch_140">
    <path d="M 202.999219 2.476562 
L 222.999219 2.476562 
L 222.999219 -4.523438 
L 202.999219 -4.523438 
z
" style="fill: #d62728"/>
   </g>
   <g id="text_41">
    <!-- DP -->
    <g transform="translate(230.999219 2.476562) scale(0.1 -0.1)">
     <defs>
      <path id="DejaVuSans-44" d="M 1259 4147 
L 1259 519 
L 2022 519 
Q 2988 519 3436 956 
Q 3884 1394 3884 2338 
Q 3884 3275 3436 3711 
Q 2988 4147 2022 4147 
L 1259 4147 
z
M 628 4666 
L 1925 4666 
Q 3281 4666 3915 4102 
Q 4550 3538 4550 2338 
Q 4550 1131 3912 565 
Q 3275 0 1925 0 
L 628 0 
L 628 4666 
z
" transform="scale(0.015625)"/>
     </defs>
     <use xlink:href="#DejaVuSans-44"/>
     <use xlink:href="#DejaVuSans-50" x="77.001953"/>
    </g>
   </g>
   <g id="patch_141">
    <path d="M 267.869531 -12.201563 
L 287.869531 -12.201563 
L 287.869531 -19.201563 
L 267.869531 -19.201563 
z
" style="fill: #9467bd"/>
   </g>
   <g id="text_42">
    <!-- A2C -->
    <g transform="translate(295.869531 -12.201563) scale(0.1 -0.1)">
     <use xlink:href="#DejaVuSans-41"/>
     <use xlink:href="#DejaVuSans-32" x="68.408203"/>
     <use xlink:href="#DejaVuSans-43" x="132.03125"/>
    </g>
   </g>
   <g id="patch_142">
    <path d="M 267.869531 2.476562 
L 287.869531 2.476562 
L 287.869531 -4.523438 
L 267.869531 -4.523438 
z
" style="fill: #8c564b"/>
   </g>
   <g id="text_43">
    <!-- DQN -->
    <g transform="translate(295.869531 2.476562) scale(0.1 -0.1)">
     <defs>
      <path id="DejaVuSans-51" d="M 2522 4238 
Q 1834 4238 1429 3725 
Q 1025 3213 1025 2328 
Q 1025 1447 1429 934 
Q 1834 422 2522 422 
Q 3209 422 3611 934 
Q 4013 1447 4013 2328 
Q 4013 3213 3611 3725 
Q 3209 4238 2522 4238 
z
M 3406 84 
L 4238 -825 
L 3475 -825 
L 2784 -78 
Q 2681 -84 2626 -87 
Q 2572 -91 2522 -91 
Q 1538 -91 948 567 
Q 359 1225 359 2328 
Q 359 3434 948 4092 
Q 1538 4750 2522 4750 
Q 3503 4750 4090 4092 
Q 4678 3434 4678 2328 
Q 4678 1516 4351 937 
Q 4025 359 3406 84 
z
" transform="scale(0.015625)"/>
      <path id="DejaVuSans-4e" d="M 628 4666 
L 1478 4666 
L 3547 763 
L 3547 4666 
L 4159 4666 
L 4159 0 
L 3309 0 
L 1241 3903 
L 1241 0 
L 628 0 
L 628 4666 
z
" transform="scale(0.015625)"/>
     </defs>
     <use xlink:href="#DejaVuSans-44"/>
     <use xlink:href="#DejaVuSans-51" x="77.001953"/>
     <use xlink:href="#DejaVuSans-4e" x="155.712891"/>
    </g>
   </g>
   <g id="patch_143">
    <path d="M 338.922656 -12.201563 
L 358.922656 -12.201563 
L 358.922656 -19.201563 
L 338.922656 -19.201563 
z
" style="fill: #e377c2"/>
   </g>
   <g id="text_44">
    <!-- PPO -->
    <g transform="translate(366.922656 -12.201563) scale(0.1 -0.1)">
     <defs>
      <path id="DejaVuSans-4f" d="M 2522 4238 
Q 1834 4238 1429 3725 
Q 1025 3213 1025 2328 
Q 1025 1447 1429 934 
Q 1834 422 2522 422 
Q 3209 422 3611 934 
Q 4013 1447 4013 2328 
Q 4013 3213 3611 3725 
Q 3209 4238 2522 4238 
z
M 2522 4750 
Q 3503 4750 4090 4092 
Q 4678 3434 4678 2328 
Q 4678 1225 4090 567 
Q 3503 -91 2522 -91 
Q 1538 -91 948 565 
Q 359 1222 359 2328 
Q 359 3434 948 4092 
Q 1538 4750 2522 4750 
z
" transform="scale(0.015625)"/>
     </defs>
     <use xlink:href="#DejaVuSans-50"/>
     <use xlink:href="#DejaVuSans-50" x="60.302734"/>
     <use xlink:href="#DejaVuSans-4f" x="120.605469"/>
    </g>
   </g>
   <g id="patch_144">
    <path d="M 338.922656 2.476562 
L 358.922656 2.476562 
L 358.922656 -4.523438 
L 338.922656 -4.523438 
z
" style="fill: #7f7f7f"/>
   </g>
   <g id="text_45">
    <!-- A2C_Veri -->
    <g transform="translate(366.922656 2.476562) scale(0.1 -0.1)">
     <defs>
      <path id="DejaVuSans-5f" d="M 3263 -1063 
L 3263 -1509 
L -63 -1509 
L -63 -1063 
L 3263 -1063 
z
" transform="scale(0.015625)"/>
      <path id="DejaVuSans-56" d="M 1831 0 
L 50 4666 
L 709 4666 
L 2188 738 
L 3669 4666 
L 4325 4666 
L 2547 0 
L 1831 0 
z
" transform="scale(0.015625)"/>
     </defs>
     <use xlink:href="#DejaVuSans-41"/>
     <use xlink:href="#DejaVuSans-32" x="68.408203"/>
     <use xlink:href="#DejaVuSans-43" x="132.03125"/>
     <use xlink:href="#DejaVuSans-5f" x="201.855469"/>
     <use xlink:href="#DejaVuSans-56" x="251.855469"/>
     <use xlink:href="#DejaVuSans-65" x="312.513672"/>
     <use xlink:href="#DejaVuSans-72" x="374.037109"/>
     <use xlink:href="#DejaVuSans-69" x="415.150391"/>
    </g>
   </g>
   <g id="patch_145">
    <path d="M 431.216406 -12.201563 
L 451.216406 -12.201563 
L 451.216406 -19.201563 
L 431.216406 -19.201563 
z
" style="fill: #bcbd22"/>
   </g>
   <g id="text_46">
    <!-- DQN_Veri -->
    <g transform="translate(459.216406 -12.201563) scale(0.1 -0.1)">
     <use xlink:href="#DejaVuSans-44"/>
     <use xlink:href="#DejaVuSans-51" x="77.001953"/>
     <use xlink:href="#DejaVuSans-4e" x="155.712891"/>
     <use xlink:href="#DejaVuSans-5f" x="230.517578"/>
     <use xlink:href="#DejaVuSans-56" x="280.517578"/>
     <use xlink:href="#DejaVuSans-65" x="341.175781"/>
     <use xlink:href="#DejaVuSans-72" x="402.699219"/>
     <use xlink:href="#DejaVuSans-69" x="443.8125"/>
    </g>
   </g>
   <g id="patch_146">
    <path d="M 431.216406 2.754687 
L 451.216406 2.754687 
L 451.216406 -4.245313 
L 431.216406 -4.245313 
z
" style="fill: #17becf"/>
   </g>
   <g id="text_47">
    <!-- PPO_Veri -->
    <g transform="translate(459.216406 2.754687) scale(0.1 -0.1)">
     <use xlink:href="#DejaVuSans-50"/>
     <use xlink:href="#DejaVuSans-50" x="60.302734"/>
     <use xlink:href="#DejaVuSans-4f" x="120.605469"/>
     <use xlink:href="#DejaVuSans-5f" x="199.316406"/>
     <use xlink:href="#DejaVuSans-56" x="249.316406"/>
     <use xlink:href="#DejaVuSans-65" x="309.974609"/>
     <use xlink:href="#DejaVuSans-72" x="371.498047"/>
     <use xlink:href="#DejaVuSans-69" x="412.611328"/>
    </g>
   </g>
  </g>
 </g>
 <defs>
  <clipPath id="pb3598b3ef5">
   <rect x="63.83" y="25.44" width="573.37" height="143.432"/>
  </clipPath>
  <clipPath id="pf34031ac2c">
   <rect x="63.83" y="213.84" width="573.37" height="143.432"/>
  </clipPath>
  <clipPath id="p750c6c79ba">
   <rect x="63.83" y="402.24" width="573.37" height="143.432"/>
  </clipPath>
 </defs>
</svg>
