<?xml version="1.0" encoding="utf-8" standalone="no"?>
<!DOCTYPE svg PUBLIC "-//W3C//DTD SVG 1.1//EN"
  "http://www.w3.org/Graphics/SVG/1.1/DTD/svg11.dtd">
<svg xmlns:xlink="http://www.w3.org/1999/xlink" width="640.260625pt" height="626.182625pt" viewBox="0 0 640.260625 626.182625" xmlns="http://www.w3.org/2000/svg" version="1.1">
 <metadata>
  <rdf:RDF xmlns:dc="http://purl.org/dc/elements/1.1/" xmlns:cc="http://creativecommons.org/ns#" xmlns:rdf="http://www.w3.org/1999/02/22-rdf-syntax-ns#">
   <cc:Work>
    <dc:type rdf:resource="http://purl.org/dc/dcmitype/StillImage"/>
    <dc:date>2024-11-09T04:55:35.478139</dc:date>
    <dc:format>image/svg+xml</dc:format>
    <dc:creator>
     <cc:Agent>
      <dc:title>Matplotlib v3.9.2, https://matplotlib.org/</dc:title>
     </cc:Agent>
    </dc:creator>
   </cc:Work>
  </rdf:RDF>
 </metadata>
 <defs>
  <style type="text/css">*{stroke-linejoin: round; stroke-linecap: butt}</style>
 </defs>
 <g id="figure_1">
  <g id="patch_1">
   <path d="M 0 626.182625 
L 640.260625 626.182625 
L 640.260625 0 
L 0 0 
z
" style="fill: #ffffff"/>
  </g>
  <g id="axes_1">
   <g id="patch_2">
    <path d="M 59.690625 225.5045 
L 633.060625 225.5045 
L 633.060625 82.0725 
L 59.690625 82.0725 
z
" style="fill: #ffffff"/>
   </g>
   <g id="patch_3">
    <path d="M 85.752898 225.5045 
L 95.614298 225.5045 
L 95.614298 219.474482 
L 85.752898 219.474482 
z
" clip-path="url(#pbe2d2b6023)" style="fill: #1f77b4"/>
   </g>
   <g id="patch_4">
    <path d="M 226.630048 225.5045 
L 236.491448 225.5045 
L 236.491448 219.473697 
L 226.630048 219.473697 
z
" clip-path="url(#pbe2d2b6023)" style="fill: #1f77b4"/>
   </g>
   <g id="patch_5">
    <path d="M 367.507197 225.5045 
L 377.368598 225.5045 
L 377.368598 219.46899 
L 367.507197 219.46899 
z
" clip-path="url(#pbe2d2b6023)" style="fill: #1f77b4"/>
   </g>
   <g id="patch_6">
    <path d="M 508.384347 225.5045 
L 518.245748 225.5045 
L 518.245748 219.326545 
L 508.384347 219.326545 
z
" clip-path="url(#pbe2d2b6023)" style="fill: #1f77b4"/>
   </g>
   <g id="patch_7">
    <path d="M 95.614298 225.5045 
L 105.475699 225.5045 
L 105.475699 224.181359 
L 95.614298 224.181359 
z
" clip-path="url(#pbe2d2b6023)" style="fill: #ff7f0e"/>
   </g>
   <g id="patch_8">
    <path d="M 236.491448 225.5045 
L 246.352849 225.5045 
L 246.352849 224.1807 
L 236.491448 224.1807 
z
" clip-path="url(#pbe2d2b6023)" style="fill: #ff7f0e"/>
   </g>
   <g id="patch_9">
    <path d="M 377.368598 225.5045 
L 387.229998 225.5045 
L 387.229998 224.186567 
L 377.368598 224.186567 
z
" clip-path="url(#pbe2d2b6023)" style="fill: #ff7f0e"/>
   </g>
   <g id="patch_10">
    <path d="M 518.245748 225.5045 
L 528.107148 225.5045 
L 528.107148 224.192071 
L 518.245748 224.192071 
z
" clip-path="url(#pbe2d2b6023)" style="fill: #ff7f0e"/>
   </g>
   <g id="patch_11">
    <path d="M 105.475699 225.5045 
L 115.337099 225.5045 
L 115.337099 173.504239 
L 105.475699 173.504239 
z
" clip-path="url(#pbe2d2b6023)" style="fill: #2ca02c"/>
   </g>
   <g id="patch_12">
    <path d="M 246.352849 225.5045 
L 256.214249 225.5045 
L 256.214249 174.345113 
L 246.352849 174.345113 
z
" clip-path="url(#pbe2d2b6023)" style="fill: #2ca02c"/>
   </g>
   <g id="patch_13">
    <path d="M 387.229998 225.5045 
L 397.091399 225.5045 
L 397.091399 172.337836 
L 387.229998 172.337836 
z
" clip-path="url(#pbe2d2b6023)" style="fill: #2ca02c"/>
   </g>
   <g id="patch_14">
    <path d="M 528.107148 225.5045 
L 537.968549 225.5045 
L 537.968549 172.868543 
L 528.107148 172.868543 
z
" clip-path="url(#pbe2d2b6023)" style="fill: #2ca02c"/>
   </g>
   <g id="patch_15">
    <path d="M 115.337099 225.5045 
L 125.1985 225.5045 
L 125.1985 91.911987 
L 115.337099 91.911987 
z
" clip-path="url(#pbe2d2b6023)" style="fill: #d62728"/>
   </g>
   <g id="patch_16">
    <path d="M 256.214249 225.5045 
L 266.07565 225.5045 
L 266.07565 112.373224 
L 256.214249 112.373224 
z
" clip-path="url(#pbe2d2b6023)" style="fill: #d62728"/>
   </g>
   <g id="patch_17">
    <path d="M 397.091399 225.5045 
L 406.952799 225.5045 
L 406.952799 88.902595 
L 397.091399 88.902595 
z
" clip-path="url(#pbe2d2b6023)" style="fill: #d62728"/>
   </g>
   <g id="patch_18">
    <path d="M 537.968549 225.5045 
L 547.829949 225.5045 
L 547.829949 109.130591 
L 537.968549 109.130591 
z
" clip-path="url(#pbe2d2b6023)" style="fill: #d62728"/>
   </g>
   <g id="patch_19">
    <path d="M 125.1985 225.5045 
L 135.0599 225.5045 
L 135.0599 223.468045 
L 125.1985 223.468045 
z
" clip-path="url(#pbe2d2b6023)" style="fill: #9467bd"/>
   </g>
   <g id="patch_20">
    <path d="M 266.07565 225.5045 
L 275.93705 225.5045 
L 275.93705 223.511687 
L 266.07565 223.511687 
z
" clip-path="url(#pbe2d2b6023)" style="fill: #9467bd"/>
   </g>
   <g id="patch_21">
    <path d="M 406.952799 225.5045 
L 416.8142 225.5045 
L 416.8142 223.517407 
L 406.952799 223.517407 
z
" clip-path="url(#pbe2d2b6023)" style="fill: #9467bd"/>
   </g>
   <g id="patch_22">
    <path d="M 547.829949 225.5045 
L 557.69135 225.5045 
L 557.69135 223.39634 
L 547.829949 223.39634 
z
" clip-path="url(#pbe2d2b6023)" style="fill: #9467bd"/>
   </g>
   <g id="patch_23">
    <path d="M 135.0599 225.5045 
L 144.921301 225.5045 
L 144.921301 219.884679 
L 135.0599 219.884679 
z
" clip-path="url(#pbe2d2b6023)" style="fill: #8c564b"/>
   </g>
   <g id="patch_24">
    <path d="M 275.93705 225.5045 
L 285.798451 225.5045 
L 285.798451 220.0008 
L 275.93705 220.0008 
z
" clip-path="url(#pbe2d2b6023)" style="fill: #8c564b"/>
   </g>
   <g id="patch_25">
    <path d="M 416.8142 225.5045 
L 426.6756 225.5045 
L 426.6756 218.184886 
L 416.8142 218.184886 
z
" clip-path="url(#pbe2d2b6023)" style="fill: #8c564b"/>
   </g>
   <g id="patch_26">
    <path d="M 557.69135 225.5045 
L 567.55275 225.5045 
L 567.55275 219.661 
L 557.69135 219.661 
z
" clip-path="url(#pbe2d2b6023)" style="fill: #8c564b"/>
   </g>
   <g id="patch_27">
    <path d="M 144.921301 225.5045 
L 154.782701 225.5045 
L 154.782701 221.110041 
L 144.921301 221.110041 
z
" clip-path="url(#pbe2d2b6023)" style="fill: #e377c2"/>
   </g>
   <g id="patch_28">
    <path d="M 285.798451 225.5045 
L 295.659851 225.5045 
L 295.659851 221.076849 
L 285.798451 221.076849 
z
" clip-path="url(#pbe2d2b6023)" style="fill: #e377c2"/>
   </g>
   <g id="patch_29">
    <path d="M 426.6756 225.5045 
L 436.537001 225.5045 
L 436.537001 221.101251 
L 426.6756 221.101251 
z
" clip-path="url(#pbe2d2b6023)" style="fill: #e377c2"/>
   </g>
   <g id="patch_30">
    <path d="M 567.55275 225.5045 
L 577.414151 225.5045 
L 577.414151 221.11584 
L 567.55275 221.11584 
z
" clip-path="url(#pbe2d2b6023)" style="fill: #e377c2"/>
   </g>
   <g id="patch_31">
    <path d="M 154.782701 225.5045 
L 164.644102 225.5045 
L 164.644102 223.600858 
L 154.782701 223.600858 
z
" clip-path="url(#pbe2d2b6023)" style="fill: #7f7f7f"/>
   </g>
   <g id="patch_32">
    <path d="M 295.659851 225.5045 
L 305.521252 225.5045 
L 305.521252 223.587713 
L 295.659851 223.587713 
z
" clip-path="url(#pbe2d2b6023)" style="fill: #7f7f7f"/>
   </g>
   <g id="patch_33">
    <path d="M 436.537001 225.5045 
L 446.398401 225.5045 
L 446.398401 223.600256 
L 436.537001 223.600256 
z
" clip-path="url(#pbe2d2b6023)" style="fill: #7f7f7f"/>
   </g>
   <g id="patch_34">
    <path d="M 577.414151 225.5045 
L 587.275551 225.5045 
L 587.275551 223.64964 
L 577.414151 223.64964 
z
" clip-path="url(#pbe2d2b6023)" style="fill: #7f7f7f"/>
   </g>
   <g id="patch_35">
    <path d="M 164.644102 225.5045 
L 174.505502 225.5045 
L 174.505502 220.161256 
L 164.644102 220.161256 
z
" clip-path="url(#pbe2d2b6023)" style="fill: #bcbd22"/>
   </g>
   <g id="patch_36">
    <path d="M 305.521252 225.5045 
L 315.382652 225.5045 
L 315.382652 219.946253 
L 305.521252 219.946253 
z
" clip-path="url(#pbe2d2b6023)" style="fill: #bcbd22"/>
   </g>
   <g id="patch_37">
    <path d="M 446.398401 225.5045 
L 456.259802 225.5045 
L 456.259802 219.174526 
L 446.398401 219.174526 
z
" clip-path="url(#pbe2d2b6023)" style="fill: #bcbd22"/>
   </g>
   <g id="patch_38">
    <path d="M 587.275551 225.5045 
L 597.136952 225.5045 
L 597.136952 219.158755 
L 587.275551 219.158755 
z
" clip-path="url(#pbe2d2b6023)" style="fill: #bcbd22"/>
   </g>
   <g id="patch_39">
    <path d="M 174.505502 225.5045 
L 184.366903 225.5045 
L 184.366903 221.283676 
L 174.505502 221.283676 
z
" clip-path="url(#pbe2d2b6023)" style="fill: #17becf"/>
   </g>
   <g id="patch_40">
    <path d="M 315.382652 225.5045 
L 325.244053 225.5045 
L 325.244053 221.161438 
L 315.382652 221.161438 
z
" clip-path="url(#pbe2d2b6023)" style="fill: #17becf"/>
   </g>
   <g id="patch_41">
    <path d="M 456.259802 225.5045 
L 466.121202 225.5045 
L 466.121202 221.239943 
L 456.259802 221.239943 
z
" clip-path="url(#pbe2d2b6023)" style="fill: #17becf"/>
   </g>
   <g id="patch_42">
    <path d="M 597.136952 225.5045 
L 606.998352 225.5045 
L 606.998352 221.306634 
L 597.136952 221.306634 
z
" clip-path="url(#pbe2d2b6023)" style="fill: #17becf"/>
   </g>
   <g id="matplotlib.axis_1">
    <g id="xtick_1">
     <g id="line2d_1">
      <defs>
       <path id="mf59bc1fdbf" d="M 0 0 
L 0 3.5 
" style="stroke: #000000; stroke-width: 0.8"/>
      </defs>
      <g>
       <use xlink:href="#mf59bc1fdbf" x="139.9906" y="225.5045" style="stroke: #000000; stroke-width: 0.8"/>
      </g>
     </g>
     <g id="text_1">
      <!-- $In_1-d_r$ -->
      <g transform="translate(122.0906 240.102937) scale(0.1 -0.1)">
       <defs>
        <path id="DejaVuSans-Oblique-49" d="M 1081 4666 
L 1716 4666 
L 806 0 
L 172 0 
L 1081 4666 
z
" transform="scale(0.015625)"/>
        <path id="DejaVuSans-Oblique-6e" d="M 3566 2113 
L 3156 0 
L 2578 0 
L 2988 2091 
Q 3016 2238 3031 2350 
Q 3047 2463 3047 2528 
Q 3047 2791 2881 2937 
Q 2716 3084 2419 3084 
Q 1956 3084 1622 2776 
Q 1288 2469 1184 1941 
L 800 0 
L 225 0 
L 903 3500 
L 1478 3500 
L 1363 2950 
Q 1603 3253 1940 3418 
Q 2278 3584 2650 3584 
Q 3113 3584 3367 3334 
Q 3622 3084 3622 2631 
Q 3622 2519 3608 2391 
Q 3594 2263 3566 2113 
z
" transform="scale(0.015625)"/>
        <path id="DejaVuSans-31" d="M 794 531 
L 1825 531 
L 1825 4091 
L 703 3866 
L 703 4441 
L 1819 4666 
L 2450 4666 
L 2450 531 
L 3481 531 
L 3481 0 
L 794 0 
L 794 531 
z
" transform="scale(0.015625)"/>
        <path id="DejaVuSans-2212" d="M 678 2272 
L 4684 2272 
L 4684 1741 
L 678 1741 
L 678 2272 
z
" transform="scale(0.015625)"/>
        <path id="DejaVuSans-Oblique-64" d="M 2675 525 
Q 2444 222 2128 65 
Q 1813 -91 1428 -91 
Q 903 -91 598 267 
Q 294 625 294 1247 
Q 294 1766 478 2236 
Q 663 2706 1013 3078 
Q 1244 3325 1534 3454 
Q 1825 3584 2144 3584 
Q 2481 3584 2739 3421 
Q 2997 3259 3138 2956 
L 3513 4863 
L 4091 4863 
L 3144 0 
L 2566 0 
L 2675 525 
z
M 891 1350 
Q 891 897 1095 644 
Q 1300 391 1663 391 
Q 1931 391 2161 520 
Q 2391 650 2566 903 
Q 2750 1166 2856 1509 
Q 2963 1853 2963 2188 
Q 2963 2622 2758 2865 
Q 2553 3109 2194 3109 
Q 1922 3109 1687 2981 
Q 1453 2853 1288 2613 
Q 1106 2353 998 2009 
Q 891 1666 891 1350 
z
" transform="scale(0.015625)"/>
        <path id="DejaVuSans-Oblique-72" d="M 2853 2969 
Q 2766 3016 2653 3041 
Q 2541 3066 2413 3066 
Q 1953 3066 1609 2717 
Q 1266 2369 1153 1784 
L 800 0 
L 225 0 
L 909 3500 
L 1484 3500 
L 1375 2956 
Q 1603 3259 1920 3421 
Q 2238 3584 2597 3584 
Q 2691 3584 2781 3573 
Q 2872 3563 2963 3538 
L 2853 2969 
z
" transform="scale(0.015625)"/>
       </defs>
       <use xlink:href="#DejaVuSans-Oblique-49" transform="translate(0 0.015625)"/>
       <use xlink:href="#DejaVuSans-Oblique-6e" transform="translate(29.492188 0.015625)"/>
       <use xlink:href="#DejaVuSans-31" transform="translate(92.871094 -16.390625) scale(0.7)"/>
       <use xlink:href="#DejaVuSans-2212" transform="translate(159.624023 0.015625)"/>
       <use xlink:href="#DejaVuSans-Oblique-64" transform="translate(262.895508 0.015625)"/>
       <use xlink:href="#DejaVuSans-Oblique-72" transform="translate(326.37207 -16.390625) scale(0.7)"/>
      </g>
     </g>
    </g>
    <g id="xtick_2">
     <g id="line2d_2">
      <g>
       <use xlink:href="#mf59bc1fdbf" x="280.86775" y="225.5045" style="stroke: #000000; stroke-width: 0.8"/>
      </g>
     </g>
     <g id="text_2">
      <!-- $In_1-v_1$ -->
      <g transform="translate(262.36775 240.102937) scale(0.1 -0.1)">
       <defs>
        <path id="DejaVuSans-Oblique-76" d="M 459 3500 
L 1069 3500 
L 1581 525 
L 3256 3500 
L 3866 3500 
L 1875 0 
L 1100 0 
L 459 3500 
z
" transform="scale(0.015625)"/>
       </defs>
       <use xlink:href="#DejaVuSans-Oblique-49" transform="translate(0 0.09375)"/>
       <use xlink:href="#DejaVuSans-Oblique-6e" transform="translate(29.492188 0.09375)"/>
       <use xlink:href="#DejaVuSans-31" transform="translate(92.871094 -16.3125) scale(0.7)"/>
       <use xlink:href="#DejaVuSans-2212" transform="translate(159.624023 0.09375)"/>
       <use xlink:href="#DejaVuSans-Oblique-76" transform="translate(262.895508 0.09375)"/>
       <use xlink:href="#DejaVuSans-31" transform="translate(322.075195 -16.3125) scale(0.7)"/>
      </g>
     </g>
    </g>
    <g id="xtick_3">
     <g id="line2d_3">
      <g>
       <use xlink:href="#mf59bc1fdbf" x="421.7449" y="225.5045" style="stroke: #000000; stroke-width: 0.8"/>
      </g>
     </g>
     <g id="text_3">
      <!-- $In_2-d_r$ -->
      <g transform="translate(403.8449 240.102937) scale(0.1 -0.1)">
       <defs>
        <path id="DejaVuSans-32" d="M 1228 531 
L 3431 531 
L 3431 0 
L 469 0 
L 469 531 
Q 828 903 1448 1529 
Q 2069 2156 2228 2338 
Q 2531 2678 2651 2914 
Q 2772 3150 2772 3378 
Q 2772 3750 2511 3984 
Q 2250 4219 1831 4219 
Q 1534 4219 1204 4116 
Q 875 4013 500 3803 
L 500 4441 
Q 881 4594 1212 4672 
Q 1544 4750 1819 4750 
Q 2544 4750 2975 4387 
Q 3406 4025 3406 3419 
Q 3406 3131 3298 2873 
Q 3191 2616 2906 2266 
Q 2828 2175 2409 1742 
Q 1991 1309 1228 531 
z
" transform="scale(0.015625)"/>
       </defs>
       <use xlink:href="#DejaVuSans-Oblique-49" transform="translate(0 0.015625)"/>
       <use xlink:href="#DejaVuSans-Oblique-6e" transform="translate(29.492188 0.015625)"/>
       <use xlink:href="#DejaVuSans-32" transform="translate(92.871094 -16.390625) scale(0.7)"/>
       <use xlink:href="#DejaVuSans-2212" transform="translate(159.624023 0.015625)"/>
       <use xlink:href="#DejaVuSans-Oblique-64" transform="translate(262.895508 0.015625)"/>
       <use xlink:href="#DejaVuSans-Oblique-72" transform="translate(326.37207 -16.390625) scale(0.7)"/>
      </g>
     </g>
    </g>
    <g id="xtick_4">
     <g id="line2d_4">
      <g>
       <use xlink:href="#mf59bc1fdbf" x="562.62205" y="225.5045" style="stroke: #000000; stroke-width: 0.8"/>
      </g>
     </g>
     <g id="text_4">
      <!-- $In_2-v_1$ -->
      <g transform="translate(544.12205 240.102937) scale(0.1 -0.1)">
       <use xlink:href="#DejaVuSans-Oblique-49" transform="translate(0 0.09375)"/>
       <use xlink:href="#DejaVuSans-Oblique-6e" transform="translate(29.492188 0.09375)"/>
       <use xlink:href="#DejaVuSans-32" transform="translate(92.871094 -16.3125) scale(0.7)"/>
       <use xlink:href="#DejaVuSans-2212" transform="translate(159.624023 0.09375)"/>
       <use xlink:href="#DejaVuSans-Oblique-76" transform="translate(262.895508 0.09375)"/>
       <use xlink:href="#DejaVuSans-31" transform="translate(322.075195 -16.3125) scale(0.7)"/>
      </g>
     </g>
    </g>
   </g>
   <g id="matplotlib.axis_2">
    <g id="ytick_1">
     <g id="line2d_5">
      <defs>
       <path id="me7e7c8d100" d="M 0 0 
L -3.5 0 
" style="stroke: #000000; stroke-width: 0.8"/>
      </defs>
      <g>
       <use xlink:href="#me7e7c8d100" x="59.690625" y="225.5045" style="stroke: #000000; stroke-width: 0.8"/>
      </g>
     </g>
     <g id="text_5">
      <!-- 0 -->
      <g transform="translate(46.328125 229.303719) scale(0.1 -0.1)">
       <defs>
        <path id="DejaVuSans-30" d="M 2034 4250 
Q 1547 4250 1301 3770 
Q 1056 3291 1056 2328 
Q 1056 1369 1301 889 
Q 1547 409 2034 409 
Q 2525 409 2770 889 
Q 3016 1369 3016 2328 
Q 3016 3291 2770 3770 
Q 2525 4250 2034 4250 
z
M 2034 4750 
Q 2819 4750 3233 4129 
Q 3647 3509 3647 2328 
Q 3647 1150 3233 529 
Q 2819 -91 2034 -91 
Q 1250 -91 836 529 
Q 422 1150 422 2328 
Q 422 3509 836 4129 
Q 1250 4750 2034 4750 
z
" transform="scale(0.015625)"/>
       </defs>
       <use xlink:href="#DejaVuSans-30"/>
      </g>
     </g>
    </g>
    <g id="ytick_2">
     <g id="line2d_6">
      <g>
       <use xlink:href="#me7e7c8d100" x="59.690625" y="202.762502" style="stroke: #000000; stroke-width: 0.8"/>
      </g>
     </g>
     <g id="text_6">
      <!-- 2000 -->
      <g transform="translate(27.240625 206.56172) scale(0.1 -0.1)">
       <use xlink:href="#DejaVuSans-32"/>
       <use xlink:href="#DejaVuSans-30" x="63.623047"/>
       <use xlink:href="#DejaVuSans-30" x="127.246094"/>
       <use xlink:href="#DejaVuSans-30" x="190.869141"/>
      </g>
     </g>
    </g>
    <g id="ytick_3">
     <g id="line2d_7">
      <g>
       <use xlink:href="#me7e7c8d100" x="59.690625" y="180.020503" style="stroke: #000000; stroke-width: 0.8"/>
      </g>
     </g>
     <g id="text_7">
      <!-- 4000 -->
      <g transform="translate(27.240625 183.819722) scale(0.1 -0.1)">
       <defs>
        <path id="DejaVuSans-34" d="M 2419 4116 
L 825 1625 
L 2419 1625 
L 2419 4116 
z
M 2253 4666 
L 3047 4666 
L 3047 1625 
L 3713 1625 
L 3713 1100 
L 3047 1100 
L 3047 0 
L 2419 0 
L 2419 1100 
L 313 1100 
L 313 1709 
L 2253 4666 
z
" transform="scale(0.015625)"/>
       </defs>
       <use xlink:href="#DejaVuSans-34"/>
       <use xlink:href="#DejaVuSans-30" x="63.623047"/>
       <use xlink:href="#DejaVuSans-30" x="127.246094"/>
       <use xlink:href="#DejaVuSans-30" x="190.869141"/>
      </g>
     </g>
    </g>
    <g id="ytick_4">
     <g id="line2d_8">
      <g>
       <use xlink:href="#me7e7c8d100" x="59.690625" y="157.278505" style="stroke: #000000; stroke-width: 0.8"/>
      </g>
     </g>
     <g id="text_8">
      <!-- 6000 -->
      <g transform="translate(27.240625 161.077724) scale(0.1 -0.1)">
       <defs>
        <path id="DejaVuSans-36" d="M 2113 2584 
Q 1688 2584 1439 2293 
Q 1191 2003 1191 1497 
Q 1191 994 1439 701 
Q 1688 409 2113 409 
Q 2538 409 2786 701 
Q 3034 994 3034 1497 
Q 3034 2003 2786 2293 
Q 2538 2584 2113 2584 
z
M 3366 4563 
L 3366 3988 
Q 3128 4100 2886 4159 
Q 2644 4219 2406 4219 
Q 1781 4219 1451 3797 
Q 1122 3375 1075 2522 
Q 1259 2794 1537 2939 
Q 1816 3084 2150 3084 
Q 2853 3084 3261 2657 
Q 3669 2231 3669 1497 
Q 3669 778 3244 343 
Q 2819 -91 2113 -91 
Q 1303 -91 875 529 
Q 447 1150 447 2328 
Q 447 3434 972 4092 
Q 1497 4750 2381 4750 
Q 2619 4750 2861 4703 
Q 3103 4656 3366 4563 
z
" transform="scale(0.015625)"/>
       </defs>
       <use xlink:href="#DejaVuSans-36"/>
       <use xlink:href="#DejaVuSans-30" x="63.623047"/>
       <use xlink:href="#DejaVuSans-30" x="127.246094"/>
       <use xlink:href="#DejaVuSans-30" x="190.869141"/>
      </g>
     </g>
    </g>
    <g id="ytick_5">
     <g id="line2d_9">
      <g>
       <use xlink:href="#me7e7c8d100" x="59.690625" y="134.536507" style="stroke: #000000; stroke-width: 0.8"/>
      </g>
     </g>
     <g id="text_9">
      <!-- 8000 -->
      <g transform="translate(27.240625 138.335726) scale(0.1 -0.1)">
       <defs>
        <path id="DejaVuSans-38" d="M 2034 2216 
Q 1584 2216 1326 1975 
Q 1069 1734 1069 1313 
Q 1069 891 1326 650 
Q 1584 409 2034 409 
Q 2484 409 2743 651 
Q 3003 894 3003 1313 
Q 3003 1734 2745 1975 
Q 2488 2216 2034 2216 
z
M 1403 2484 
Q 997 2584 770 2862 
Q 544 3141 544 3541 
Q 544 4100 942 4425 
Q 1341 4750 2034 4750 
Q 2731 4750 3128 4425 
Q 3525 4100 3525 3541 
Q 3525 3141 3298 2862 
Q 3072 2584 2669 2484 
Q 3125 2378 3379 2068 
Q 3634 1759 3634 1313 
Q 3634 634 3220 271 
Q 2806 -91 2034 -91 
Q 1263 -91 848 271 
Q 434 634 434 1313 
Q 434 1759 690 2068 
Q 947 2378 1403 2484 
z
M 1172 3481 
Q 1172 3119 1398 2916 
Q 1625 2713 2034 2713 
Q 2441 2713 2670 2916 
Q 2900 3119 2900 3481 
Q 2900 3844 2670 4047 
Q 2441 4250 2034 4250 
Q 1625 4250 1398 4047 
Q 1172 3844 1172 3481 
z
" transform="scale(0.015625)"/>
       </defs>
       <use xlink:href="#DejaVuSans-38"/>
       <use xlink:href="#DejaVuSans-30" x="63.623047"/>
       <use xlink:href="#DejaVuSans-30" x="127.246094"/>
       <use xlink:href="#DejaVuSans-30" x="190.869141"/>
      </g>
     </g>
    </g>
    <g id="ytick_6">
     <g id="line2d_10">
      <g>
       <use xlink:href="#me7e7c8d100" x="59.690625" y="111.794509" style="stroke: #000000; stroke-width: 0.8"/>
      </g>
     </g>
     <g id="text_10">
      <!-- 10000 -->
      <g transform="translate(20.878125 115.593727) scale(0.1 -0.1)">
       <use xlink:href="#DejaVuSans-31"/>
       <use xlink:href="#DejaVuSans-30" x="63.623047"/>
       <use xlink:href="#DejaVuSans-30" x="127.246094"/>
       <use xlink:href="#DejaVuSans-30" x="190.869141"/>
       <use xlink:href="#DejaVuSans-30" x="254.492188"/>
      </g>
     </g>
    </g>
    <g id="ytick_7">
     <g id="line2d_11">
      <g>
       <use xlink:href="#me7e7c8d100" x="59.690625" y="89.05251" style="stroke: #000000; stroke-width: 0.8"/>
      </g>
     </g>
     <g id="text_11">
      <!-- 12000 -->
      <g transform="translate(20.878125 92.851729) scale(0.1 -0.1)">
       <use xlink:href="#DejaVuSans-31"/>
       <use xlink:href="#DejaVuSans-32" x="63.623047"/>
       <use xlink:href="#DejaVuSans-30" x="127.246094"/>
       <use xlink:href="#DejaVuSans-30" x="190.869141"/>
       <use xlink:href="#DejaVuSans-30" x="254.492188"/>
      </g>
     </g>
    </g>
    <g id="text_12">
     <!-- Total Runtime (seconds) -->
     <g transform="translate(14.798438 213.865063) rotate(-90) scale(0.1 -0.1)">
      <defs>
       <path id="DejaVuSans-54" d="M -19 4666 
L 3928 4666 
L 3928 4134 
L 2272 4134 
L 2272 0 
L 1638 0 
L 1638 4134 
L -19 4134 
L -19 4666 
z
" transform="scale(0.015625)"/>
       <path id="DejaVuSans-6f" d="M 1959 3097 
Q 1497 3097 1228 2736 
Q 959 2375 959 1747 
Q 959 1119 1226 758 
Q 1494 397 1959 397 
Q 2419 397 2687 759 
Q 2956 1122 2956 1747 
Q 2956 2369 2687 2733 
Q 2419 3097 1959 3097 
z
M 1959 3584 
Q 2709 3584 3137 3096 
Q 3566 2609 3566 1747 
Q 3566 888 3137 398 
Q 2709 -91 1959 -91 
Q 1206 -91 779 398 
Q 353 888 353 1747 
Q 353 2609 779 3096 
Q 1206 3584 1959 3584 
z
" transform="scale(0.015625)"/>
       <path id="DejaVuSans-74" d="M 1172 4494 
L 1172 3500 
L 2356 3500 
L 2356 3053 
L 1172 3053 
L 1172 1153 
Q 1172 725 1289 603 
Q 1406 481 1766 481 
L 2356 481 
L 2356 0 
L 1766 0 
Q 1100 0 847 248 
Q 594 497 594 1153 
L 594 3053 
L 172 3053 
L 172 3500 
L 594 3500 
L 594 4494 
L 1172 4494 
z
" transform="scale(0.015625)"/>
       <path id="DejaVuSans-61" d="M 2194 1759 
Q 1497 1759 1228 1600 
Q 959 1441 959 1056 
Q 959 750 1161 570 
Q 1363 391 1709 391 
Q 2188 391 2477 730 
Q 2766 1069 2766 1631 
L 2766 1759 
L 2194 1759 
z
M 3341 1997 
L 3341 0 
L 2766 0 
L 2766 531 
Q 2569 213 2275 61 
Q 1981 -91 1556 -91 
Q 1019 -91 701 211 
Q 384 513 384 1019 
Q 384 1609 779 1909 
Q 1175 2209 1959 2209 
L 2766 2209 
L 2766 2266 
Q 2766 2663 2505 2880 
Q 2244 3097 1772 3097 
Q 1472 3097 1187 3025 
Q 903 2953 641 2809 
L 641 3341 
Q 956 3463 1253 3523 
Q 1550 3584 1831 3584 
Q 2591 3584 2966 3190 
Q 3341 2797 3341 1997 
z
" transform="scale(0.015625)"/>
       <path id="DejaVuSans-6c" d="M 603 4863 
L 1178 4863 
L 1178 0 
L 603 0 
L 603 4863 
z
" transform="scale(0.015625)"/>
       <path id="DejaVuSans-20" transform="scale(0.015625)"/>
       <path id="DejaVuSans-52" d="M 2841 2188 
Q 3044 2119 3236 1894 
Q 3428 1669 3622 1275 
L 4263 0 
L 3584 0 
L 2988 1197 
Q 2756 1666 2539 1819 
Q 2322 1972 1947 1972 
L 1259 1972 
L 1259 0 
L 628 0 
L 628 4666 
L 2053 4666 
Q 2853 4666 3247 4331 
Q 3641 3997 3641 3322 
Q 3641 2881 3436 2590 
Q 3231 2300 2841 2188 
z
M 1259 4147 
L 1259 2491 
L 2053 2491 
Q 2509 2491 2742 2702 
Q 2975 2913 2975 3322 
Q 2975 3731 2742 3939 
Q 2509 4147 2053 4147 
L 1259 4147 
z
" transform="scale(0.015625)"/>
       <path id="DejaVuSans-75" d="M 544 1381 
L 544 3500 
L 1119 3500 
L 1119 1403 
Q 1119 906 1312 657 
Q 1506 409 1894 409 
Q 2359 409 2629 706 
Q 2900 1003 2900 1516 
L 2900 3500 
L 3475 3500 
L 3475 0 
L 2900 0 
L 2900 538 
Q 2691 219 2414 64 
Q 2138 -91 1772 -91 
Q 1169 -91 856 284 
Q 544 659 544 1381 
z
M 1991 3584 
L 1991 3584 
z
" transform="scale(0.015625)"/>
       <path id="DejaVuSans-6e" d="M 3513 2113 
L 3513 0 
L 2938 0 
L 2938 2094 
Q 2938 2591 2744 2837 
Q 2550 3084 2163 3084 
Q 1697 3084 1428 2787 
Q 1159 2491 1159 1978 
L 1159 0 
L 581 0 
L 581 3500 
L 1159 3500 
L 1159 2956 
Q 1366 3272 1645 3428 
Q 1925 3584 2291 3584 
Q 2894 3584 3203 3211 
Q 3513 2838 3513 2113 
z
" transform="scale(0.015625)"/>
       <path id="DejaVuSans-69" d="M 603 3500 
L 1178 3500 
L 1178 0 
L 603 0 
L 603 3500 
z
M 603 4863 
L 1178 4863 
L 1178 4134 
L 603 4134 
L 603 4863 
z
" transform="scale(0.015625)"/>
       <path id="DejaVuSans-6d" d="M 3328 2828 
Q 3544 3216 3844 3400 
Q 4144 3584 4550 3584 
Q 5097 3584 5394 3201 
Q 5691 2819 5691 2113 
L 5691 0 
L 5113 0 
L 5113 2094 
Q 5113 2597 4934 2840 
Q 4756 3084 4391 3084 
Q 3944 3084 3684 2787 
Q 3425 2491 3425 1978 
L 3425 0 
L 2847 0 
L 2847 2094 
Q 2847 2600 2669 2842 
Q 2491 3084 2119 3084 
Q 1678 3084 1418 2786 
Q 1159 2488 1159 1978 
L 1159 0 
L 581 0 
L 581 3500 
L 1159 3500 
L 1159 2956 
Q 1356 3278 1631 3431 
Q 1906 3584 2284 3584 
Q 2666 3584 2933 3390 
Q 3200 3197 3328 2828 
z
" transform="scale(0.015625)"/>
       <path id="DejaVuSans-65" d="M 3597 1894 
L 3597 1613 
L 953 1613 
Q 991 1019 1311 708 
Q 1631 397 2203 397 
Q 2534 397 2845 478 
Q 3156 559 3463 722 
L 3463 178 
Q 3153 47 2828 -22 
Q 2503 -91 2169 -91 
Q 1331 -91 842 396 
Q 353 884 353 1716 
Q 353 2575 817 3079 
Q 1281 3584 2069 3584 
Q 2775 3584 3186 3129 
Q 3597 2675 3597 1894 
z
M 3022 2063 
Q 3016 2534 2758 2815 
Q 2500 3097 2075 3097 
Q 1594 3097 1305 2825 
Q 1016 2553 972 2059 
L 3022 2063 
z
" transform="scale(0.015625)"/>
       <path id="DejaVuSans-28" d="M 1984 4856 
Q 1566 4138 1362 3434 
Q 1159 2731 1159 2009 
Q 1159 1288 1364 580 
Q 1569 -128 1984 -844 
L 1484 -844 
Q 1016 -109 783 600 
Q 550 1309 550 2009 
Q 550 2706 781 3412 
Q 1013 4119 1484 4856 
L 1984 4856 
z
" transform="scale(0.015625)"/>
       <path id="DejaVuSans-73" d="M 2834 3397 
L 2834 2853 
Q 2591 2978 2328 3040 
Q 2066 3103 1784 3103 
Q 1356 3103 1142 2972 
Q 928 2841 928 2578 
Q 928 2378 1081 2264 
Q 1234 2150 1697 2047 
L 1894 2003 
Q 2506 1872 2764 1633 
Q 3022 1394 3022 966 
Q 3022 478 2636 193 
Q 2250 -91 1575 -91 
Q 1294 -91 989 -36 
Q 684 19 347 128 
L 347 722 
Q 666 556 975 473 
Q 1284 391 1588 391 
Q 1994 391 2212 530 
Q 2431 669 2431 922 
Q 2431 1156 2273 1281 
Q 2116 1406 1581 1522 
L 1381 1569 
Q 847 1681 609 1914 
Q 372 2147 372 2553 
Q 372 3047 722 3315 
Q 1072 3584 1716 3584 
Q 2034 3584 2315 3537 
Q 2597 3491 2834 3397 
z
" transform="scale(0.015625)"/>
       <path id="DejaVuSans-63" d="M 3122 3366 
L 3122 2828 
Q 2878 2963 2633 3030 
Q 2388 3097 2138 3097 
Q 1578 3097 1268 2742 
Q 959 2388 959 1747 
Q 959 1106 1268 751 
Q 1578 397 2138 397 
Q 2388 397 2633 464 
Q 2878 531 3122 666 
L 3122 134 
Q 2881 22 2623 -34 
Q 2366 -91 2075 -91 
Q 1284 -91 818 406 
Q 353 903 353 1747 
Q 353 2603 823 3093 
Q 1294 3584 2113 3584 
Q 2378 3584 2631 3529 
Q 2884 3475 3122 3366 
z
" transform="scale(0.015625)"/>
       <path id="DejaVuSans-64" d="M 2906 2969 
L 2906 4863 
L 3481 4863 
L 3481 0 
L 2906 0 
L 2906 525 
Q 2725 213 2448 61 
Q 2172 -91 1784 -91 
Q 1150 -91 751 415 
Q 353 922 353 1747 
Q 353 2572 751 3078 
Q 1150 3584 1784 3584 
Q 2172 3584 2448 3432 
Q 2725 3281 2906 2969 
z
M 947 1747 
Q 947 1113 1208 752 
Q 1469 391 1925 391 
Q 2381 391 2643 752 
Q 2906 1113 2906 1747 
Q 2906 2381 2643 2742 
Q 2381 3103 1925 3103 
Q 1469 3103 1208 2742 
Q 947 2381 947 1747 
z
" transform="scale(0.015625)"/>
       <path id="DejaVuSans-29" d="M 513 4856 
L 1013 4856 
Q 1481 4119 1714 3412 
Q 1947 2706 1947 2009 
Q 1947 1309 1714 600 
Q 1481 -109 1013 -844 
L 513 -844 
Q 928 -128 1133 580 
Q 1338 1288 1338 2009 
Q 1338 2731 1133 3434 
Q 928 4138 513 4856 
z
" transform="scale(0.015625)"/>
      </defs>
      <use xlink:href="#DejaVuSans-54"/>
      <use xlink:href="#DejaVuSans-6f" x="44.083984"/>
      <use xlink:href="#DejaVuSans-74" x="105.265625"/>
      <use xlink:href="#DejaVuSans-61" x="144.474609"/>
      <use xlink:href="#DejaVuSans-6c" x="205.753906"/>
      <use xlink:href="#DejaVuSans-20" x="233.537109"/>
      <use xlink:href="#DejaVuSans-52" x="265.324219"/>
      <use xlink:href="#DejaVuSans-75" x="330.306641"/>
      <use xlink:href="#DejaVuSans-6e" x="393.685547"/>
      <use xlink:href="#DejaVuSans-74" x="457.064453"/>
      <use xlink:href="#DejaVuSans-69" x="496.273438"/>
      <use xlink:href="#DejaVuSans-6d" x="524.056641"/>
      <use xlink:href="#DejaVuSans-65" x="621.46875"/>
      <use xlink:href="#DejaVuSans-20" x="682.992188"/>
      <use xlink:href="#DejaVuSans-28" x="714.779297"/>
      <use xlink:href="#DejaVuSans-73" x="753.792969"/>
      <use xlink:href="#DejaVuSans-65" x="805.892578"/>
      <use xlink:href="#DejaVuSans-63" x="867.416016"/>
      <use xlink:href="#DejaVuSans-6f" x="922.396484"/>
      <use xlink:href="#DejaVuSans-6e" x="983.578125"/>
      <use xlink:href="#DejaVuSans-64" x="1046.957031"/>
      <use xlink:href="#DejaVuSans-73" x="1110.433594"/>
      <use xlink:href="#DejaVuSans-29" x="1162.533203"/>
     </g>
    </g>
   </g>
   <g id="patch_43">
    <path d="M 59.690625 225.5045 
L 59.690625 82.0725 
" style="fill: none; stroke: #000000; stroke-width: 0.8; stroke-linejoin: miter; stroke-linecap: square"/>
   </g>
   <g id="patch_44">
    <path d="M 633.060625 225.5045 
L 633.060625 82.0725 
" style="fill: none; stroke: #000000; stroke-width: 0.8; stroke-linejoin: miter; stroke-linecap: square"/>
   </g>
   <g id="patch_45">
    <path d="M 59.690625 225.5045 
L 633.060625 225.5045 
" style="fill: none; stroke: #000000; stroke-width: 0.8; stroke-linejoin: miter; stroke-linecap: square"/>
   </g>
   <g id="patch_46">
    <path d="M 59.690625 82.0725 
L 633.060625 82.0725 
" style="fill: none; stroke: #000000; stroke-width: 0.8; stroke-linejoin: miter; stroke-linecap: square"/>
   </g>
   <g id="text_13">
    <!-- Total Runtime Comparison -->
    <g transform="translate(267.566563 76.0725) scale(0.12 -0.12)">
     <defs>
      <path id="DejaVuSans-43" d="M 4122 4306 
L 4122 3641 
Q 3803 3938 3442 4084 
Q 3081 4231 2675 4231 
Q 1875 4231 1450 3742 
Q 1025 3253 1025 2328 
Q 1025 1406 1450 917 
Q 1875 428 2675 428 
Q 3081 428 3442 575 
Q 3803 722 4122 1019 
L 4122 359 
Q 3791 134 3420 21 
Q 3050 -91 2638 -91 
Q 1578 -91 968 557 
Q 359 1206 359 2328 
Q 359 3453 968 4101 
Q 1578 4750 2638 4750 
Q 3056 4750 3426 4639 
Q 3797 4528 4122 4306 
z
" transform="scale(0.015625)"/>
      <path id="DejaVuSans-70" d="M 1159 525 
L 1159 -1331 
L 581 -1331 
L 581 3500 
L 1159 3500 
L 1159 2969 
Q 1341 3281 1617 3432 
Q 1894 3584 2278 3584 
Q 2916 3584 3314 3078 
Q 3713 2572 3713 1747 
Q 3713 922 3314 415 
Q 2916 -91 2278 -91 
Q 1894 -91 1617 61 
Q 1341 213 1159 525 
z
M 3116 1747 
Q 3116 2381 2855 2742 
Q 2594 3103 2138 3103 
Q 1681 3103 1420 2742 
Q 1159 2381 1159 1747 
Q 1159 1113 1420 752 
Q 1681 391 2138 391 
Q 2594 391 2855 752 
Q 3116 1113 3116 1747 
z
" transform="scale(0.015625)"/>
      <path id="DejaVuSans-72" d="M 2631 2963 
Q 2534 3019 2420 3045 
Q 2306 3072 2169 3072 
Q 1681 3072 1420 2755 
Q 1159 2438 1159 1844 
L 1159 0 
L 581 0 
L 581 3500 
L 1159 3500 
L 1159 2956 
Q 1341 3275 1631 3429 
Q 1922 3584 2338 3584 
Q 2397 3584 2469 3576 
Q 2541 3569 2628 3553 
L 2631 2963 
z
" transform="scale(0.015625)"/>
     </defs>
     <use xlink:href="#DejaVuSans-54"/>
     <use xlink:href="#DejaVuSans-6f" x="44.083984"/>
     <use xlink:href="#DejaVuSans-74" x="105.265625"/>
     <use xlink:href="#DejaVuSans-61" x="144.474609"/>
     <use xlink:href="#DejaVuSans-6c" x="205.753906"/>
     <use xlink:href="#DejaVuSans-20" x="233.537109"/>
     <use xlink:href="#DejaVuSans-52" x="265.324219"/>
     <use xlink:href="#DejaVuSans-75" x="330.306641"/>
     <use xlink:href="#DejaVuSans-6e" x="393.685547"/>
     <use xlink:href="#DejaVuSans-74" x="457.064453"/>
     <use xlink:href="#DejaVuSans-69" x="496.273438"/>
     <use xlink:href="#DejaVuSans-6d" x="524.056641"/>
     <use xlink:href="#DejaVuSans-65" x="621.46875"/>
     <use xlink:href="#DejaVuSans-20" x="682.992188"/>
     <use xlink:href="#DejaVuSans-43" x="714.779297"/>
     <use xlink:href="#DejaVuSans-6f" x="784.603516"/>
     <use xlink:href="#DejaVuSans-6d" x="845.785156"/>
     <use xlink:href="#DejaVuSans-70" x="943.197266"/>
     <use xlink:href="#DejaVuSans-61" x="1006.673828"/>
     <use xlink:href="#DejaVuSans-72" x="1067.953125"/>
     <use xlink:href="#DejaVuSans-69" x="1109.066406"/>
     <use xlink:href="#DejaVuSans-73" x="1136.849609"/>
     <use xlink:href="#DejaVuSans-6f" x="1188.949219"/>
     <use xlink:href="#DejaVuSans-6e" x="1250.130859"/>
    </g>
   </g>
  </g>
  <g id="axes_2">
   <g id="patch_47">
    <path d="M 59.690625 413.9045 
L 633.060625 413.9045 
L 633.060625 270.4725 
L 59.690625 270.4725 
z
" style="fill: #ffffff"/>
   </g>
   <g id="patch_48">
    <path d="M 85.752898 413.9045 
L 95.614298 413.9045 
L 95.614298 379.011178 
L 85.752898 379.011178 
z
" clip-path="url(#pb045251c52)" style="fill: #1f77b4"/>
   </g>
   <g id="patch_49">
    <path d="M 226.630048 413.9045 
L 236.491448 413.9045 
L 236.491448 378.711313 
L 226.630048 378.711313 
z
" clip-path="url(#pb045251c52)" style="fill: #1f77b4"/>
   </g>
   <g id="patch_50">
    <path d="M 367.507197 413.9045 
L 377.368598 413.9045 
L 377.368598 378.929396 
L 367.507197 378.929396 
z
" clip-path="url(#pb045251c52)" style="fill: #1f77b4"/>
   </g>
   <g id="patch_51">
    <path d="M 508.384347 413.9045 
L 518.245748 413.9045 
L 518.245748 378.874876 
L 508.384347 378.874876 
z
" clip-path="url(#pb045251c52)" style="fill: #1f77b4"/>
   </g>
   <g id="patch_52">
    <path d="M 95.614298 413.9045 
L 105.475699 413.9045 
L 105.475699 378.602272 
L 95.614298 378.602272 
z
" clip-path="url(#pb045251c52)" style="fill: #ff7f0e"/>
   </g>
   <g id="patch_53">
    <path d="M 236.491448 413.9045 
L 246.352849 413.9045 
L 246.352849 378.793094 
L 236.491448 378.793094 
z
" clip-path="url(#pb045251c52)" style="fill: #ff7f0e"/>
   </g>
   <g id="patch_54">
    <path d="M 377.368598 413.9045 
L 387.229998 413.9045 
L 387.229998 378.49323 
L 377.368598 378.49323 
z
" clip-path="url(#pb045251c52)" style="fill: #ff7f0e"/>
   </g>
   <g id="patch_55">
    <path d="M 518.245748 413.9045 
L 528.107148 413.9045 
L 528.107148 378.49323 
L 518.245748 378.49323 
z
" clip-path="url(#pb045251c52)" style="fill: #ff7f0e"/>
   </g>
   <g id="patch_56">
    <path d="M 105.475699 413.9045 
L 115.337099 413.9045 
L 115.337099 378.547751 
L 105.475699 378.547751 
z
" clip-path="url(#pb045251c52)" style="fill: #2ca02c"/>
   </g>
   <g id="patch_57">
    <path d="M 246.352849 413.9045 
L 256.214249 413.9045 
L 256.214249 378.793094 
L 246.352849 378.793094 
z
" clip-path="url(#pb045251c52)" style="fill: #2ca02c"/>
   </g>
   <g id="patch_58">
    <path d="M 387.229998 413.9045 
L 397.091399 413.9045 
L 397.091399 378.49323 
L 387.229998 378.49323 
z
" clip-path="url(#pb045251c52)" style="fill: #2ca02c"/>
   </g>
   <g id="patch_59">
    <path d="M 528.107148 413.9045 
L 537.968549 413.9045 
L 537.968549 378.874876 
L 528.107148 378.874876 
z
" clip-path="url(#pb045251c52)" style="fill: #2ca02c"/>
   </g>
   <g id="patch_60">
    <path d="M 115.337099 413.9045 
L 125.1985 413.9045 
L 125.1985 378.49323 
L 115.337099 378.49323 
z
" clip-path="url(#pb045251c52)" style="fill: #d62728"/>
   </g>
   <g id="patch_61">
    <path d="M 256.214249 413.9045 
L 266.07565 413.9045 
L 266.07565 382.227906 
L 256.214249 382.227906 
z
" clip-path="url(#pb045251c52)" style="fill: #d62728"/>
   </g>
   <g id="patch_62">
    <path d="M 397.091399 413.9045 
L 406.952799 413.9045 
L 406.952799 380.047073 
L 397.091399 380.047073 
z
" clip-path="url(#pb045251c52)" style="fill: #d62728"/>
   </g>
   <g id="patch_63">
    <path d="M 537.968549 413.9045 
L 547.829949 413.9045 
L 547.829949 378.793094 
L 537.968549 378.793094 
z
" clip-path="url(#pb045251c52)" style="fill: #d62728"/>
   </g>
   <g id="patch_64">
    <path d="M 125.1985 413.9045 
L 135.0599 413.9045 
L 135.0599 277.411637 
L 125.1985 277.411637 
z
" clip-path="url(#pb045251c52)" style="fill: #9467bd"/>
   </g>
   <g id="patch_65">
    <path d="M 266.07565 413.9045 
L 275.93705 413.9045 
L 275.93705 277.329856 
L 266.07565 277.329856 
z
" clip-path="url(#pb045251c52)" style="fill: #9467bd"/>
   </g>
   <g id="patch_66">
    <path d="M 406.952799 413.9045 
L 416.8142 413.9045 
L 416.8142 277.411637 
L 406.952799 277.411637 
z
" clip-path="url(#pb045251c52)" style="fill: #9467bd"/>
   </g>
   <g id="patch_67">
    <path d="M 547.829949 413.9045 
L 557.69135 413.9045 
L 557.69135 277.575199 
L 547.829949 277.575199 
z
" clip-path="url(#pb045251c52)" style="fill: #9467bd"/>
   </g>
   <g id="patch_68">
    <path d="M 135.0599 413.9045 
L 144.921301 413.9045 
L 144.921301 277.575199 
L 135.0599 277.575199 
z
" clip-path="url(#pb045251c52)" style="fill: #8c564b"/>
   </g>
   <g id="patch_69">
    <path d="M 275.93705 413.9045 
L 285.798451 413.9045 
L 285.798451 277.520679 
L 275.93705 277.520679 
z
" clip-path="url(#pb045251c52)" style="fill: #8c564b"/>
   </g>
   <g id="patch_70">
    <path d="M 416.8142 413.9045 
L 426.6756 413.9045 
L 426.6756 277.411637 
L 416.8142 277.411637 
z
" clip-path="url(#pb045251c52)" style="fill: #8c564b"/>
   </g>
   <g id="patch_71">
    <path d="M 557.69135 413.9045 
L 567.55275 413.9045 
L 567.55275 277.411637 
L 557.69135 277.411637 
z
" clip-path="url(#pb045251c52)" style="fill: #8c564b"/>
   </g>
   <g id="patch_72">
    <path d="M 144.921301 413.9045 
L 154.782701 413.9045 
L 154.782701 277.411637 
L 144.921301 277.411637 
z
" clip-path="url(#pb045251c52)" style="fill: #e377c2"/>
   </g>
   <g id="patch_73">
    <path d="M 285.798451 413.9045 
L 295.659851 413.9045 
L 295.659851 277.411637 
L 285.798451 277.411637 
z
" clip-path="url(#pb045251c52)" style="fill: #e377c2"/>
   </g>
   <g id="patch_74">
    <path d="M 426.6756 413.9045 
L 436.537001 413.9045 
L 436.537001 277.411637 
L 426.6756 277.411637 
z
" clip-path="url(#pb045251c52)" style="fill: #e377c2"/>
   </g>
   <g id="patch_75">
    <path d="M 567.55275 413.9045 
L 577.414151 413.9045 
L 577.414151 277.411637 
L 567.55275 277.411637 
z
" clip-path="url(#pb045251c52)" style="fill: #e377c2"/>
   </g>
   <g id="patch_76">
    <path d="M 154.782701 413.9045 
L 164.644102 413.9045 
L 164.644102 277.302595 
L 154.782701 277.302595 
z
" clip-path="url(#pb045251c52)" style="fill: #7f7f7f"/>
   </g>
   <g id="patch_77">
    <path d="M 295.659851 413.9045 
L 305.521252 413.9045 
L 305.521252 277.384376 
L 295.659851 277.384376 
z
" clip-path="url(#pb045251c52)" style="fill: #7f7f7f"/>
   </g>
   <g id="patch_78">
    <path d="M 436.537001 413.9045 
L 446.398401 413.9045 
L 446.398401 277.466158 
L 436.537001 277.466158 
z
" clip-path="url(#pb045251c52)" style="fill: #7f7f7f"/>
   </g>
   <g id="patch_79">
    <path d="M 577.414151 413.9045 
L 587.275551 413.9045 
L 587.275551 277.384376 
L 577.414151 277.384376 
z
" clip-path="url(#pb045251c52)" style="fill: #7f7f7f"/>
   </g>
   <g id="patch_80">
    <path d="M 164.644102 413.9045 
L 174.505502 413.9045 
L 174.505502 277.329856 
L 164.644102 277.329856 
z
" clip-path="url(#pb045251c52)" style="fill: #bcbd22"/>
   </g>
   <g id="patch_81">
    <path d="M 305.521252 413.9045 
L 315.382652 413.9045 
L 315.382652 277.384376 
L 305.521252 277.384376 
z
" clip-path="url(#pb045251c52)" style="fill: #bcbd22"/>
   </g>
   <g id="patch_82">
    <path d="M 446.398401 413.9045 
L 456.259802 413.9045 
L 456.259802 277.384376 
L 446.398401 277.384376 
z
" clip-path="url(#pb045251c52)" style="fill: #bcbd22"/>
   </g>
   <g id="patch_83">
    <path d="M 587.275551 413.9045 
L 597.136952 413.9045 
L 597.136952 277.384376 
L 587.275551 277.384376 
z
" clip-path="url(#pb045251c52)" style="fill: #bcbd22"/>
   </g>
   <g id="patch_84">
    <path d="M 174.505502 413.9045 
L 184.366903 413.9045 
L 184.366903 277.493418 
L 174.505502 277.493418 
z
" clip-path="url(#pb045251c52)" style="fill: #17becf"/>
   </g>
   <g id="patch_85">
    <path d="M 315.382652 413.9045 
L 325.244053 413.9045 
L 325.244053 277.384376 
L 315.382652 277.384376 
z
" clip-path="url(#pb045251c52)" style="fill: #17becf"/>
   </g>
   <g id="patch_86">
    <path d="M 456.259802 413.9045 
L 466.121202 413.9045 
L 466.121202 277.466158 
L 456.259802 277.466158 
z
" clip-path="url(#pb045251c52)" style="fill: #17becf"/>
   </g>
   <g id="patch_87">
    <path d="M 597.136952 413.9045 
L 606.998352 413.9045 
L 606.998352 277.384376 
L 597.136952 277.384376 
z
" clip-path="url(#pb045251c52)" style="fill: #17becf"/>
   </g>
   <g id="matplotlib.axis_3">
    <g id="xtick_5">
     <g id="line2d_12">
      <g>
       <use xlink:href="#mf59bc1fdbf" x="139.9906" y="413.9045" style="stroke: #000000; stroke-width: 0.8"/>
      </g>
     </g>
     <g id="text_14">
      <!-- $In_1-d_r$ -->
      <g transform="translate(122.0906 428.502937) scale(0.1 -0.1)">
       <use xlink:href="#DejaVuSans-Oblique-49" transform="translate(0 0.015625)"/>
       <use xlink:href="#DejaVuSans-Oblique-6e" transform="translate(29.492188 0.015625)"/>
       <use xlink:href="#DejaVuSans-31" transform="translate(92.871094 -16.390625) scale(0.7)"/>
       <use xlink:href="#DejaVuSans-2212" transform="translate(159.624023 0.015625)"/>
       <use xlink:href="#DejaVuSans-Oblique-64" transform="translate(262.895508 0.015625)"/>
       <use xlink:href="#DejaVuSans-Oblique-72" transform="translate(326.37207 -16.390625) scale(0.7)"/>
      </g>
     </g>
    </g>
    <g id="xtick_6">
     <g id="line2d_13">
      <g>
       <use xlink:href="#mf59bc1fdbf" x="280.86775" y="413.9045" style="stroke: #000000; stroke-width: 0.8"/>
      </g>
     </g>
     <g id="text_15">
      <!-- $In_1-v_1$ -->
      <g transform="translate(262.36775 428.502937) scale(0.1 -0.1)">
       <use xlink:href="#DejaVuSans-Oblique-49" transform="translate(0 0.09375)"/>
       <use xlink:href="#DejaVuSans-Oblique-6e" transform="translate(29.492188 0.09375)"/>
       <use xlink:href="#DejaVuSans-31" transform="translate(92.871094 -16.3125) scale(0.7)"/>
       <use xlink:href="#DejaVuSans-2212" transform="translate(159.624023 0.09375)"/>
       <use xlink:href="#DejaVuSans-Oblique-76" transform="translate(262.895508 0.09375)"/>
       <use xlink:href="#DejaVuSans-31" transform="translate(322.075195 -16.3125) scale(0.7)"/>
      </g>
     </g>
    </g>
    <g id="xtick_7">
     <g id="line2d_14">
      <g>
       <use xlink:href="#mf59bc1fdbf" x="421.7449" y="413.9045" style="stroke: #000000; stroke-width: 0.8"/>
      </g>
     </g>
     <g id="text_16">
      <!-- $In_2-d_r$ -->
      <g transform="translate(403.8449 428.502937) scale(0.1 -0.1)">
       <use xlink:href="#DejaVuSans-Oblique-49" transform="translate(0 0.015625)"/>
       <use xlink:href="#DejaVuSans-Oblique-6e" transform="translate(29.492188 0.015625)"/>
       <use xlink:href="#DejaVuSans-32" transform="translate(92.871094 -16.390625) scale(0.7)"/>
       <use xlink:href="#DejaVuSans-2212" transform="translate(159.624023 0.015625)"/>
       <use xlink:href="#DejaVuSans-Oblique-64" transform="translate(262.895508 0.015625)"/>
       <use xlink:href="#DejaVuSans-Oblique-72" transform="translate(326.37207 -16.390625) scale(0.7)"/>
      </g>
     </g>
    </g>
    <g id="xtick_8">
     <g id="line2d_15">
      <g>
       <use xlink:href="#mf59bc1fdbf" x="562.62205" y="413.9045" style="stroke: #000000; stroke-width: 0.8"/>
      </g>
     </g>
     <g id="text_17">
      <!-- $In_2-v_1$ -->
      <g transform="translate(544.12205 428.502937) scale(0.1 -0.1)">
       <use xlink:href="#DejaVuSans-Oblique-49" transform="translate(0 0.09375)"/>
       <use xlink:href="#DejaVuSans-Oblique-6e" transform="translate(29.492188 0.09375)"/>
       <use xlink:href="#DejaVuSans-32" transform="translate(92.871094 -16.3125) scale(0.7)"/>
       <use xlink:href="#DejaVuSans-2212" transform="translate(159.624023 0.09375)"/>
       <use xlink:href="#DejaVuSans-Oblique-76" transform="translate(262.895508 0.09375)"/>
       <use xlink:href="#DejaVuSans-31" transform="translate(322.075195 -16.3125) scale(0.7)"/>
      </g>
     </g>
    </g>
   </g>
   <g id="matplotlib.axis_4">
    <g id="ytick_8">
     <g id="line2d_16">
      <g>
       <use xlink:href="#me7e7c8d100" x="59.690625" y="413.9045" style="stroke: #000000; stroke-width: 0.8"/>
      </g>
     </g>
     <g id="text_18">
      <!-- 0 -->
      <g transform="translate(46.328125 417.703719) scale(0.1 -0.1)">
       <use xlink:href="#DejaVuSans-30"/>
      </g>
     </g>
    </g>
    <g id="ytick_9">
     <g id="line2d_17">
      <g>
       <use xlink:href="#me7e7c8d100" x="59.690625" y="386.644092" style="stroke: #000000; stroke-width: 0.8"/>
      </g>
     </g>
     <g id="text_19">
      <!-- 10 -->
      <g transform="translate(39.965625 390.443311) scale(0.1 -0.1)">
       <use xlink:href="#DejaVuSans-31"/>
       <use xlink:href="#DejaVuSans-30" x="63.623047"/>
      </g>
     </g>
    </g>
    <g id="ytick_10">
     <g id="line2d_18">
      <g>
       <use xlink:href="#me7e7c8d100" x="59.690625" y="359.383684" style="stroke: #000000; stroke-width: 0.8"/>
      </g>
     </g>
     <g id="text_20">
      <!-- 20 -->
      <g transform="translate(39.965625 363.182903) scale(0.1 -0.1)">
       <use xlink:href="#DejaVuSans-32"/>
       <use xlink:href="#DejaVuSans-30" x="63.623047"/>
      </g>
     </g>
    </g>
    <g id="ytick_11">
     <g id="line2d_19">
      <g>
       <use xlink:href="#me7e7c8d100" x="59.690625" y="332.123276" style="stroke: #000000; stroke-width: 0.8"/>
      </g>
     </g>
     <g id="text_21">
      <!-- 30 -->
      <g transform="translate(39.965625 335.922495) scale(0.1 -0.1)">
       <defs>
        <path id="DejaVuSans-33" d="M 2597 2516 
Q 3050 2419 3304 2112 
Q 3559 1806 3559 1356 
Q 3559 666 3084 287 
Q 2609 -91 1734 -91 
Q 1441 -91 1130 -33 
Q 819 25 488 141 
L 488 750 
Q 750 597 1062 519 
Q 1375 441 1716 441 
Q 2309 441 2620 675 
Q 2931 909 2931 1356 
Q 2931 1769 2642 2001 
Q 2353 2234 1838 2234 
L 1294 2234 
L 1294 2753 
L 1863 2753 
Q 2328 2753 2575 2939 
Q 2822 3125 2822 3475 
Q 2822 3834 2567 4026 
Q 2313 4219 1838 4219 
Q 1578 4219 1281 4162 
Q 984 4106 628 3988 
L 628 4550 
Q 988 4650 1302 4700 
Q 1616 4750 1894 4750 
Q 2613 4750 3031 4423 
Q 3450 4097 3450 3541 
Q 3450 3153 3228 2886 
Q 3006 2619 2597 2516 
z
" transform="scale(0.015625)"/>
       </defs>
       <use xlink:href="#DejaVuSans-33"/>
       <use xlink:href="#DejaVuSans-30" x="63.623047"/>
      </g>
     </g>
    </g>
    <g id="ytick_12">
     <g id="line2d_20">
      <g>
       <use xlink:href="#me7e7c8d100" x="59.690625" y="304.862868" style="stroke: #000000; stroke-width: 0.8"/>
      </g>
     </g>
     <g id="text_22">
      <!-- 40 -->
      <g transform="translate(39.965625 308.662087) scale(0.1 -0.1)">
       <use xlink:href="#DejaVuSans-34"/>
       <use xlink:href="#DejaVuSans-30" x="63.623047"/>
      </g>
     </g>
    </g>
    <g id="ytick_13">
     <g id="line2d_21">
      <g>
       <use xlink:href="#me7e7c8d100" x="59.690625" y="277.60246" style="stroke: #000000; stroke-width: 0.8"/>
      </g>
     </g>
     <g id="text_23">
      <!-- 50 -->
      <g transform="translate(39.965625 281.401678) scale(0.1 -0.1)">
       <defs>
        <path id="DejaVuSans-35" d="M 691 4666 
L 3169 4666 
L 3169 4134 
L 1269 4134 
L 1269 2991 
Q 1406 3038 1543 3061 
Q 1681 3084 1819 3084 
Q 2600 3084 3056 2656 
Q 3513 2228 3513 1497 
Q 3513 744 3044 326 
Q 2575 -91 1722 -91 
Q 1428 -91 1123 -41 
Q 819 9 494 109 
L 494 744 
Q 775 591 1075 516 
Q 1375 441 1709 441 
Q 2250 441 2565 725 
Q 2881 1009 2881 1497 
Q 2881 1984 2565 2268 
Q 2250 2553 1709 2553 
Q 1456 2553 1204 2497 
Q 953 2441 691 2322 
L 691 4666 
z
" transform="scale(0.015625)"/>
       </defs>
       <use xlink:href="#DejaVuSans-35"/>
       <use xlink:href="#DejaVuSans-30" x="63.623047"/>
      </g>
     </g>
    </g>
    <g id="text_24">
     <!-- Average CPU Usage (%) -->
     <g transform="translate(14.798438 401.885375) rotate(-90) scale(0.1 -0.1)">
      <defs>
       <path id="DejaVuSans-41" d="M 2188 4044 
L 1331 1722 
L 3047 1722 
L 2188 4044 
z
M 1831 4666 
L 2547 4666 
L 4325 0 
L 3669 0 
L 3244 1197 
L 1141 1197 
L 716 0 
L 50 0 
L 1831 4666 
z
" transform="scale(0.015625)"/>
       <path id="DejaVuSans-76" d="M 191 3500 
L 800 3500 
L 1894 563 
L 2988 3500 
L 3597 3500 
L 2284 0 
L 1503 0 
L 191 3500 
z
" transform="scale(0.015625)"/>
       <path id="DejaVuSans-67" d="M 2906 1791 
Q 2906 2416 2648 2759 
Q 2391 3103 1925 3103 
Q 1463 3103 1205 2759 
Q 947 2416 947 1791 
Q 947 1169 1205 825 
Q 1463 481 1925 481 
Q 2391 481 2648 825 
Q 2906 1169 2906 1791 
z
M 3481 434 
Q 3481 -459 3084 -895 
Q 2688 -1331 1869 -1331 
Q 1566 -1331 1297 -1286 
Q 1028 -1241 775 -1147 
L 775 -588 
Q 1028 -725 1275 -790 
Q 1522 -856 1778 -856 
Q 2344 -856 2625 -561 
Q 2906 -266 2906 331 
L 2906 616 
Q 2728 306 2450 153 
Q 2172 0 1784 0 
Q 1141 0 747 490 
Q 353 981 353 1791 
Q 353 2603 747 3093 
Q 1141 3584 1784 3584 
Q 2172 3584 2450 3431 
Q 2728 3278 2906 2969 
L 2906 3500 
L 3481 3500 
L 3481 434 
z
" transform="scale(0.015625)"/>
       <path id="DejaVuSans-50" d="M 1259 4147 
L 1259 2394 
L 2053 2394 
Q 2494 2394 2734 2622 
Q 2975 2850 2975 3272 
Q 2975 3691 2734 3919 
Q 2494 4147 2053 4147 
L 1259 4147 
z
M 628 4666 
L 2053 4666 
Q 2838 4666 3239 4311 
Q 3641 3956 3641 3272 
Q 3641 2581 3239 2228 
Q 2838 1875 2053 1875 
L 1259 1875 
L 1259 0 
L 628 0 
L 628 4666 
z
" transform="scale(0.015625)"/>
       <path id="DejaVuSans-55" d="M 556 4666 
L 1191 4666 
L 1191 1831 
Q 1191 1081 1462 751 
Q 1734 422 2344 422 
Q 2950 422 3222 751 
Q 3494 1081 3494 1831 
L 3494 4666 
L 4128 4666 
L 4128 1753 
Q 4128 841 3676 375 
Q 3225 -91 2344 -91 
Q 1459 -91 1007 375 
Q 556 841 556 1753 
L 556 4666 
z
" transform="scale(0.015625)"/>
       <path id="DejaVuSans-25" d="M 4653 2053 
Q 4381 2053 4226 1822 
Q 4072 1591 4072 1178 
Q 4072 772 4226 539 
Q 4381 306 4653 306 
Q 4919 306 5073 539 
Q 5228 772 5228 1178 
Q 5228 1588 5073 1820 
Q 4919 2053 4653 2053 
z
M 4653 2450 
Q 5147 2450 5437 2106 
Q 5728 1763 5728 1178 
Q 5728 594 5436 251 
Q 5144 -91 4653 -91 
Q 4153 -91 3862 251 
Q 3572 594 3572 1178 
Q 3572 1766 3864 2108 
Q 4156 2450 4653 2450 
z
M 1428 4353 
Q 1159 4353 1004 4120 
Q 850 3888 850 3481 
Q 850 3069 1003 2837 
Q 1156 2606 1428 2606 
Q 1700 2606 1854 2837 
Q 2009 3069 2009 3481 
Q 2009 3884 1853 4118 
Q 1697 4353 1428 4353 
z
M 4250 4750 
L 4750 4750 
L 1831 -91 
L 1331 -91 
L 4250 4750 
z
M 1428 4750 
Q 1922 4750 2215 4408 
Q 2509 4066 2509 3481 
Q 2509 2891 2217 2550 
Q 1925 2209 1428 2209 
Q 931 2209 642 2551 
Q 353 2894 353 3481 
Q 353 4063 643 4406 
Q 934 4750 1428 4750 
z
" transform="scale(0.015625)"/>
      </defs>
      <use xlink:href="#DejaVuSans-41"/>
      <use xlink:href="#DejaVuSans-76" x="62.533203"/>
      <use xlink:href="#DejaVuSans-65" x="121.712891"/>
      <use xlink:href="#DejaVuSans-72" x="183.236328"/>
      <use xlink:href="#DejaVuSans-61" x="224.349609"/>
      <use xlink:href="#DejaVuSans-67" x="285.628906"/>
      <use xlink:href="#DejaVuSans-65" x="349.105469"/>
      <use xlink:href="#DejaVuSans-20" x="410.628906"/>
      <use xlink:href="#DejaVuSans-43" x="442.416016"/>
      <use xlink:href="#DejaVuSans-50" x="512.240234"/>
      <use xlink:href="#DejaVuSans-55" x="572.542969"/>
      <use xlink:href="#DejaVuSans-20" x="645.736328"/>
      <use xlink:href="#DejaVuSans-55" x="677.523438"/>
      <use xlink:href="#DejaVuSans-73" x="750.716797"/>
      <use xlink:href="#DejaVuSans-61" x="802.816406"/>
      <use xlink:href="#DejaVuSans-67" x="864.095703"/>
      <use xlink:href="#DejaVuSans-65" x="927.572266"/>
      <use xlink:href="#DejaVuSans-20" x="989.095703"/>
      <use xlink:href="#DejaVuSans-28" x="1020.882812"/>
      <use xlink:href="#DejaVuSans-25" x="1059.896484"/>
      <use xlink:href="#DejaVuSans-29" x="1154.916016"/>
     </g>
    </g>
   </g>
   <g id="patch_88">
    <path d="M 59.690625 413.9045 
L 59.690625 270.4725 
" style="fill: none; stroke: #000000; stroke-width: 0.8; stroke-linejoin: miter; stroke-linecap: square"/>
   </g>
   <g id="patch_89">
    <path d="M 633.060625 413.9045 
L 633.060625 270.4725 
" style="fill: none; stroke: #000000; stroke-width: 0.8; stroke-linejoin: miter; stroke-linecap: square"/>
   </g>
   <g id="patch_90">
    <path d="M 59.690625 413.9045 
L 633.060625 413.9045 
" style="fill: none; stroke: #000000; stroke-width: 0.8; stroke-linejoin: miter; stroke-linecap: square"/>
   </g>
   <g id="patch_91">
    <path d="M 59.690625 270.4725 
L 633.060625 270.4725 
" style="fill: none; stroke: #000000; stroke-width: 0.8; stroke-linejoin: miter; stroke-linecap: square"/>
   </g>
   <g id="text_25">
    <!-- Average CPU Usage Comparison -->
    <g transform="translate(249.198125 264.4725) scale(0.12 -0.12)">
     <use xlink:href="#DejaVuSans-41"/>
     <use xlink:href="#DejaVuSans-76" x="62.533203"/>
     <use xlink:href="#DejaVuSans-65" x="121.712891"/>
     <use xlink:href="#DejaVuSans-72" x="183.236328"/>
     <use xlink:href="#DejaVuSans-61" x="224.349609"/>
     <use xlink:href="#DejaVuSans-67" x="285.628906"/>
     <use xlink:href="#DejaVuSans-65" x="349.105469"/>
     <use xlink:href="#DejaVuSans-20" x="410.628906"/>
     <use xlink:href="#DejaVuSans-43" x="442.416016"/>
     <use xlink:href="#DejaVuSans-50" x="512.240234"/>
     <use xlink:href="#DejaVuSans-55" x="572.542969"/>
     <use xlink:href="#DejaVuSans-20" x="645.736328"/>
     <use xlink:href="#DejaVuSans-55" x="677.523438"/>
     <use xlink:href="#DejaVuSans-73" x="750.716797"/>
     <use xlink:href="#DejaVuSans-61" x="802.816406"/>
     <use xlink:href="#DejaVuSans-67" x="864.095703"/>
     <use xlink:href="#DejaVuSans-65" x="927.572266"/>
     <use xlink:href="#DejaVuSans-20" x="989.095703"/>
     <use xlink:href="#DejaVuSans-43" x="1020.882812"/>
     <use xlink:href="#DejaVuSans-6f" x="1090.707031"/>
     <use xlink:href="#DejaVuSans-6d" x="1151.888672"/>
     <use xlink:href="#DejaVuSans-70" x="1249.300781"/>
     <use xlink:href="#DejaVuSans-61" x="1312.777344"/>
     <use xlink:href="#DejaVuSans-72" x="1374.056641"/>
     <use xlink:href="#DejaVuSans-69" x="1415.169922"/>
     <use xlink:href="#DejaVuSans-73" x="1442.953125"/>
     <use xlink:href="#DejaVuSans-6f" x="1495.052734"/>
     <use xlink:href="#DejaVuSans-6e" x="1556.234375"/>
    </g>
   </g>
  </g>
  <g id="axes_3">
   <g id="patch_92">
    <path d="M 59.690625 602.3045 
L 633.060625 602.3045 
L 633.060625 458.8725 
L 59.690625 458.8725 
z
" style="fill: #ffffff"/>
   </g>
   <g id="patch_93">
    <path d="M 85.752898 602.3045 
L 95.614298 602.3045 
L 95.614298 578.383147 
L 85.752898 578.383147 
z
" clip-path="url(#pe38ed77329)" style="fill: #1f77b4"/>
   </g>
   <g id="patch_94">
    <path d="M 226.630048 602.3045 
L 236.491448 602.3045 
L 236.491448 578.388253 
L 226.630048 578.388253 
z
" clip-path="url(#pe38ed77329)" style="fill: #1f77b4"/>
   </g>
   <g id="patch_95">
    <path d="M 367.507197 602.3045 
L 377.368598 602.3045 
L 377.368598 578.355064 
L 367.507197 578.355064 
z
" clip-path="url(#pe38ed77329)" style="fill: #1f77b4"/>
   </g>
   <g id="patch_96">
    <path d="M 508.384347 602.3045 
L 518.245748 602.3045 
L 518.245748 578.380594 
L 508.384347 578.380594 
z
" clip-path="url(#pe38ed77329)" style="fill: #1f77b4"/>
   </g>
   <g id="patch_97">
    <path d="M 95.614298 602.3045 
L 105.475699 602.3045 
L 105.475699 578.709927 
L 95.614298 578.709927 
z
" clip-path="url(#pe38ed77329)" style="fill: #ff7f0e"/>
   </g>
   <g id="patch_98">
    <path d="M 236.491448 602.3045 
L 246.352849 602.3045 
L 246.352849 578.709927 
L 236.491448 578.709927 
z
" clip-path="url(#pe38ed77329)" style="fill: #ff7f0e"/>
   </g>
   <g id="patch_99">
    <path d="M 377.368598 602.3045 
L 387.229998 602.3045 
L 387.229998 578.709927 
L 377.368598 578.709927 
z
" clip-path="url(#pe38ed77329)" style="fill: #ff7f0e"/>
   </g>
   <g id="patch_100">
    <path d="M 518.245748 602.3045 
L 528.107148 602.3045 
L 528.107148 578.64355 
L 518.245748 578.64355 
z
" clip-path="url(#pe38ed77329)" style="fill: #ff7f0e"/>
   </g>
   <g id="patch_101">
    <path d="M 105.475699 602.3045 
L 115.337099 602.3045 
L 115.337099 578.582279 
L 105.475699 578.582279 
z
" clip-path="url(#pe38ed77329)" style="fill: #2ca02c"/>
   </g>
   <g id="patch_102">
    <path d="M 246.352849 602.3045 
L 256.214249 602.3045 
L 256.214249 577.040283 
L 246.352849 577.040283 
z
" clip-path="url(#pe38ed77329)" style="fill: #2ca02c"/>
   </g>
   <g id="patch_103">
    <path d="M 387.229998 602.3045 
L 397.091399 602.3045 
L 397.091399 577.035177 
L 387.229998 577.035177 
z
" clip-path="url(#pe38ed77329)" style="fill: #2ca02c"/>
   </g>
   <g id="patch_104">
    <path d="M 528.107148 602.3045 
L 537.968549 602.3045 
L 537.968549 577.035177 
L 528.107148 577.035177 
z
" clip-path="url(#pe38ed77329)" style="fill: #2ca02c"/>
   </g>
   <g id="patch_105">
    <path d="M 115.337099 602.3045 
L 125.1985 602.3045 
L 125.1985 470.862153 
L 115.337099 470.862153 
z
" clip-path="url(#pe38ed77329)" style="fill: #d62728"/>
   </g>
   <g id="patch_106">
    <path d="M 256.214249 602.3045 
L 266.07565 602.3045 
L 266.07565 506.981609 
L 256.214249 506.981609 
z
" clip-path="url(#pe38ed77329)" style="fill: #d62728"/>
   </g>
   <g id="patch_107">
    <path d="M 397.091399 602.3045 
L 406.952799 602.3045 
L 406.952799 465.702595 
L 397.091399 465.702595 
z
" clip-path="url(#pe38ed77329)" style="fill: #d62728"/>
   </g>
   <g id="patch_108">
    <path d="M 537.968549 602.3045 
L 547.829949 602.3045 
L 547.829949 488.855504 
L 537.968549 488.855504 
z
" clip-path="url(#pe38ed77329)" style="fill: #d62728"/>
   </g>
   <g id="patch_109">
    <path d="M 125.1985 602.3045 
L 135.0599 602.3045 
L 135.0599 515.452372 
L 125.1985 515.452372 
z
" clip-path="url(#pe38ed77329)" style="fill: #9467bd"/>
   </g>
   <g id="patch_110">
    <path d="M 266.07565 602.3045 
L 275.93705 602.3045 
L 275.93705 515.830212 
L 266.07565 515.830212 
z
" clip-path="url(#pe38ed77329)" style="fill: #9467bd"/>
   </g>
   <g id="patch_111">
    <path d="M 406.952799 602.3045 
L 416.8142 602.3045 
L 416.8142 513.734222 
L 406.952799 513.734222 
z
" clip-path="url(#pe38ed77329)" style="fill: #9467bd"/>
   </g>
   <g id="patch_112">
    <path d="M 547.829949 602.3045 
L 557.69135 602.3045 
L 557.69135 515.286429 
L 547.829949 515.286429 
z
" clip-path="url(#pe38ed77329)" style="fill: #9467bd"/>
   </g>
   <g id="patch_113">
    <path d="M 135.0599 602.3045 
L 144.921301 602.3045 
L 144.921301 490.137096 
L 135.0599 490.137096 
z
" clip-path="url(#pe38ed77329)" style="fill: #8c564b"/>
   </g>
   <g id="patch_114">
    <path d="M 275.93705 602.3045 
L 285.798451 602.3045 
L 285.798451 493.665304 
L 275.93705 493.665304 
z
" clip-path="url(#pe38ed77329)" style="fill: #8c564b"/>
   </g>
   <g id="patch_115">
    <path d="M 416.8142 602.3045 
L 426.6756 602.3045 
L 426.6756 486.573146 
L 416.8142 486.573146 
z
" clip-path="url(#pe38ed77329)" style="fill: #8c564b"/>
   </g>
   <g id="patch_116">
    <path d="M 557.69135 602.3045 
L 567.55275 602.3045 
L 567.55275 488.087059 
L 557.69135 488.087059 
z
" clip-path="url(#pe38ed77329)" style="fill: #8c564b"/>
   </g>
   <g id="patch_117">
    <path d="M 144.921301 602.3045 
L 154.782701 602.3045 
L 154.782701 520.650224 
L 144.921301 520.650224 
z
" clip-path="url(#pe38ed77329)" style="fill: #e377c2"/>
   </g>
   <g id="patch_118">
    <path d="M 285.798451 602.3045 
L 295.659851 602.3045 
L 295.659851 520.650224 
L 285.798451 520.650224 
z
" clip-path="url(#pe38ed77329)" style="fill: #e377c2"/>
   </g>
   <g id="patch_119">
    <path d="M 426.6756 602.3045 
L 436.537001 602.3045 
L 436.537001 520.640013 
L 426.6756 520.640013 
z
" clip-path="url(#pe38ed77329)" style="fill: #e377c2"/>
   </g>
   <g id="patch_120">
    <path d="M 567.55275 602.3045 
L 577.414151 602.3045 
L 577.414151 516.486326 
L 567.55275 516.486326 
z
" clip-path="url(#pe38ed77329)" style="fill: #e377c2"/>
   </g>
   <g id="patch_121">
    <path d="M 154.782701 602.3045 
L 164.644102 602.3045 
L 164.644102 518.656353 
L 154.782701 518.656353 
z
" clip-path="url(#pe38ed77329)" style="fill: #7f7f7f"/>
   </g>
   <g id="patch_122">
    <path d="M 295.659851 602.3045 
L 305.521252 602.3045 
L 305.521252 519.509046 
L 295.659851 519.509046 
z
" clip-path="url(#pe38ed77329)" style="fill: #7f7f7f"/>
   </g>
   <g id="patch_123">
    <path d="M 436.537001 602.3045 
L 446.398401 602.3045 
L 446.398401 519.008663 
L 436.537001 519.008663 
z
" clip-path="url(#pe38ed77329)" style="fill: #7f7f7f"/>
   </g>
   <g id="patch_124">
    <path d="M 577.414151 602.3045 
L 587.275551 602.3045 
L 587.275551 519.483516 
L 577.414151 519.483516 
z
" clip-path="url(#pe38ed77329)" style="fill: #7f7f7f"/>
   </g>
   <g id="patch_125">
    <path d="M 164.644102 602.3045 
L 174.505502 602.3045 
L 174.505502 493.06025 
L 164.644102 493.06025 
z
" clip-path="url(#pe38ed77329)" style="fill: #bcbd22"/>
   </g>
   <g id="patch_126">
    <path d="M 305.521252 602.3045 
L 315.382652 602.3045 
L 315.382652 493.726575 
L 305.521252 493.726575 
z
" clip-path="url(#pe38ed77329)" style="fill: #bcbd22"/>
   </g>
   <g id="patch_127">
    <path d="M 446.398401 602.3045 
L 456.259802 602.3045 
L 456.259802 493.690834 
L 446.398401 493.690834 
z
" clip-path="url(#pe38ed77329)" style="fill: #bcbd22"/>
   </g>
   <g id="patch_128">
    <path d="M 587.275551 602.3045 
L 597.136952 602.3045 
L 597.136952 493.708705 
L 587.275551 493.708705 
z
" clip-path="url(#pe38ed77329)" style="fill: #bcbd22"/>
   </g>
   <g id="patch_129">
    <path d="M 174.505502 602.3045 
L 184.366903 602.3045 
L 184.366903 520.588953 
L 174.505502 520.588953 
z
" clip-path="url(#pe38ed77329)" style="fill: #17becf"/>
   </g>
   <g id="patch_130">
    <path d="M 315.382652 602.3045 
L 325.244053 602.3045 
L 325.244053 520.647671 
L 315.382652 520.647671 
z
" clip-path="url(#pe38ed77329)" style="fill: #17becf"/>
   </g>
   <g id="patch_131">
    <path d="M 456.259802 602.3045 
L 466.121202 602.3045 
L 466.121202 520.63746 
L 456.259802 520.63746 
z
" clip-path="url(#pe38ed77329)" style="fill: #17becf"/>
   </g>
   <g id="patch_132">
    <path d="M 597.136952 602.3045 
L 606.998352 602.3045 
L 606.998352 520.606824 
L 597.136952 520.606824 
z
" clip-path="url(#pe38ed77329)" style="fill: #17becf"/>
   </g>
   <g id="matplotlib.axis_5">
    <g id="xtick_9">
     <g id="line2d_22">
      <g>
       <use xlink:href="#mf59bc1fdbf" x="139.9906" y="602.3045" style="stroke: #000000; stroke-width: 0.8"/>
      </g>
     </g>
     <g id="text_26">
      <!-- $In_1-d_r$ -->
      <g transform="translate(122.0906 616.902937) scale(0.1 -0.1)">
       <use xlink:href="#DejaVuSans-Oblique-49" transform="translate(0 0.015625)"/>
       <use xlink:href="#DejaVuSans-Oblique-6e" transform="translate(29.492188 0.015625)"/>
       <use xlink:href="#DejaVuSans-31" transform="translate(92.871094 -16.390625) scale(0.7)"/>
       <use xlink:href="#DejaVuSans-2212" transform="translate(159.624023 0.015625)"/>
       <use xlink:href="#DejaVuSans-Oblique-64" transform="translate(262.895508 0.015625)"/>
       <use xlink:href="#DejaVuSans-Oblique-72" transform="translate(326.37207 -16.390625) scale(0.7)"/>
      </g>
     </g>
    </g>
    <g id="xtick_10">
     <g id="line2d_23">
      <g>
       <use xlink:href="#mf59bc1fdbf" x="280.86775" y="602.3045" style="stroke: #000000; stroke-width: 0.8"/>
      </g>
     </g>
     <g id="text_27">
      <!-- $In_1-v_1$ -->
      <g transform="translate(262.36775 616.902937) scale(0.1 -0.1)">
       <use xlink:href="#DejaVuSans-Oblique-49" transform="translate(0 0.09375)"/>
       <use xlink:href="#DejaVuSans-Oblique-6e" transform="translate(29.492188 0.09375)"/>
       <use xlink:href="#DejaVuSans-31" transform="translate(92.871094 -16.3125) scale(0.7)"/>
       <use xlink:href="#DejaVuSans-2212" transform="translate(159.624023 0.09375)"/>
       <use xlink:href="#DejaVuSans-Oblique-76" transform="translate(262.895508 0.09375)"/>
       <use xlink:href="#DejaVuSans-31" transform="translate(322.075195 -16.3125) scale(0.7)"/>
      </g>
     </g>
    </g>
    <g id="xtick_11">
     <g id="line2d_24">
      <g>
       <use xlink:href="#mf59bc1fdbf" x="421.7449" y="602.3045" style="stroke: #000000; stroke-width: 0.8"/>
      </g>
     </g>
     <g id="text_28">
      <!-- $In_2-d_r$ -->
      <g transform="translate(403.8449 616.902937) scale(0.1 -0.1)">
       <use xlink:href="#DejaVuSans-Oblique-49" transform="translate(0 0.015625)"/>
       <use xlink:href="#DejaVuSans-Oblique-6e" transform="translate(29.492188 0.015625)"/>
       <use xlink:href="#DejaVuSans-32" transform="translate(92.871094 -16.390625) scale(0.7)"/>
       <use xlink:href="#DejaVuSans-2212" transform="translate(159.624023 0.015625)"/>
       <use xlink:href="#DejaVuSans-Oblique-64" transform="translate(262.895508 0.015625)"/>
       <use xlink:href="#DejaVuSans-Oblique-72" transform="translate(326.37207 -16.390625) scale(0.7)"/>
      </g>
     </g>
    </g>
    <g id="xtick_12">
     <g id="line2d_25">
      <g>
       <use xlink:href="#mf59bc1fdbf" x="562.62205" y="602.3045" style="stroke: #000000; stroke-width: 0.8"/>
      </g>
     </g>
     <g id="text_29">
      <!-- $In_2-v_1$ -->
      <g transform="translate(544.12205 616.902937) scale(0.1 -0.1)">
       <use xlink:href="#DejaVuSans-Oblique-49" transform="translate(0 0.09375)"/>
       <use xlink:href="#DejaVuSans-Oblique-6e" transform="translate(29.492188 0.09375)"/>
       <use xlink:href="#DejaVuSans-32" transform="translate(92.871094 -16.3125) scale(0.7)"/>
       <use xlink:href="#DejaVuSans-2212" transform="translate(159.624023 0.09375)"/>
       <use xlink:href="#DejaVuSans-Oblique-76" transform="translate(262.895508 0.09375)"/>
       <use xlink:href="#DejaVuSans-31" transform="translate(322.075195 -16.3125) scale(0.7)"/>
      </g>
     </g>
    </g>
   </g>
   <g id="matplotlib.axis_6">
    <g id="ytick_14">
     <g id="line2d_26">
      <g>
       <use xlink:href="#me7e7c8d100" x="59.690625" y="602.3045" style="stroke: #000000; stroke-width: 0.8"/>
      </g>
     </g>
     <g id="text_30">
      <!-- 0 -->
      <g transform="translate(46.328125 606.103719) scale(0.1 -0.1)">
       <use xlink:href="#DejaVuSans-30"/>
      </g>
     </g>
    </g>
    <g id="ytick_15">
     <g id="line2d_27">
      <g>
       <use xlink:href="#me7e7c8d100" x="59.690625" y="576.774774" style="stroke: #000000; stroke-width: 0.8"/>
      </g>
     </g>
     <g id="text_31">
      <!-- 100 -->
      <g transform="translate(33.603125 580.573993) scale(0.1 -0.1)">
       <use xlink:href="#DejaVuSans-31"/>
       <use xlink:href="#DejaVuSans-30" x="63.623047"/>
       <use xlink:href="#DejaVuSans-30" x="127.246094"/>
      </g>
     </g>
    </g>
    <g id="ytick_16">
     <g id="line2d_28">
      <g>
       <use xlink:href="#me7e7c8d100" x="59.690625" y="551.245048" style="stroke: #000000; stroke-width: 0.8"/>
      </g>
     </g>
     <g id="text_32">
      <!-- 200 -->
      <g transform="translate(33.603125 555.044267) scale(0.1 -0.1)">
       <use xlink:href="#DejaVuSans-32"/>
       <use xlink:href="#DejaVuSans-30" x="63.623047"/>
       <use xlink:href="#DejaVuSans-30" x="127.246094"/>
      </g>
     </g>
    </g>
    <g id="ytick_17">
     <g id="line2d_29">
      <g>
       <use xlink:href="#me7e7c8d100" x="59.690625" y="525.715322" style="stroke: #000000; stroke-width: 0.8"/>
      </g>
     </g>
     <g id="text_33">
      <!-- 300 -->
      <g transform="translate(33.603125 529.514541) scale(0.1 -0.1)">
       <use xlink:href="#DejaVuSans-33"/>
       <use xlink:href="#DejaVuSans-30" x="63.623047"/>
       <use xlink:href="#DejaVuSans-30" x="127.246094"/>
      </g>
     </g>
    </g>
    <g id="ytick_18">
     <g id="line2d_30">
      <g>
       <use xlink:href="#me7e7c8d100" x="59.690625" y="500.185596" style="stroke: #000000; stroke-width: 0.8"/>
      </g>
     </g>
     <g id="text_34">
      <!-- 400 -->
      <g transform="translate(33.603125 503.984815) scale(0.1 -0.1)">
       <use xlink:href="#DejaVuSans-34"/>
       <use xlink:href="#DejaVuSans-30" x="63.623047"/>
       <use xlink:href="#DejaVuSans-30" x="127.246094"/>
      </g>
     </g>
    </g>
    <g id="ytick_19">
     <g id="line2d_31">
      <g>
       <use xlink:href="#me7e7c8d100" x="59.690625" y="474.65587" style="stroke: #000000; stroke-width: 0.8"/>
      </g>
     </g>
     <g id="text_35">
      <!-- 500 -->
      <g transform="translate(33.603125 478.455089) scale(0.1 -0.1)">
       <use xlink:href="#DejaVuSans-35"/>
       <use xlink:href="#DejaVuSans-30" x="63.623047"/>
       <use xlink:href="#DejaVuSans-30" x="127.246094"/>
      </g>
     </g>
    </g>
    <g id="text_36">
     <!-- Average Memory Usage (MB) -->
     <g transform="translate(14.798437 603.448656) rotate(-90) scale(0.1 -0.1)">
      <defs>
       <path id="DejaVuSans-4d" d="M 628 4666 
L 1569 4666 
L 2759 1491 
L 3956 4666 
L 4897 4666 
L 4897 0 
L 4281 0 
L 4281 4097 
L 3078 897 
L 2444 897 
L 1241 4097 
L 1241 0 
L 628 0 
L 628 4666 
z
" transform="scale(0.015625)"/>
       <path id="DejaVuSans-79" d="M 2059 -325 
Q 1816 -950 1584 -1140 
Q 1353 -1331 966 -1331 
L 506 -1331 
L 506 -850 
L 844 -850 
Q 1081 -850 1212 -737 
Q 1344 -625 1503 -206 
L 1606 56 
L 191 3500 
L 800 3500 
L 1894 763 
L 2988 3500 
L 3597 3500 
L 2059 -325 
z
" transform="scale(0.015625)"/>
       <path id="DejaVuSans-42" d="M 1259 2228 
L 1259 519 
L 2272 519 
Q 2781 519 3026 730 
Q 3272 941 3272 1375 
Q 3272 1813 3026 2020 
Q 2781 2228 2272 2228 
L 1259 2228 
z
M 1259 4147 
L 1259 2741 
L 2194 2741 
Q 2656 2741 2882 2914 
Q 3109 3088 3109 3444 
Q 3109 3797 2882 3972 
Q 2656 4147 2194 4147 
L 1259 4147 
z
M 628 4666 
L 2241 4666 
Q 2963 4666 3353 4366 
Q 3744 4066 3744 3513 
Q 3744 3084 3544 2831 
Q 3344 2578 2956 2516 
Q 3422 2416 3680 2098 
Q 3938 1781 3938 1306 
Q 3938 681 3513 340 
Q 3088 0 2303 0 
L 628 0 
L 628 4666 
z
" transform="scale(0.015625)"/>
      </defs>
      <use xlink:href="#DejaVuSans-41"/>
      <use xlink:href="#DejaVuSans-76" x="62.533203"/>
      <use xlink:href="#DejaVuSans-65" x="121.712891"/>
      <use xlink:href="#DejaVuSans-72" x="183.236328"/>
      <use xlink:href="#DejaVuSans-61" x="224.349609"/>
      <use xlink:href="#DejaVuSans-67" x="285.628906"/>
      <use xlink:href="#DejaVuSans-65" x="349.105469"/>
      <use xlink:href="#DejaVuSans-20" x="410.628906"/>
      <use xlink:href="#DejaVuSans-4d" x="442.416016"/>
      <use xlink:href="#DejaVuSans-65" x="528.695312"/>
      <use xlink:href="#DejaVuSans-6d" x="590.21875"/>
      <use xlink:href="#DejaVuSans-6f" x="687.630859"/>
      <use xlink:href="#DejaVuSans-72" x="748.8125"/>
      <use xlink:href="#DejaVuSans-79" x="789.925781"/>
      <use xlink:href="#DejaVuSans-20" x="849.105469"/>
      <use xlink:href="#DejaVuSans-55" x="880.892578"/>
      <use xlink:href="#DejaVuSans-73" x="954.085938"/>
      <use xlink:href="#DejaVuSans-61" x="1006.185547"/>
      <use xlink:href="#DejaVuSans-67" x="1067.464844"/>
      <use xlink:href="#DejaVuSans-65" x="1130.941406"/>
      <use xlink:href="#DejaVuSans-20" x="1192.464844"/>
      <use xlink:href="#DejaVuSans-28" x="1224.251953"/>
      <use xlink:href="#DejaVuSans-4d" x="1263.265625"/>
      <use xlink:href="#DejaVuSans-42" x="1349.544922"/>
      <use xlink:href="#DejaVuSans-29" x="1418.148438"/>
     </g>
    </g>
   </g>
   <g id="patch_133">
    <path d="M 59.690625 602.3045 
L 59.690625 458.8725 
" style="fill: none; stroke: #000000; stroke-width: 0.8; stroke-linejoin: miter; stroke-linecap: square"/>
   </g>
   <g id="patch_134">
    <path d="M 633.060625 602.3045 
L 633.060625 458.8725 
" style="fill: none; stroke: #000000; stroke-width: 0.8; stroke-linejoin: miter; stroke-linecap: square"/>
   </g>
   <g id="patch_135">
    <path d="M 59.690625 602.3045 
L 633.060625 602.3045 
" style="fill: none; stroke: #000000; stroke-width: 0.8; stroke-linejoin: miter; stroke-linecap: square"/>
   </g>
   <g id="patch_136">
    <path d="M 59.690625 458.8725 
L 633.060625 458.8725 
" style="fill: none; stroke: #000000; stroke-width: 0.8; stroke-linejoin: miter; stroke-linecap: square"/>
   </g>
   <g id="text_37">
    <!-- Average Memory Usage Comparison -->
    <g transform="translate(236.994687 452.8725) scale(0.12 -0.12)">
     <use xlink:href="#DejaVuSans-41"/>
     <use xlink:href="#DejaVuSans-76" x="62.533203"/>
     <use xlink:href="#DejaVuSans-65" x="121.712891"/>
     <use xlink:href="#DejaVuSans-72" x="183.236328"/>
     <use xlink:href="#DejaVuSans-61" x="224.349609"/>
     <use xlink:href="#DejaVuSans-67" x="285.628906"/>
     <use xlink:href="#DejaVuSans-65" x="349.105469"/>
     <use xlink:href="#DejaVuSans-20" x="410.628906"/>
     <use xlink:href="#DejaVuSans-4d" x="442.416016"/>
     <use xlink:href="#DejaVuSans-65" x="528.695312"/>
     <use xlink:href="#DejaVuSans-6d" x="590.21875"/>
     <use xlink:href="#DejaVuSans-6f" x="687.630859"/>
     <use xlink:href="#DejaVuSans-72" x="748.8125"/>
     <use xlink:href="#DejaVuSans-79" x="789.925781"/>
     <use xlink:href="#DejaVuSans-20" x="849.105469"/>
     <use xlink:href="#DejaVuSans-55" x="880.892578"/>
     <use xlink:href="#DejaVuSans-73" x="954.085938"/>
     <use xlink:href="#DejaVuSans-61" x="1006.185547"/>
     <use xlink:href="#DejaVuSans-67" x="1067.464844"/>
     <use xlink:href="#DejaVuSans-65" x="1130.941406"/>
     <use xlink:href="#DejaVuSans-20" x="1192.464844"/>
     <use xlink:href="#DejaVuSans-43" x="1224.251953"/>
     <use xlink:href="#DejaVuSans-6f" x="1294.076172"/>
     <use xlink:href="#DejaVuSans-6d" x="1355.257812"/>
     <use xlink:href="#DejaVuSans-70" x="1452.669922"/>
     <use xlink:href="#DejaVuSans-61" x="1516.146484"/>
     <use xlink:href="#DejaVuSans-72" x="1577.425781"/>
     <use xlink:href="#DejaVuSans-69" x="1618.539062"/>
     <use xlink:href="#DejaVuSans-73" x="1646.322266"/>
     <use xlink:href="#DejaVuSans-6f" x="1698.421875"/>
     <use xlink:href="#DejaVuSans-6e" x="1759.603516"/>
    </g>
   </g>
  </g>
  <g id="legend_1">
   <g id="patch_137">
    <path d="M 137.483281 18.798437 
L 157.483281 18.798437 
L 157.483281 11.798437 
L 137.483281 11.798437 
z
" style="fill: #1f77b4"/>
   </g>
   <g id="text_38">
    <!-- CE -->
    <g transform="translate(165.483281 18.798437) scale(0.1 -0.1)">
     <defs>
      <path id="DejaVuSans-45" d="M 628 4666 
L 3578 4666 
L 3578 4134 
L 1259 4134 
L 1259 2753 
L 3481 2753 
L 3481 2222 
L 1259 2222 
L 1259 531 
L 3634 531 
L 3634 0 
L 628 0 
L 628 4666 
z
" transform="scale(0.015625)"/>
     </defs>
     <use xlink:href="#DejaVuSans-43"/>
     <use xlink:href="#DejaVuSans-45" x="69.824219"/>
    </g>
   </g>
   <g id="patch_138">
    <path d="M 137.483281 33.476562 
L 157.483281 33.476562 
L 157.483281 26.476562 
L 137.483281 26.476562 
z
" style="fill: #ff7f0e"/>
   </g>
   <g id="text_39">
    <!-- SA -->
    <g transform="translate(165.483281 33.476562) scale(0.1 -0.1)">
     <defs>
      <path id="DejaVuSans-53" d="M 3425 4513 
L 3425 3897 
Q 3066 4069 2747 4153 
Q 2428 4238 2131 4238 
Q 1616 4238 1336 4038 
Q 1056 3838 1056 3469 
Q 1056 3159 1242 3001 
Q 1428 2844 1947 2747 
L 2328 2669 
Q 3034 2534 3370 2195 
Q 3706 1856 3706 1288 
Q 3706 609 3251 259 
Q 2797 -91 1919 -91 
Q 1588 -91 1214 -16 
Q 841 59 441 206 
L 441 856 
Q 825 641 1194 531 
Q 1563 422 1919 422 
Q 2459 422 2753 634 
Q 3047 847 3047 1241 
Q 3047 1584 2836 1778 
Q 2625 1972 2144 2069 
L 1759 2144 
Q 1053 2284 737 2584 
Q 422 2884 422 3419 
Q 422 4038 858 4394 
Q 1294 4750 2059 4750 
Q 2388 4750 2728 4690 
Q 3069 4631 3425 4513 
z
" transform="scale(0.015625)"/>
     </defs>
     <use xlink:href="#DejaVuSans-53"/>
     <use xlink:href="#DejaVuSans-41" x="65.351562"/>
    </g>
   </g>
   <g id="patch_139">
    <path d="M 198.859844 18.798437 
L 218.859844 18.798437 
L 218.859844 11.798437 
L 198.859844 11.798437 
z
" style="fill: #2ca02c"/>
   </g>
   <g id="text_40">
    <!-- WC -->
    <g transform="translate(226.859844 18.798437) scale(0.1 -0.1)">
     <defs>
      <path id="DejaVuSans-57" d="M 213 4666 
L 850 4666 
L 1831 722 
L 2809 4666 
L 3519 4666 
L 4500 722 
L 5478 4666 
L 6119 4666 
L 4947 0 
L 4153 0 
L 3169 4050 
L 2175 0 
L 1381 0 
L 213 4666 
z
" transform="scale(0.015625)"/>
     </defs>
     <use xlink:href="#DejaVuSans-57"/>
     <use xlink:href="#DejaVuSans-43" x="98.876953"/>
    </g>
   </g>
   <g id="patch_140">
    <path d="M 198.859844 33.476562 
L 218.859844 33.476562 
L 218.859844 26.476562 
L 198.859844 26.476562 
z
" style="fill: #d62728"/>
   </g>
   <g id="text_41">
    <!-- DP -->
    <g transform="translate(226.859844 33.476562) scale(0.1 -0.1)">
     <defs>
      <path id="DejaVuSans-44" d="M 1259 4147 
L 1259 519 
L 2022 519 
Q 2988 519 3436 956 
Q 3884 1394 3884 2338 
Q 3884 3275 3436 3711 
Q 2988 4147 2022 4147 
L 1259 4147 
z
M 628 4666 
L 1925 4666 
Q 3281 4666 3915 4102 
Q 4550 3538 4550 2338 
Q 4550 1131 3912 565 
Q 3275 0 1925 0 
L 628 0 
L 628 4666 
z
" transform="scale(0.015625)"/>
     </defs>
     <use xlink:href="#DejaVuSans-44"/>
     <use xlink:href="#DejaVuSans-50" x="77.001953"/>
    </g>
   </g>
   <g id="patch_141">
    <path d="M 263.730156 18.798437 
L 283.730156 18.798437 
L 283.730156 11.798437 
L 263.730156 11.798437 
z
" style="fill: #9467bd"/>
   </g>
   <g id="text_42">
    <!-- A2C -->
    <g transform="translate(291.730156 18.798437) scale(0.1 -0.1)">
     <use xlink:href="#DejaVuSans-41"/>
     <use xlink:href="#DejaVuSans-32" x="68.408203"/>
     <use xlink:href="#DejaVuSans-43" x="132.03125"/>
    </g>
   </g>
   <g id="patch_142">
    <path d="M 263.730156 33.476562 
L 283.730156 33.476562 
L 283.730156 26.476562 
L 263.730156 26.476562 
z
" style="fill: #8c564b"/>
   </g>
   <g id="text_43">
    <!-- DQN -->
    <g transform="translate(291.730156 33.476562) scale(0.1 -0.1)">
     <defs>
      <path id="DejaVuSans-51" d="M 2522 4238 
Q 1834 4238 1429 3725 
Q 1025 3213 1025 2328 
Q 1025 1447 1429 934 
Q 1834 422 2522 422 
Q 3209 422 3611 934 
Q 4013 1447 4013 2328 
Q 4013 3213 3611 3725 
Q 3209 4238 2522 4238 
z
M 3406 84 
L 4238 -825 
L 3475 -825 
L 2784 -78 
Q 2681 -84 2626 -87 
Q 2572 -91 2522 -91 
Q 1538 -91 948 567 
Q 359 1225 359 2328 
Q 359 3434 948 4092 
Q 1538 4750 2522 4750 
Q 3503 4750 4090 4092 
Q 4678 3434 4678 2328 
Q 4678 1516 4351 937 
Q 4025 359 3406 84 
z
" transform="scale(0.015625)"/>
      <path id="DejaVuSans-4e" d="M 628 4666 
L 1478 4666 
L 3547 763 
L 3547 4666 
L 4159 4666 
L 4159 0 
L 3309 0 
L 1241 3903 
L 1241 0 
L 628 0 
L 628 4666 
z
" transform="scale(0.015625)"/>
     </defs>
     <use xlink:href="#DejaVuSans-44"/>
     <use xlink:href="#DejaVuSans-51" x="77.001953"/>
     <use xlink:href="#DejaVuSans-4e" x="155.712891"/>
    </g>
   </g>
   <g id="patch_143">
    <path d="M 334.783281 18.798437 
L 354.783281 18.798437 
L 354.783281 11.798437 
L 334.783281 11.798437 
z
" style="fill: #e377c2"/>
   </g>
   <g id="text_44">
    <!-- PPO -->
    <g transform="translate(362.783281 18.798437) scale(0.1 -0.1)">
     <defs>
      <path id="DejaVuSans-4f" d="M 2522 4238 
Q 1834 4238 1429 3725 
Q 1025 3213 1025 2328 
Q 1025 1447 1429 934 
Q 1834 422 2522 422 
Q 3209 422 3611 934 
Q 4013 1447 4013 2328 
Q 4013 3213 3611 3725 
Q 3209 4238 2522 4238 
z
M 2522 4750 
Q 3503 4750 4090 4092 
Q 4678 3434 4678 2328 
Q 4678 1225 4090 567 
Q 3503 -91 2522 -91 
Q 1538 -91 948 565 
Q 359 1222 359 2328 
Q 359 3434 948 4092 
Q 1538 4750 2522 4750 
z
" transform="scale(0.015625)"/>
     </defs>
     <use xlink:href="#DejaVuSans-50"/>
     <use xlink:href="#DejaVuSans-50" x="60.302734"/>
     <use xlink:href="#DejaVuSans-4f" x="120.605469"/>
    </g>
   </g>
   <g id="patch_144">
    <path d="M 334.783281 33.476562 
L 354.783281 33.476562 
L 354.783281 26.476562 
L 334.783281 26.476562 
z
" style="fill: #7f7f7f"/>
   </g>
   <g id="text_45">
    <!-- A2C_Veri -->
    <g transform="translate(362.783281 33.476562) scale(0.1 -0.1)">
     <defs>
      <path id="DejaVuSans-5f" d="M 3263 -1063 
L 3263 -1509 
L -63 -1509 
L -63 -1063 
L 3263 -1063 
z
" transform="scale(0.015625)"/>
      <path id="DejaVuSans-56" d="M 1831 0 
L 50 4666 
L 709 4666 
L 2188 738 
L 3669 4666 
L 4325 4666 
L 2547 0 
L 1831 0 
z
" transform="scale(0.015625)"/>
     </defs>
     <use xlink:href="#DejaVuSans-41"/>
     <use xlink:href="#DejaVuSans-32" x="68.408203"/>
     <use xlink:href="#DejaVuSans-43" x="132.03125"/>
     <use xlink:href="#DejaVuSans-5f" x="201.855469"/>
     <use xlink:href="#DejaVuSans-56" x="251.855469"/>
     <use xlink:href="#DejaVuSans-65" x="312.513672"/>
     <use xlink:href="#DejaVuSans-72" x="374.037109"/>
     <use xlink:href="#DejaVuSans-69" x="415.150391"/>
    </g>
   </g>
   <g id="patch_145">
    <path d="M 427.077031 18.798437 
L 447.077031 18.798437 
L 447.077031 11.798437 
L 427.077031 11.798437 
z
" style="fill: #bcbd22"/>
   </g>
   <g id="text_46">
    <!-- DQN_Veri -->
    <g transform="translate(455.077031 18.798437) scale(0.1 -0.1)">
     <use xlink:href="#DejaVuSans-44"/>
     <use xlink:href="#DejaVuSans-51" x="77.001953"/>
     <use xlink:href="#DejaVuSans-4e" x="155.712891"/>
     <use xlink:href="#DejaVuSans-5f" x="230.517578"/>
     <use xlink:href="#DejaVuSans-56" x="280.517578"/>
     <use xlink:href="#DejaVuSans-65" x="341.175781"/>
     <use xlink:href="#DejaVuSans-72" x="402.699219"/>
     <use xlink:href="#DejaVuSans-69" x="443.8125"/>
    </g>
   </g>
   <g id="patch_146">
    <path d="M 427.077031 33.754687 
L 447.077031 33.754687 
L 447.077031 26.754687 
L 427.077031 26.754687 
z
" style="fill: #17becf"/>
   </g>
   <g id="text_47">
    <!-- PPO_Veri -->
    <g transform="translate(455.077031 33.754687) scale(0.1 -0.1)">
     <use xlink:href="#DejaVuSans-50"/>
     <use xlink:href="#DejaVuSans-50" x="60.302734"/>
     <use xlink:href="#DejaVuSans-4f" x="120.605469"/>
     <use xlink:href="#DejaVuSans-5f" x="199.316406"/>
     <use xlink:href="#DejaVuSans-56" x="249.316406"/>
     <use xlink:href="#DejaVuSans-65" x="309.974609"/>
     <use xlink:href="#DejaVuSans-72" x="371.498047"/>
     <use xlink:href="#DejaVuSans-69" x="412.611328"/>
    </g>
   </g>
  </g>
 </g>
 <defs>
  <clipPath id="pbe2d2b6023">
   <rect x="59.690625" y="82.0725" width="573.37" height="143.432"/>
  </clipPath>
  <clipPath id="pb045251c52">
   <rect x="59.690625" y="270.4725" width="573.37" height="143.432"/>
  </clipPath>
  <clipPath id="pe38ed77329">
   <rect x="59.690625" y="458.8725" width="573.37" height="143.432"/>
  </clipPath>
 </defs>
</svg>
